{
.appVersion = "1075";
DisplayStrings = (
"/boBaimai-thai/maiEk-thai/boBaimai-thai/maiTho-thai/boBaimai-thai/maiTri-thai/boBaimai-thai/maiChattawa-thai/boBaimai-thai/thanthakhat-thai/boBaimai-thai/saraIi-thai/maiEk-thai/boBaimai-thai/saraIi-thai/maiTho-thai/boBaimai-thai/saraIi-thai/maiTri-thai/boBaimai-thai/saraIi-thai/maiChattawa-thai/boBaimai-thai/saraI-thai/thanthakhat-thai/boBaimai-thai/saraU-thai/boBaimai-thai/saraUu-thai",
s,
/divisionslash,
/radical,
/euro,
M,
/trademark,
/ringcomb,
"\U00B0",
/infinity,
"\U00A2",
T,
/product,
E,
/summation,
/servicemark,
/verticallinelowmod,
"~",
/approxequal,
"=",
b,
/literSign
);
copyright = "Copyright © 2018 by Cadson Demak Co.,Ltd.. All rights reserved.";
customParameters = (
{
name = vendorID;
value = CDK;
},
{
name = description;
value = "Copyright (c) 2018, Cadson Demak (info@cadsondemak.com)";
},
{
name = license;

glyphs = (
{
color = 6;
glyphname = A;
lastChange = "2018-04-05 04:32:17 +0000";
layers = (
{
anchors = (
{
name = bottom;
position = "{325, 0}";
},
{
name = ogonek;
position = "{560, 10}";
},
{
name = top;
position = "{330, 700}";
}
);
layerId = "0B1DFD06-3317-40CA-B510-4969A0718C16";
paths = (
{
closed = 1;
nodes = (
"362 675 LINE",
"365 680 OFFCURVE",
"368 686 OFFCURVE",
"368 692 CURVE SMOOTH",
"368 703 OFFCURVE",
"357 718 OFFCURVE",
"330 718 CURVE SMOOTH",
"312 718 OFFCURVE",
"300 709 OFFCURVE",
"290 680 CURVE SMOOTH",
"55 0 LINE",
"112 0 LINE",
"178 195 LINE",
"472 195 LINE",
"538 0 LINE",
"595 0 LINE"
);
},
{
closed = 1;
nodes = (
"195 241 LINE",
"326 643 LINE",
"457 241 LINE"
);
}
);
width = 650;
}
);
note = A;
unicode = 0041;
},
{
color = 6;
glyphname = B;
lastChange = "2018-04-09 08:27:25 +0000";
layers = (
{
anchors = (
{
name = bottom;
position = "{289, 0}";
},
{
name = top;
position = "{289, 700}";
}
);
layerId = "0B1DFD06-3317-40CA-B510-4969A0718C16";
paths = (
{
closed = 1;
nodes = (
"320 0 LINE SMOOTH",
"449 0 OFFCURVE",
"523 74 OFFCURVE",
"523 191 CURVE SMOOTH",
"523 286 OFFCURVE",
"452 348 OFFCURVE",
"366 366 CURVE",
"366 367 LINE",
"434 377 OFFCURVE",
"503 416 OFFCURVE",
"503 524 CURVE SMOOTH",
"503 616 OFFCURVE",
"446 700 OFFCURVE",
"317 700 CURVE SMOOTH",
"116 700 LINE",
"109 709 OFFCURVE",
"100 718 OFFCURVE",
"91 718 CURVE SMOOTH",
"72 718 OFFCURVE",
"55 699 OFFCURVE",
"55 683 CURVE SMOOTH",
"55 661 OFFCURVE",
"81 670 OFFCURVE",
"81 631 CURVE SMOOTH",
"81 0 LINE"
);
},
{
closed = 1;
nodes = (
"134 341 LINE",
"289 341 LINE SMOOTH",
"396 341 OFFCURVE",
"467 288 OFFCURVE",
"467 191 CURVE SMOOTH",
"467 90 OFFCURVE",
"417 45 OFFCURVE",
"317 45 CURVE SMOOTH",
"134 45 LINE"
);
},
{
closed = 1;
nodes = (
"134 655 LINE",
"310 655 LINE SMOOTH",
"410 655 OFFCURVE",
"447 596 OFFCURVE",
"447 524 CURVE SMOOTH",
"447 421 OFFCURVE",
"373 387 OFFCURVE",
"276 387 CURVE SMOOTH",
"134 387 LINE"
);
}
);
width = 578;
}
);
note = B;
unicode = 0042;
},
{
color = 6;
glyphname = C;
lastChange = "2018-03-27 08:13:49 +0000";
layers = (
{
anchors = (
{
name = bottom;
position = "{351, 0}";
},
{
name = top;
position = "{341, 700}";
}
);
layerId = "0B1DFD06-3317-40CA-B510-4969A0718C16";
paths = (
{
closed = 1;
nodes = (
"512 100 LINE",
"475 58 OFFCURVE",
"416 39 OFFCURVE",
"360 39 CURVE SMOOTH",
"204 39 OFFCURVE",
"111 179 OFFCURVE",
"111 351 CURVE SMOOTH",
"111 518 OFFCURVE",
"199 661 OFFCURVE",
"350 661 CURVE SMOOTH",
"416 661 OFFCURVE",
"468 637 OFFCURVE",
"506 597 CURVE",
"532 643 LINE",
"484 687 OFFCURVE",
"418 710 OFFCURVE",
"350 710 CURVE SMOOTH",
"170 710 OFFCURVE",
"55 561 OFFCURVE",
"55 351 CURVE SMOOTH",
"55 141 OFFCURVE",
"172 -10 OFFCURVE",
"358 -10 CURVE SMOOTH",
"428 -10 OFFCURVE",
"497 15 OFFCURVE",
"550 65 CURVE"
);
}
);
width = 605;
}
);
note = C;
unicode = 0043;
},
{
color = 6;
glyphname = D;
lastChange = "2018-03-24 02:21:21 +0000";
layers = (
{
anchors = (
{
name = bottom;
position = "{309, 0}";
},
{
name = center;
position = "{309, 350}";
},
{
name = top;
position = "{309, 700}";
}
);
layerId = "0B1DFD06-3317-40CA-B510-4969A0718C16";
paths = (
{
closed = 1;
nodes = (
"80 0 LINE",
"258 0 LINE SMOOTH",
"454 0 OFFCURVE",
"563 118 OFFCURVE",
"563 352 CURVE SMOOTH",
"563 582 OFFCURVE",
"442 700 OFFCURVE",
"253 700 CURVE SMOOTH",
"116 700 LINE",
"108 709 OFFCURVE",
"97 718 OFFCURVE",
"91 718 CURVE SMOOTH",
"71 718 OFFCURVE",
"58 696 OFFCURVE",
"55 687 CURVE SMOOTH",
"51 669 OFFCURVE",
"80 666 OFFCURVE",
"80 631 CURVE SMOOTH"
);
},
{
closed = 1;
nodes = (
"134 46 LINE",
"134 654 LINE",
"250 654 LINE SMOOTH",
"409 654 OFFCURVE",
"507 557 OFFCURVE",
"507 352 CURVE SMOOTH",
"507 159 OFFCURVE",
"433 46 OFFCURVE",
"258 46 CURVE SMOOTH"
);
}
);
width = 618;
}
);
note = D;
unicode = 0044;
},
{
color = 6;
glyphname = E;
lastChange = "2018-03-28 03:51:48 +0000";
layers = (
{
anchors = (
{
name = bottom;
position = "{265, 0}";
},
{
name = ogonek;
position = "{422, 10}";
},
{
name = top;
position = "{265, 700}";
},
{
name = topleft;
position = "{20, 700}";
}
);
layerId = "0B1DFD06-3317-40CA-B510-4969A0718C16";
paths = (
{
closed = 1;
nodes = (
"81 0 LINE",
"454 0 LINE",
"454 46 LINE",
"135 46 LINE",
"135 344 LINE",
"361 344 LINE",
"361 390 LINE",
"135 390 LINE",
"135 654 LINE",
"445 654 LINE",
"445 700 LINE",
"116 700 LINE",
"109 709 OFFCURVE",
"97 718 OFFCURVE",
"91 718 CURVE SMOOTH",
"72 718 OFFCURVE",
"59 696 OFFCURVE",
"56 687 CURVE",
"51 669 OFFCURVE",
"81 666 OFFCURVE",
"81 631 CURVE SMOOTH"
);
}
);
width = 509;
}
);
note = E;
unicode = 0045;
},
{
color = 6;
glyphname = F;
lastChange = "2018-03-24 02:21:21 +0000";
layers = (
{
anchors = (
{
name = bottom;
position = "{245, 0}";
},
{
name = top;
position = "{245, 700}";
}
);
layerId = "0B1DFD06-3317-40CA-B510-4969A0718C16";
paths = (
{
closed = 1;
nodes = (
"81 0 LINE",
"135 0 LINE",
"135 334 LINE",
"361 334 LINE",
"361 380 LINE",
"135 380 LINE",
"135 654 LINE",
"445 654 LINE",
"445 700 LINE",
"116 700 LINE",
"109 709 OFFCURVE",
"97 718 OFFCURVE",
"91 718 CURVE SMOOTH",
"72 718 OFFCURVE",
"59 696 OFFCURVE",
"56 687 CURVE",
"51 669 OFFCURVE",
"81 666 OFFCURVE",
"81 631 CURVE SMOOTH"
);
}
);
width = 490;
}
);
note = F;
unicode = 0046;
},
{
color = 6;
glyphname = G;
lastChange = "2018-03-25 03:50:29 +0000";
layers = (
{
anchors = (
{
name = bottom;
position = "{350, 0}";
},
{
name = top;
position = "{350, 700}";
}
);
layerId = "0B1DFD06-3317-40CA-B510-4969A0718C16";
paths = (
{
closed = 1;
nodes = (
"193 39 OFFCURVE",
"111 179 OFFCURVE",
"111 351 CURVE SMOOTH",
"111 518 OFFCURVE",
"199 661 OFFCURVE",
"350 661 CURVE SMOOTH",
"422 661 OFFCURVE",
"471 642 OFFCURVE",
"511 598 CURVE",
"537 643 LINE",
"491 685 OFFCURVE",
"434 710 OFFCURVE",
"350 710 CURVE SMOOTH",
"170 710 OFFCURVE",
"55 561 OFFCURVE",
"55 351 CURVE SMOOTH",
"55 141 OFFCURVE",
"161 -10 OFFCURVE",
"353 -10 CURVE SMOOTH",
"436 -10 OFFCURVE",
"487 7 OFFCURVE",
"558 50 CURVE",
"558 293 LINE SMOOTH",
"558 330 OFFCURVE",
"581 322 OFFCURVE",
"581 340 CURVE SMOOTH",
"581 354 OFFCURVE",
"565 375 OFFCURVE",
"545 375 CURVE SMOOTH",
"536 375 OFFCURVE",
"530 371 OFFCURVE",
"523 362 CURVE",
"331 362 LINE",
"331 316 LINE",
"504 316 LINE",
"504 79 LINE",
"464 51 OFFCURVE",
"423 39 OFFCURVE",
"355 39 CURVE SMOOTH"
);
}
);
width = 636;
}
);
note = G;
unicode = 0047;
},
{
color = 6;
glyphname = H;
lastChange = "2018-03-24 02:21:21 +0000";
layers = (
{
anchors = (
{
name = bottom;
position = "{311, 0}";
},
{
name = center;
position = "{311, 350}";
},
{
name = top;
position = "{311, 700}";
},
{
name = topleft;
position = "{20, 700}";
}
);
layerId = "0B1DFD06-3317-40CA-B510-4969A0718C16";
paths = (
{
closed = 1;
nodes = (
"487 700 LINE",
"487 391 LINE",
"134 391 LINE",
"134 700 LINE",
"80 700 LINE",
"80 0 LINE",
"134 0 LINE",
"134 345 LINE",
"487 345 LINE",
"487 0 LINE",
"541 0 LINE",
"541 700 LINE"
);
}
);
width = 621;
}
);
note = H;
unicode = 0048;
},
{
color = 6;
glyphname = I;
lastChange = "2018-03-28 03:52:13 +0000";
layers = (
{
anchors = (
{
name = bottom;
position = "{107, 0}";
},
{
name = ogonek;
position = "{104, 10}";
},
{
name = top;
position = "{107, 700}";
},
{
name = topleft;
position = "{20, 700}";
}
);
layerId = "0B1DFD06-3317-40CA-B510-4969A0718C16";
paths = (
{
closed = 1;
nodes = (
"80 700 LINE",
"80 0 LINE",
"134 0 LINE",
"134 700 LINE"
);
}
);
width = 214;
}
);
note = I;
unicode = 0049;
},
{
color = 6;
glyphname = J;
lastChange = "2018-04-05 04:33:49 +0000";
layers = (
{
anchors = (
{
name = bottom;
position = "{220, 0}";
},
{
name = top;
position = "{321, 700}";
}
);
layerId = "0B1DFD06-3317-40CA-B510-4969A0718C16";
paths = (
{
closed = 1;
nodes = (
"293 700 LINE",
"293 161 LINE SMOOTH",
"293 81 OFFCURVE",
"248 39 OFFCURVE",
"173 39 CURVE SMOOTH",
"139 39 OFFCURVE",
"92 53 OFFCURVE",
"68 70 CURVE",
"45 25 LINE",
"77 5 OFFCURVE",
"130 -10 OFFCURVE",
"169 -10 CURVE SMOOTH",
"276 -10 OFFCURVE",
"347 55 OFFCURVE",
"347 164 CURVE SMOOTH",
"347 700 LINE"
);
}
);
width = 427;
}
);
note = J;
unicode = 004A;
},
{
color = 6;
glyphname = K;
lastChange = "2018-03-24 02:21:21 +0000";
layers = (
{
anchors = (
{
name = bottom;
position = "{290, 0}";
},
{
name = top;
position = "{290, 700}";
}
);
layerId = "0B1DFD06-3317-40CA-B510-4969A0718C16";
paths = (
{
closed = 1;
nodes = (
"192 366 LINE",
"495 700 LINE",
"425 700 LINE",
"134 375 LINE",
"134 700 LINE",
"80 700 LINE",
"80 0 LINE",
"134 0 LINE",
"134 356 LINE",
"453 0 LINE",
"524 0 LINE"
);
}
);
width = 579;
}
);
note = K;
unicode = 004B;
},
{
color = 6;
glyphname = L;
lastChange = "2018-03-24 02:26:41 +0000";
layers = (
{
anchors = (
{
name = bottom;
position = "{243, 0}";
},
{
name = center;
position = "{243, 350}";
},
{
name = top;
position = "{114, 700}";
},
{
name = topright;
position = "{466, 700}";
}
);
layerId = "0B1DFD06-3317-40CA-B510-4969A0718C16";
paths = (
{
closed = 1;
nodes = (
"81 69 LINE SMOOTH",
"81 35 OFFCURVE",
"55 34 OFFCURVE",
"55 17 CURVE SMOOTH",
"55 5 OFFCURVE",
"71 -18 OFFCURVE",
"91 -18 CURVE SMOOTH",
"98 -18 OFFCURVE",
"109 -9 OFFCURVE",
"116 0 CURVE",
"441 0 LINE",
"441 46 LINE",
"135 46 LINE",
"135 700 LINE",
"81 700 LINE"
);
}
);
width = 486;
}
);
note = L;
unicode = 004C;
},
{
color = 6;
glyphname = M;
lastChange = "2018-04-10 08:41:13 +0000";
layers = (
{
anchors = (
{
name = bottom;
position = "{381, 0}";
},
{
name = top;
position = "{381, 700}";
}
);
layerId = "0B1DFD06-3317-40CA-B510-4969A0718C16";
paths = (
{
closed = 1;
nodes = (
"381 93 LINE",
"190 676 LINE SMOOTH",
"182 700 OFFCURVE",
"170 718 OFFCURVE",
"144 718 CURVE SMOOTH",
"114 718 OFFCURVE",
"107 689 OFFCURVE",
"114 678 CURVE SMOOTH",
"122 666 LINE",
"55 -1 LINE",
"110 -1 LINE",
"165 599 LINE",
"360 6 LINE SMOOTH",
"364 -6 OFFCURVE",
"373 -11 OFFCURVE",
"384 -11 CURVE SMOOTH",
"406 -11 OFFCURVE",
"421 5 OFFCURVE",
"415 25 CURVE SMOOTH",
"412 35 LINE",
"598 599 LINE",
"653 -1 LINE",
"708 -1 LINE",
"641 666 LINE",
"649 678 LINE SMOOTH",
"656 689 OFFCURVE",
"649 718 OFFCURVE",
"619 718 CURVE SMOOTH",
"593 718 OFFCURVE",
"581 700 OFFCURVE",
"573 676 CURVE SMOOTH"
);
}
);
width = 763;
}
);
note = M;
unicode = 004D;
},
{
color = 6;
glyphname = N;
lastChange = "2018-03-24 02:21:21 +0000";
layers = (
{
anchors = (
{
name = bottom;
position = "{309, 0}";
},
{
name = top;
position = "{309, 700}";
}
);
layerId = "0B1DFD06-3317-40CA-B510-4969A0718C16";
paths = (
{
closed = 1;
nodes = (
"78 0 LINE",
"132 0 LINE",
"132 579 LINE",
"490 0 LINE",
"490 0 OFFCURVE",
"538 0 OFFCURVE",
"538 0 CURVE",
"538 700 LINE",
"484 700 LINE",
"484 104 LINE",
"116 701 LINE SMOOTH",
"110 710 OFFCURVE",
"97 718 OFFCURVE",
"91 718 CURVE SMOOTH",
"72 718 OFFCURVE",
"59 696 OFFCURVE",
"56 687 CURVE",
"51 670 OFFCURVE",
"78 670 OFFCURVE",
"78 634 CURVE SMOOTH"
);
}
);
width = 618;
}
);
note = N;
unicode = 004E;
},
{
color = 6;
glyphname = O;
lastChange = "2018-04-05 04:37:32 +0000";
layers = (
{
anchors = (
{
name = bottom;
position = "{326, 0}";
},
{
name = center;
position = "{326, 350}";
},
{
name = ogonek;
position = "{587, 10}";
},
{
name = top;
position = "{326, 700}";
},
{
name = topleft;
position = "{20, 700}";
},
{
name = topright;
position = "{496, 584}";
}
);
layerId = "0B1DFD06-3317-40CA-B510-4969A0718C16";
paths = (
{
closed = 1;
nodes = (
"597 568 OFFCURVE",
"508 710 OFFCURVE",
"326 710 CURVE SMOOTH",
"144 710 OFFCURVE",
"55 568 OFFCURVE",
"55 350 CURVE SMOOTH",
"55 132 OFFCURVE",
"144 -10 OFFCURVE",
"326 -10 CURVE SMOOTH",
"508 -10 OFFCURVE",
"597 132 OFFCURVE",
"597 350 CURVE SMOOTH"
);
},
{
closed = 1;
nodes = (
"541 178 OFFCURVE",
"486 39 OFFCURVE",
"326 39 CURVE SMOOTH",
"166 39 OFFCURVE",
"111 178 OFFCURVE",
"111 350 CURVE SMOOTH",
"111 522 OFFCURVE",
"166 661 OFFCURVE",
"326 661 CURVE SMOOTH",
"486 661 OFFCURVE",
"541 522 OFFCURVE",
"541 350 CURVE SMOOTH"
);
}
);
width = 652;
}
);
note = O;
unicode = 004F;
},
{
color = 6;
glyphname = P;
lastChange = "2018-03-24 02:21:21 +0000";
layers = (
{
anchors = (
{
name = bottom;
position = "{286, 0}";
},
{
name = top;
position = "{286, 700}";
}
);
layerId = "0B1DFD06-3317-40CA-B510-4969A0718C16";
paths = (
{
closed = 1;
nodes = (
"80 0 LINE",
"134 0 LINE",
"134 266 LINE",
"266 266 LINE SMOOTH",
"404 266 OFFCURVE",
"517 321 OFFCURVE",
"517 480 CURVE SMOOTH",
"517 641 OFFCURVE",
"408 700 OFFCURVE",
"260 700 CURVE SMOOTH",
"116 700 LINE",
"108 709 OFFCURVE",
"96 718 OFFCURVE",
"90 718 CURVE SMOOTH",
"71 718 OFFCURVE",
"58 696 OFFCURVE",
"55 687 CURVE",
"51 669 OFFCURVE",
"80 665 OFFCURVE",
"80 629 CURVE SMOOTH"
);
},
{
closed = 1;
nodes = (
"261 654 LINE SMOOTH",
"400 654 OFFCURVE",
"461 585 OFFCURVE",
"461 480 CURVE SMOOTH",
"461 366 OFFCURVE",
"394 311 OFFCURVE",
"263 311 CURVE SMOOTH",
"134 311 LINE",
"134 654 LINE"
);
}
);
width = 572;
}
);
note = P;
unicode = 0050;
},
{
color = 6;
glyphname = Q;
lastChange = "2018-03-24 02:21:21 +0000";
layers = (
{
anchors = (
{
name = bottom;
position = "{326, 0}";
},
{
name = top;
position = "{326, 700}";
}
);
layerId = "0B1DFD06-3317-40CA-B510-4969A0718C16";
paths = (
{
closed = 1;
nodes = (
"445 -163 LINE",
"516 -163 LINE",
"372 20 LINE",
"312 10 LINE"
);
},
{
closed = 1;
nodes = (
"597 568 OFFCURVE",
"508 710 OFFCURVE",
"326 710 CURVE SMOOTH",
"144 710 OFFCURVE",
"55 568 OFFCURVE",
"55 350 CURVE SMOOTH",
"55 132 OFFCURVE",
"144 -10 OFFCURVE",
"326 -10 CURVE SMOOTH",
"508 -10 OFFCURVE",
"597 132 OFFCURVE",
"597 350 CURVE SMOOTH"
);
},
{
closed = 1;
nodes = (
"541 178 OFFCURVE",
"486 39 OFFCURVE",
"326 39 CURVE SMOOTH",
"166 39 OFFCURVE",
"111 178 OFFCURVE",
"111 350 CURVE SMOOTH",
"111 522 OFFCURVE",
"166 661 OFFCURVE",
"326 661 CURVE SMOOTH",
"486 661 OFFCURVE",
"541 522 OFFCURVE",
"541 350 CURVE SMOOTH"
);
}
);
width = 652;
}
);
note = Q;
unicode = 0051;
},
{
color = 6;
glyphname = R;
lastChange = "2018-04-09 07:14:49 +0000";
layers = (
{
anchors = (
{
name = bottom;
position = "{280, 0}";
},
{
name = top;
position = "{260, 700}";
}
);
layerId = "0B1DFD06-3317-40CA-B510-4969A0718C16";
paths = (
{
closed = 1;
nodes = (
"51 669 OFFCURVE",
"80 665 OFFCURVE",
"80 629 CURVE SMOOTH",
"80 0 LINE",
"134 0 LINE",
"134 296 LINE",
"244 296 LINE",
"435 0 LINE",
"498 0 LINE",
"306 298 LINE",
"414 302 OFFCURVE",
"512 359 OFFCURVE",
"512 495 CURVE SMOOTH",
"512 646 OFFCURVE",
"408 700 OFFCURVE",
"260 700 CURVE SMOOTH",
"116 700 LINE",
"108 709 OFFCURVE",
"96 718 OFFCURVE",
"90 718 CURVE SMOOTH",
"71 718 OFFCURVE",
"58 696 OFFCURVE",
"55 687 CURVE"
);
},
{
closed = 1;
nodes = (
"134 654 LINE",
"261 654 LINE SMOOTH",
"400 654 OFFCURVE",
"456 595 OFFCURVE",
"456 495 CURVE SMOOTH",
"456 391 OFFCURVE",
"400 341 OFFCURVE",
"263 341 CURVE SMOOTH",
"134 341 LINE"
);
}
);
width = 567;
}
);
note = R;
unicode = 0052;
},
{
color = 6;
glyphname = S;
lastChange = "2018-03-24 02:21:21 +0000";
layers = (
{
anchors = (
{
name = bottom;
position = "{284, 0}";
},
{
name = top;
position = "{284, 700}";
}
);
layerId = "0B1DFD06-3317-40CA-B510-4969A0718C16";
paths = (
{
closed = 1;
nodes = (
"513 269 OFFCURVE",
"448 318 OFFCURVE",
"313 366 CURVE SMOOTH",
"198 407 OFFCURVE",
"129 438 OFFCURVE",
"129 529 CURVE SMOOTH",
"129 619 OFFCURVE",
"180 661 OFFCURVE",
"282 661 CURVE SMOOTH",
"361 661 OFFCURVE",
"414 635 OFFCURVE",
"453 605 CURVE",
"483 647 LINE",
"435 682 OFFCURVE",
"369 710 OFFCURVE",
"283 710 CURVE SMOOTH",
"143 710 OFFCURVE",
"73 637 OFFCURVE",
"73 528 CURVE SMOOTH",
"73 424 OFFCURVE",
"141 371 OFFCURVE",
"271 324 CURVE SMOOTH",
"416 271 OFFCURVE",
"457 244 OFFCURVE",
"457 159 CURVE SMOOTH",
"457 85 OFFCURVE",
"403 39 OFFCURVE",
"299 39 CURVE SMOOTH",
"218 39 OFFCURVE",
"147 68 OFFCURVE",
"91 122 CURVE",
"55 84 LINE",
"105 35 OFFCURVE",
"187 -9 OFFCURVE",
"299 -9 CURVE SMOOTH",
"440 -9 OFFCURVE",
"513 62 OFFCURVE",
"513 159 CURVE SMOOTH"
);
}
);
width = 568;
}
);
note = S;
unicode = 0053;
},
{
color = 6;
glyphname = T;
lastChange = "2018-03-27 08:14:38 +0000";
layers = (
{
anchors = (
{
name = bottom;
position = "{259, 0}";
},
{
name = center;
position = "{272, 350}";
},
{
name = top;
position = "{272, 700}";
}
);
layerId = "0B1DFD06-3317-40CA-B510-4969A0718C16";
paths = (
{
closed = 1;
nodes = (
"45 700 LINE",
"45 654 LINE",
"245 654 LINE",
"245 0 LINE",
"299 0 LINE",
"299 654 LINE",
"499 654 LINE",
"499 700 LINE"
);
}
);
width = 544;
}
);
note = T;
unicode = 0054;
},
{
color = 6;
glyphname = U;
lastChange = "2018-04-05 04:27:52 +0000";
layers = (
{
anchors = (
{
name = bottom;
position = "{322, 0}";
},
{
name = ogonek;
position = "{340, 10}";
},
{
name = top;
position = "{322, 700}";
},
{
name = topright;
position = "{569, 576}";
}
);
layerId = "0B1DFD06-3317-40CA-B510-4969A0718C16";
paths = (
{
closed = 1;
nodes = (
"474 -10 OFFCURVE",
"569 78 OFFCURVE",
"569 232 CURVE SMOOTH",
"569 700 LINE",
"515 700 LINE",
"515 226 LINE SMOOTH",
"515 95 OFFCURVE",
"437 39 OFFCURVE",
"322 39 CURVE SMOOTH",
"207 39 OFFCURVE",
"129 95 OFFCURVE",
"129 226 CURVE SMOOTH",
"129 700 LINE",
"75 700 LINE",
"75 232 LINE SMOOTH",
"75 78 OFFCURVE",
"170 -10 OFFCURVE",
"322 -10 CURVE SMOOTH"
);
}
);
width = 644;
}
);
note = U;
unicode = 0055;
},
{
color = 6;
glyphname = V;
lastChange = "2018-04-05 04:29:47 +0000";
layers = (
{
anchors = (
{
name = bottom;
position = "{328, 0}";
},
{
name = top;
position = "{328, 700}";
}
);
layerId = "0B1DFD06-3317-40CA-B510-4969A0718C16";
paths = (
{
closed = 1;
nodes = (
"601 700 LINE",
"547 700 LINE",
"329 73 LINE",
"110 700 LINE",
"55 700 LINE",
"295 26 LINE",
"286 8 OFFCURVE",
"289 -6 OFFCURVE",
"305 -15 CURVE SMOOTH",
"326 -26 OFFCURVE",
"345 -17 OFFCURVE",
"355 10 CURVE SMOOTH"
);
}
);
width = 656;
}
);
note = V;
unicode = 0056;
},
{
color = 6;
glyphname = W;
lastChange = "2018-04-05 04:39:19 +0000";
layers = (
{
anchors = (
{
name = bottom;
position = "{416, 0}";
},
{
name = top;
position = "{416, 700}";
}
);
layerId = "0B1DFD06-3317-40CA-B510-4969A0718C16";
paths = (
{
closed = 1;
nodes = (
"447 670 LINE",
"450 680 LINE SMOOTH",
"455 697 OFFCURVE",
"440 710 OFFCURVE",
"415 710 CURVE SMOOTH",
"405 710 OFFCURVE",
"397 707 OFFCURVE",
"395 699 CURVE SMOOTH",
"213 99 LINE",
"109 700 LINE",
"55 700 LINE",
"172 34 LINE",
"161 21 LINE",
"155 12 OFFCURVE",
"175 -15 OFFCURVE",
"194 -18 CURVE SMOOTH",
"213 -21 OFFCURVE",
"236 12 OFFCURVE",
"240 24 CURVE SMOOTH",
"416 611 LINE",
"591 24 LINE SMOOTH",
"595 10 OFFCURVE",
"612 -18 OFFCURVE",
"637 -18 CURVE SMOOTH",
"656 -18 OFFCURVE",
"676 12 OFFCURVE",
"670 21 CURVE",
"659 34 LINE",
"776 700 LINE",
"722 700 LINE",
"618 99 LINE"
);
}
);
width = 831;
}
);
note = W;
unicode = 0057;
},
{
color = 6;
glyphname = X;
lastChange = "2018-04-09 08:27:42 +0000";
layers = (
{
anchors = (
{
name = bottom;
position = "{325, 0}";
},
{
name = top;
position = "{325, 700}";
}
);
layerId = "0B1DFD06-3317-40CA-B510-4969A0718C16";
paths = (
{
closed = 1;
nodes = (
"115 0 LINE",
"325 337 LINE",
"535 0 LINE",
"595 0 LINE",
"356 375 LINE",
"573 700 LINE",
"513 700 LINE",
"325 416 LINE",
"137 700 LINE",
"77 700 LINE",
"294 375 LINE",
"55 0 LINE"
);
}
);
width = 650;
}
);
note = X;
unicode = 0058;
},
{
color = 6;
glyphname = Y;
lastChange = "2018-04-09 08:27:44 +0000";
layers = (
{
anchors = (
{
name = bottom;
position = "{308, 0}";
},
{
name = top;
position = "{308, 700}";
},
{
name = topleft;
position = "{20, 700}";
}
);
layerId = "0B1DFD06-3317-40CA-B510-4969A0718C16";
paths = (
{
closed = 1;
nodes = (
"333 0 LINE",
"333 273 LINE",
"561 700 LINE",
"502 700 LINE",
"308 323 LINE",
"114 700 LINE",
"55 700 LINE",
"283 273 LINE",
"283 0 LINE"
);
}
);
width = 616;
}
);
note = Y;
unicode = 0059;
},
{
color = 6;
glyphname = Z;
lastChange = "2018-03-24 02:20:19 +0000";
layers = (
{
anchors = (
{
name = bottom;
position = "{311, 0}";
},
{
name = top;
position = "{311, 700}";
}
);
layerId = "0B1DFD06-3317-40CA-B510-4969A0718C16";
paths = (
{
closed = 1;
nodes = (
"510 700 LINE",
"83 700 LINE",
"83 654 LINE",
"489 654 LINE",
"69 41 LINE SMOOTH",
"61 30 OFFCURVE",
"50 27 OFFCURVE",
"57 13 CURVE SMOOTH",
"73 -13 OFFCURVE",
"87 -16 OFFCURVE",
"94 -13 CURVE",
"103 -10 OFFCURVE",
"110 0 OFFCURVE",
"119 0 CURVE SMOOTH",
"567 0 LINE",
"567 46 LINE",
"132 46 LINE",
"555 663 LINE SMOOTH",
"568 683 OFFCURVE",
"573 694 OFFCURVE",
"555 710 CURVE SMOOTH",
"542 722 OFFCURVE",
"527 719 OFFCURVE",
"520 711 CURVE SMOOTH"
);
}
);
width = 622;
}
);
note = Z;
unicode = 005A;
},
{
color = 6;
glyphname = a;
lastChange = "2018-03-28 03:53:24 +0000";
layers = (
{
anchors = (
{
name = bottom;
position = "{281, 0}";
},
{
name = ogonek;
position = "{471, 10}";
},
{
name = top;
position = "{281, 470}";
}
);
layerId = "0B1DFD06-3317-40CA-B510-4969A0718C16";
paths = (
{
closed = 1;
nodes = (
"484 485 LINE",
"432 485 LINE",
"432 402 LINE",
"400 457 OFFCURVE",
"350 495 OFFCURVE",
"266 495 CURVE SMOOTH",
"123 495 OFFCURVE",
"55 373 OFFCURVE",
"55 241 CURVE SMOOTH",
"55 110 OFFCURVE",
"123 -10 OFFCURVE",
"266 -10 CURVE SMOOTH",
"341 -10 OFFCURVE",
"396 25 OFFCURVE",
"435 81 CURVE",
"438 80 LINE",
"441 31 OFFCURVE",
"453 3 OFFCURVE",
"462 -10 CURVE",
"506 9 LINE",
"493 30 OFFCURVE",
"484 63 OFFCURVE",
"484 118 CURVE SMOOTH"
);
},
{
closed = 1;
nodes = (
"381 448 OFFCURVE",
"434 348 OFFCURVE",
"434 271 CURVE SMOOTH",
"434 213 LINE SMOOTH",
"434 118 OFFCURVE",
"375 37 OFFCURVE",
"266 37 CURVE SMOOTH",
"161 37 OFFCURVE",
"109 128 OFFCURVE",
"109 241 CURVE SMOOTH",
"109 353 OFFCURVE",
"161 448 OFFCURVE",
"266 448 CURVE SMOOTH"
);
}
);
width = 561;
}
);
note = a;
unicode = 0061;
},
{
color = 6;
glyphname = b;
lastChange = "2018-03-24 02:21:21 +0000";
layers = (
{
anchors = (
{
name = bottom;
position = "{282, 0}";
},
{
name = top;
position = "{282, 750}";
}
);
layerId = "0B1DFD06-3317-40CA-B510-4969A0718C16";
paths = (
{
closed = 1;
nodes = (
"163 30 OFFCURVE",
"221 -10 OFFCURVE",
"298 -10 CURVE SMOOTH",
"441 -10 OFFCURVE",
"509 110 OFFCURVE",
"509 241 CURVE SMOOTH",
"509 381 OFFCURVE",
"451 495 OFFCURVE",
"298 495 CURVE SMOOTH",
"221 495 OFFCURVE",
"162 453 OFFCURVE",
"130 402 CURVE",
"130 734 LINE",
"78 734 LINE",
"78 120 LINE SMOOTH",
"78 55 OFFCURVE",
"67 29 OFFCURVE",
"55 8 CURVE",
"102 -11 LINE",
"114 0 OFFCURVE",
"129 38 OFFCURVE",
"129 83 CURVE"
);
},
{
closed = 1;
nodes = (
"455 147 OFFCURVE",
"413 37 OFFCURVE",
"298 37 CURVE SMOOTH",
"194 37 OFFCURVE",
"130 126 OFFCURVE",
"130 213 CURVE SMOOTH",
"130 271 LINE SMOOTH",
"130 356 OFFCURVE",
"194 448 OFFCURVE",
"298 448 CURVE SMOOTH",
"423 448 OFFCURVE",
"455 343 OFFCURVE",
"455 241 CURVE SMOOTH"
);
}
);
width = 564;
}
);
note = b;
unicode = 0062;
},
{
color = 6;
glyphname = c;
lastChange = "2018-03-25 03:57:31 +0000";
layers = (
{
anchors = (
{
name = bottom;
position = "{285, 0}";
},
{
name = top;
position = "{285, 470}";
}
);
layerId = "0B1DFD06-3317-40CA-B510-4969A0718C16";
paths = (
{
closed = 1;
nodes = (
"349 -10 OFFCURVE",
"415 11 OFFCURVE",
"452 48 CURVE",
"418 83 LINE",
"391 52 OFFCURVE",
"336 37 OFFCURVE",
"296 37 CURVE SMOOTH",
"175 37 OFFCURVE",
"109 119 OFFCURVE",
"109 242 CURVE SMOOTH",
"109 372 OFFCURVE",
"176 448 OFFCURVE",
"286 448 CURVE SMOOTH",
"341 448 OFFCURVE",
"394 425 OFFCURVE",
"416 400 CURVE",
"439 442 LINE",
"402 477 OFFCURVE",
"337 495 OFFCURVE",
"285 495 CURVE SMOOTH",
"148 495 OFFCURVE",
"55 395 OFFCURVE",
"55 242 CURVE SMOOTH",
"55 87 OFFCURVE",
"146 -10 OFFCURVE",
"292 -10 CURVE SMOOTH"
);
}
);
width = 507;
}
);
note = c;
unicode = 0063;
},
{
color = 6;
glyphname = d;
lastChange = "2018-03-24 02:21:21 +0000";
layers = (
{
anchors = (
{
name = bottom;
position = "{282, 0}";
},
{
name = center;
position = "{282, 235}";
},
{
name = top;
position = "{282, 750}";
},
{
name = topright;
position = "{544, 470}";
}
);
layerId = "0B1DFD06-3317-40CA-B510-4969A0718C16";
paths = (
{
closed = 1;
nodes = (
"435 38 OFFCURVE",
"450 0 OFFCURVE",
"462 -11 CURVE",
"509 8 LINE",
"497 29 OFFCURVE",
"486 55 OFFCURVE",
"486 120 CURVE SMOOTH",
"486 734 LINE",
"434 734 LINE",
"434 402 LINE",
"402 453 OFFCURVE",
"347 495 OFFCURVE",
"270 495 CURVE SMOOTH",
"117 495 OFFCURVE",
"55 377 OFFCURVE",
"55 237 CURVE SMOOTH",
"55 98 OFFCURVE",
"123 -10 OFFCURVE",
"266 -10 CURVE SMOOTH",
"343 -10 OFFCURVE",
"401 30 OFFCURVE",
"435 83 CURVE"
);
},
{
closed = 1;
nodes = (
"109 339 OFFCURVE",
"145 448 OFFCURVE",
"270 448 CURVE SMOOTH",
"374 448 OFFCURVE",
"434 356 OFFCURVE",
"434 271 CURVE SMOOTH",
"434 213 LINE SMOOTH",
"434 126 OFFCURVE",
"370 37 OFFCURVE",
"266 37 CURVE SMOOTH",
"151 37 OFFCURVE",
"109 135 OFFCURVE",
"109 237 CURVE SMOOTH"
);
}
);
width = 564;
}
);
note = d;
unicode = 0064;
},
{
color = 6;
glyphname = e;
lastChange = "2018-04-09 08:32:10 +0000";
layers = (
{
anchors = (
{
name = bottom;
position = "{269, 0}";
},
{
name = ogonek;
position = "{290, 10}";
},
{
name = top;
position = "{269, 470}";
}
);
layerId = "0B1DFD06-3317-40CA-B510-4969A0718C16";
paths = (
{
closed = 1;
nodes = (
"346 -10 OFFCURVE",
"410 12 OFFCURVE",
"452 50 CURVE",
"423 86 LINE",
"387 55 OFFCURVE",
"334 37 OFFCURVE",
"280 37 CURVE SMOOTH",
"167 37 OFFCURVE",
"110 112 OFFCURVE",
"110 218 CURVE",
"442 218 LINE SMOOTH",
"472 218 OFFCURVE",
"483 230 OFFCURVE",
"483 256 CURVE SMOOTH",
"483 335 OFFCURVE",
"448 495 OFFCURVE",
"269 495 CURVE SMOOTH",
"105 495 OFFCURVE",
"55 363 OFFCURVE",
"55 239 CURVE SMOOTH",
"55 94 OFFCURVE",
"136 -10 OFFCURVE",
"280 -10 CURVE SMOOTH"
);
},
{
closed = 1;
nodes = (
"109 341 OFFCURVE",
"148 448 OFFCURVE",
"269 448 CURVE SMOOTH",
"384 448 OFFCURVE",
"431 357 OFFCURVE",
"431 264 CURVE",
"109 264 LINE"
);
}
);
width = 538;
}
);
note = e;
unicode = 0065;
},
{
color = 6;
glyphname = f;
lastChange = "2018-04-05 04:41:58 +0000";
layers = (
{
anchors = (
{
name = bottom;
position = "{176, 0}";
},
{
name = top;
position = "{176, 750}";
}
);
layerId = "0B1DFD06-3317-40CA-B510-4969A0718C16";
paths = (
{
closed = 1;
nodes = (
"125 0 LINE",
"177 0 LINE",
"177 439 LINE",
"305 439 LINE",
"317 485 LINE",
"177 485 LINE",
"177 603 LINE SMOOTH",
"177 668 OFFCURVE",
"212 689 OFFCURVE",
"261 689 CURVE SMOOTH",
"279 689 OFFCURVE",
"303 686 OFFCURVE",
"323 678 CURVE",
"334 722 LINE",
"310 731 OFFCURVE",
"279 736 OFFCURVE",
"256 736 CURVE SMOOTH",
"192 736 OFFCURVE",
"125 696 OFFCURVE",
"125 603 CURVE SMOOTH",
"125 485 LINE",
"57 485 LINE",
"45 439 LINE",
"125 439 LINE"
);
}
);
width = 369;
}
);
note = f;
unicode = 0066;
},
{
color = 6;
glyphname = g;
lastChange = "2018-04-10 08:09:29 +0000";
layers = (
{
anchors = (
{
name = bottom;
position = "{280, -250}";
},
{
name = top;
position = "{280, 470}";
}
);
layerId = "0B1DFD06-3317-40CA-B510-4969A0718C16";
paths = (
{
closed = 1;
nodes = (
"385 -218 OFFCURVE",
"482 -140 OFFCURVE",
"482 15 CURVE SMOOTH",
"482 365 LINE SMOOTH",
"482 430 OFFCURVE",
"493 456 OFFCURVE",
"505 477 CURVE",
"458 496 LINE",
"446 485 OFFCURVE",
"431 447 OFFCURVE",
"431 402 CURVE",
"397 455 OFFCURVE",
"348 495 OFFCURVE",
"264 495 CURVE SMOOTH",
"121 495 OFFCURVE",
"55 387 OFFCURVE",
"55 256 CURVE SMOOTH",
"55 116 OFFCURVE",
"111 0 OFFCURVE",
"264 0 CURVE SMOOTH",
"341 0 OFFCURVE",
"396 38 OFFCURVE",
"430 93 CURVE",
"430 28 LINE SMOOTH",
"430 -108 OFFCURVE",
"379 -171 OFFCURVE",
"252 -171 CURVE SMOOTH",
"205 -171 OFFCURVE",
"158 -158 OFFCURVE",
"133 -146 CURVE",
"115 -191 LINE",
"147 -205 OFFCURVE",
"202 -218 OFFCURVE",
"252 -218 CURVE SMOOTH"
);
},
{
closed = 1;
nodes = (
"139 47 OFFCURVE",
"109 154 OFFCURVE",
"109 256 CURVE SMOOTH",
"109 350 OFFCURVE",
"149 448 OFFCURVE",
"264 448 CURVE SMOOTH",
"368 448 OFFCURVE",
"430 359 OFFCURVE",
"430 272 CURVE SMOOTH",
"430 224 LINE SMOOTH",
"430 139 OFFCURVE",
"368 47 OFFCURVE",
"264 47 CURVE SMOOTH"
);
}
);
width = 560;
}
);
note = g;
unicode = 0067;
},
{
color = 6;
glyphname = h;
lastChange = "2018-03-27 02:06:02 +0000";
layers = (
{
anchors = (
{
name = bottom;
position = "{267, 0}";
},
{
name = center;
position = "{267, 375}";
},
{
name = top;
position = "{225, 750}";
}
);
layerId = "0B1DFD06-3317-40CA-B510-4969A0718C16";
paths = (
{
closed = 1;
nodes = (
"407 92 LINE SMOOTH",
"407 46 OFFCURVE",
"419 14 OFFCURVE",
"431 -10 CURVE",
"478 9 LINE",
"468 28 OFFCURVE",
"459 60 OFFCURVE",
"459 92 CURVE SMOOTH",
"459 306 LINE SMOOTH",
"459 428 OFFCURVE",
"402 495 OFFCURVE",
"293 495 CURVE SMOOTH",
"221 495 OFFCURVE",
"162 461 OFFCURVE",
"132 405 CURVE",
"132 734 LINE",
"80 734 LINE",
"80 0 LINE",
"132 0 LINE",
"132 273 LINE SMOOTH",
"132 361 OFFCURVE",
"192 448 OFFCURVE",
"283 448 CURVE SMOOTH",
"370 448 OFFCURVE",
"407 401 OFFCURVE",
"407 307 CURVE SMOOTH"
);
}
);
width = 533;
}
);
note = h;
unicode = 0068;
},
{
color = 6;
glyphname = i;
lastChange = "2018-03-24 02:21:21 +0000";
layers = (
{
anchors = (
{
name = bottom;
position = "{123, 0}";
}
);
guideLines = (
{
position = "{-119, 735}";
}
);
layerId = "0B1DFD06-3317-40CA-B510-4969A0718C16";
paths = (
{
closed = 1;
nodes = (
"96 0 LINE",
"148 0 LINE",
"148 485 LINE",
"96 485 LINE"
);
},
{
closed = 1;
nodes = (
"100 649 OFFCURVE",
"80 670 OFFCURVE",
"80 692 CURVE SMOOTH",
"80 715 OFFCURVE",
"100 735 OFFCURVE",
"123 735 CURVE SMOOTH",
"146 735 OFFCURVE",
"166 715 OFFCURVE",
"166 692 CURVE SMOOTH",
"166 670 OFFCURVE",
"146 649 OFFCURVE",
"123 649 CURVE SMOOTH"
);
}
);
width = 246;
}
);
note = i;
unicode = 0069;
},
{
color = 6;
glyphname = j;
lastChange = "2018-04-09 08:27:03 +0000";
layers = (
{
layerId = "0B1DFD06-3317-40CA-B510-4969A0718C16";
paths = (
{
closed = 1;
nodes = (
"260 -219 OFFCURVE",
"313 -167 OFFCURVE",
"313 -40 CURVE SMOOTH",
"313 485 LINE",
"261 485 LINE",
"261 -40 LINE SMOOTH",
"261 -139 OFFCURVE",
"234 -174 OFFCURVE",
"163 -174 CURVE",
"124 -174 OFFCURVE",
"91 -161 OFFCURVE",
"68 -145 CURVE",
"45 -186 LINE",
"76 -205 OFFCURVE",
"117 -219 OFFCURVE",
"163 -219 CURVE SMOOTH"
);
},
{
closed = 1;
nodes = (
"311 649 OFFCURVE",
"331 670 OFFCURVE",
"331 692 CURVE SMOOTH",
"331 715 OFFCURVE",
"311 735 OFFCURVE",
"288 735 CURVE SMOOTH",
"265 735 OFFCURVE",
"245 715 OFFCURVE",
"245 692 CURVE SMOOTH",
"245 670 OFFCURVE",
"265 649 OFFCURVE",
"288 649 CURVE SMOOTH"
);
}
);
width = 411;
}
);
note = j;
unicode = 006A;
},
{
color = 6;
glyphname = k;
lastChange = "2018-04-09 08:43:38 +0000";
layers = (
{
anchors = (
{
name = bottom;
position = "{254, 0}";
},
{
name = top;
position = "{254, 750}";
}
);
layerId = "0B1DFD06-3317-40CA-B510-4969A0718C16";
paths = (
{
closed = 1;
nodes = (
"171 268 LINE",
"416 485 LINE",
"346 485 LINE",
"132 296 LINE",
"132 734 LINE",
"80 734 LINE",
"80 0 LINE",
"132 0 LINE",
"132 240 LINE",
"386 -2 LINE",
"453 0 LINE"
);
}
);
width = 508;
}
);
note = k;
unicode = 006B;
},
{
color = 6;
glyphname = l;
lastChange = "2018-03-24 02:21:21 +0000";
layers = (
{
anchors = (
{
name = bottom;
position = "{106, 0}";
},
{
name = center;
position = "{106, 375}";
},
{
name = top;
position = "{106, 750}";
},
{
name = topright;
position = "{192, 750}";
}
);
layerId = "0B1DFD06-3317-40CA-B510-4969A0718C16";
paths = (
{
closed = 1;
nodes = (
"80 0 LINE",
"132 0 LINE",
"132 734 LINE",
"80 734 LINE"
);
}
);
width = 212;
}
);
note = l;
unicode = 006C;
},
{
color = 6;
glyphname = m;
lastChange = "2018-03-24 02:21:21 +0000";
layers = (
{
anchors = (
{
name = bottom;
position = "{399, 0}";
},
{
name = top;
position = "{399, 470}";
}
);
layerId = "0B1DFD06-3317-40CA-B510-4969A0718C16";
paths = (
{
closed = 1;
nodes = (
"667 46 OFFCURVE",
"679 14 OFFCURVE",
"691 -10 CURVE",
"738 9 LINE",
"728 28 OFFCURVE",
"719 60 OFFCURVE",
"719 92 CURVE SMOOTH",
"719 314 LINE SMOOTH",
"719 421 OFFCURVE",
"675 495 OFFCURVE",
"553 495 CURVE SMOOTH",
"484 495 OFFCURVE",
"430 454 OFFCURVE",
"406 392 CURVE",
"385 457 OFFCURVE",
"340 495 OFFCURVE",
"272 495 CURVE SMOOTH",
"213 495 OFFCURVE",
"158 462 OFFCURVE",
"131 408 CURVE",
"128 462 OFFCURVE",
"112 485 OFFCURVE",
"106 497 CURVE",
"55 478 LINE",
"68 457 OFFCURVE",
"77 428 OFFCURVE",
"77 373 CURVE SMOOTH",
"77 0 LINE",
"129 0 LINE",
"129 274 LINE SMOOTH",
"129 363 OFFCURVE",
"178 448 OFFCURVE",
"267 448 CURVE SMOOTH",
"338 448 OFFCURVE",
"377 387 OFFCURVE",
"377 309 CURVE SMOOTH",
"377 0 LINE",
"428 0 LINE",
"428 298 LINE SMOOTH",
"428 377 OFFCURVE",
"465 448 OFFCURVE",
"553 448 CURVE SMOOTH",
"637 448 OFFCURVE",
"667 399 OFFCURVE",
"667 309 CURVE SMOOTH",
"667 92 LINE SMOOTH"
);
}
);
width = 797;
}
);
note = m;
unicode = 006D;
},
{
color = 6;
glyphname = n;
lastChange = "2018-03-24 02:21:21 +0000";
layers = (
{
anchors = (
{
name = bottom;
position = "{265, 0}";
},
{
name = top;
position = "{265, 470}";
}
);
layerId = "0B1DFD06-3317-40CA-B510-4969A0718C16";
paths = (
{
closed = 1;
nodes = (
"77 0 LINE",
"129 0 LINE",
"129 273 LINE SMOOTH",
"129 361 OFFCURVE",
"189 448 OFFCURVE",
"282 448 CURVE SMOOTH",
"371 448 OFFCURVE",
"404 401 OFFCURVE",
"404 307 CURVE SMOOTH",
"404 92 LINE SMOOTH",
"404 46 OFFCURVE",
"416 14 OFFCURVE",
"428 -10 CURVE",
"475 9 LINE",
"465 28 OFFCURVE",
"456 60 OFFCURVE",
"456 92 CURVE SMOOTH",
"457 306 LINE SMOOTH",
"458 428 OFFCURVE",
"399 495 OFFCURVE",
"290 495 CURVE SMOOTH",
"223 495 OFFCURVE",
"162 462 OFFCURVE",
"127 402 CURVE",
"122 446 OFFCURVE",
"111 479 OFFCURVE",
"102 495 CURVE",
"55 476 LINE",
"69 455 OFFCURVE",
"77 423 OFFCURVE",
"77 372 CURVE SMOOTH"
);
}
);
width = 530;
}
);
note = n;
unicode = 006E;
},
{
color = 6;
glyphname = o;
lastChange = "2018-04-09 08:27:08 +0000";
layers = (
{
anchors = (
{
name = bottom;
position = "{271, 0}";
},
{
name = center;
position = "{271, 235}";
},
{
name = ogonek;
position = "{488, 10}";
},
{
name = top;
position = "{271, 470}";
},
{
name = topright;
position = "{415, 370}";
}
);
layerId = "0B1DFD06-3317-40CA-B510-4969A0718C16";
paths = (
{
closed = 1;
nodes = (
"423 -9 OFFCURVE",
"487 111 OFFCURVE",
"487 243 CURVE SMOOTH",
"487 375 OFFCURVE",
"423 495 OFFCURVE",
"271 495 CURVE SMOOTH",
"119 495 OFFCURVE",
"55 375 OFFCURVE",
"55 243 CURVE SMOOTH",
"55 111 OFFCURVE",
"119 -9 OFFCURVE",
"271 -9 CURVE SMOOTH"
);
},
{
closed = 1;
nodes = (
"163 38 OFFCURVE",
"109 125 OFFCURVE",
"109 243 CURVE SMOOTH",
"109 361 OFFCURVE",
"163 448 OFFCURVE",
"271 448 CURVE SMOOTH",
"379 448 OFFCURVE",
"433 361 OFFCURVE",
"433 243 CURVE SMOOTH",
"433 125 OFFCURVE",
"379 38 OFFCURVE",
"271 38 CURVE SMOOTH"
);
}
);
width = 542;
}
);
note = o;
unicode = 006F;
},
{
color = 6;
glyphname = p;
lastChange = "2018-04-09 08:27:10 +0000";
layers = (
{
anchors = (
{
name = bottom;
position = "{282, 0}";
},
{
name = top;
position = "{282, 470}";
}
);
layerId = "0B1DFD06-3317-40CA-B510-4969A0718C16";
paths = (
{
closed = 1;
nodes = (
"130 -219 LINE",
"130 83 LINE",
"164 28 OFFCURVE",
"221 -10 OFFCURVE",
"294 -10 CURVE SMOOTH",
"447 -10 OFFCURVE",
"509 104 OFFCURVE",
"509 244 CURVE SMOOTH",
"509 381 OFFCURVE",
"441 495 OFFCURVE",
"298 495 CURVE SMOOTH",
"221 495 OFFCURVE",
"165 455 OFFCURVE",
"131 402 CURVE",
"131 447 OFFCURVE",
"116 485 OFFCURVE",
"104 496 CURVE",
"55 477 LINE",
"70 454 OFFCURVE",
"78 430 OFFCURVE",
"78 365 CURVE SMOOTH",
"78 -219 LINE"
);
},
{
closed = 1;
nodes = (
"190 37 OFFCURVE",
"130 129 OFFCURVE",
"130 214 CURVE SMOOTH",
"130 272 LINE SMOOTH",
"130 359 OFFCURVE",
"194 448 OFFCURVE",
"298 448 CURVE SMOOTH",
"413 448 OFFCURVE",
"455 344 OFFCURVE",
"455 244 CURVE SMOOTH",
"455 142 OFFCURVE",
"419 37 OFFCURVE",
"294 37 CURVE SMOOTH"
);
}
);
width = 564;
}
);
note = p;
unicode = 0070;
},
{
color = 6;
glyphname = q;
lastChange = "2018-04-09 08:27:12 +0000";
layers = (
{
anchors = (
{
name = bottom;
position = "{282, 0}";
},
{
name = top;
position = "{282, 470}";
}
);
layerId = "0B1DFD06-3317-40CA-B510-4969A0718C16";
paths = (
{
closed = 1;
nodes = (
"505 -213 LINE",
"491 -190 OFFCURVE",
"486 -164 OFFCURVE",
"486 -130 CURVE SMOOTH",
"486 365 LINE SMOOTH",
"486 430 OFFCURVE",
"494 454 OFFCURVE",
"509 477 CURVE",
"460 496 LINE",
"448 485 OFFCURVE",
"433 447 OFFCURVE",
"433 402 CURVE",
"399 455 OFFCURVE",
"343 495 OFFCURVE",
"266 495 CURVE SMOOTH",
"123 495 OFFCURVE",
"55 381 OFFCURVE",
"55 244 CURVE SMOOTH",
"55 104 OFFCURVE",
"117 -10 OFFCURVE",
"270 -10 CURVE SMOOTH",
"343 -10 OFFCURVE",
"400 28 OFFCURVE",
"434 83 CURVE",
"434 -130 LINE SMOOTH",
"434 -173 OFFCURVE",
"441 -205 OFFCURVE",
"458 -232 CURVE"
);
},
{
closed = 1;
nodes = (
"145 37 OFFCURVE",
"109 142 OFFCURVE",
"109 244 CURVE SMOOTH",
"109 344 OFFCURVE",
"151 448 OFFCURVE",
"266 448 CURVE SMOOTH",
"370 448 OFFCURVE",
"434 359 OFFCURVE",
"434 272 CURVE SMOOTH",
"434 214 LINE SMOOTH",
"434 129 OFFCURVE",
"374 37 OFFCURVE",
"270 37 CURVE SMOOTH"
);
}
);
width = 564;
}
);
note = q;
unicode = 0071;
},
{
color = 6;
glyphname = r;
lastChange = "2018-03-27 04:04:56 +0000";
layers = (
{
anchors = (
{
name = bottom;
position = "{104, 0}";
},
{
name = top;
position = "{187, 470}";
}
);
layerId = "0B1DFD06-3317-40CA-B510-4969A0718C16";
paths = (
{
closed = 1;
nodes = (
"283 448 OFFCURVE",
"302 443 OFFCURVE",
"315 436 CURVE",
"338 477 LINE",
"312 489 OFFCURVE",
"294 495 OFFCURVE",
"266 495 CURVE SMOOTH",
"199 495 OFFCURVE",
"157 462 OFFCURVE",
"127 402 CURVE",
"122 446 OFFCURVE",
"111 479 OFFCURVE",
"102 495 CURVE",
"55 476 LINE",
"69 455 OFFCURVE",
"77 423 OFFCURVE",
"77 372 CURVE SMOOTH",
"77 0 LINE",
"129 0 LINE",
"129 273 LINE SMOOTH",
"129 361 OFFCURVE",
"174 448 OFFCURVE",
"261 448 CURVE"
);
}
);
width = 373;
}
);
note = r;
unicode = 0072;
},
{
color = 6;
glyphname = s;
lastChange = "2018-03-24 02:21:21 +0000";
layers = (
{
anchors = (
{
name = bottom;
position = "{239, 0}";
},
{
name = top;
position = "{239, 470}";
}
);
layerId = "0B1DFD06-3317-40CA-B510-4969A0718C16";
paths = (
{
closed = 1;
nodes = (
"422 191 OFFCURVE",
"375 214 OFFCURVE",
"258 262 CURVE SMOOTH",
"176 296 OFFCURVE",
"122 309 OFFCURVE",
"122 370 CURVE SMOOTH",
"122 417 OFFCURVE",
"160 449 OFFCURVE",
"236 449 CURVE SMOOTH",
"289 449 OFFCURVE",
"329 434 OFFCURVE",
"366 406 CURVE",
"389 449 LINE",
"360 470 OFFCURVE",
"307 495 OFFCURVE",
"237 495 CURVE SMOOTH",
"126 495 OFFCURVE",
"69 442 OFFCURVE",
"69 370 CURVE SMOOTH",
"69 290 OFFCURVE",
"126 259 OFFCURVE",
"234 220 CURVE SMOOTH",
"347 179 OFFCURVE",
"369 162 OFFCURVE",
"369 111 CURVE SMOOTH",
"369 59 OFFCURVE",
"325 36 OFFCURVE",
"250 36 CURVE SMOOTH",
"190 36 OFFCURVE",
"126 58 OFFCURVE",
"90 96 CURVE",
"55 58 LINE",
"96 17 OFFCURVE",
"159 -10 OFFCURVE",
"249 -10 CURVE SMOOTH",
"359 -10 OFFCURVE",
"422 34 OFFCURVE",
"422 112 CURVE SMOOTH"
);
}
);
width = 477;
}
);
note = s;
unicode = 0073;
},
{
color = 6;
glyphname = t;
lastChange = "2018-03-27 08:16:50 +0000";
layers = (
{
anchors = (
{
name = bottom;
position = "{221, 0}";
},
{
name = center;
position = "{177, 235}";
},
{
name = top;
position = "{177, 603}";
},
{
name = topright;
position = "{333, 470}";
}
);
layerId = "0B1DFD06-3317-40CA-B510-4969A0718C16";
paths = (
{
closed = 1;
nodes = (
"196 36 OFFCURVE",
"179 56 OFFCURVE",
"179 113 CURVE SMOOTH",
"179 439 LINE",
"288 439 LINE",
"299 485 LINE",
"178 485 LINE",
"178 645 LINE",
"128 622 LINE",
"128 485 LINE",
"57 485 LINE",
"45 439 LINE",
"127 439 LINE",
"127 112 LINE SMOOTH",
"127 37 OFFCURVE",
"153 -9 OFFCURVE",
"232 -9 CURVE SMOOTH",
"261 -9 OFFCURVE",
"290 -3 OFFCURVE",
"308 5 CURVE",
"294 46 LINE",
"280 39 OFFCURVE",
"262 36 OFFCURVE",
"237 36 CURVE SMOOTH"
);
}
);
width = 353;
}
);
note = t;
unicode = 0074;
},
{
color = 6;
glyphname = u;
lastChange = "2018-03-28 03:54:13 +0000";
layers = (
{
anchors = (
{
name = bottom;
position = "{265, 0}";
},
{
name = ogonek;
position = "{438, 10}";
},
{
name = top;
position = "{265, 470}";
},
{
name = topright;
position = "{451, 369}";
}
);
layerId = "0B1DFD06-3317-40CA-B510-4969A0718C16";
paths = (
{
closed = 1;
nodes = (
"453 485 LINE",
"401 485 LINE",
"401 212 LINE SMOOTH",
"401 124 OFFCURVE",
"348 37 OFFCURVE",
"255 37 CURVE SMOOTH",
"166 37 OFFCURVE",
"128 84 OFFCURVE",
"128 178 CURVE SMOOTH",
"128 485 LINE",
"76 485 LINE",
"75 179 LINE SMOOTH",
"75 57 OFFCURVE",
"138 -10 OFFCURVE",
"247 -10 CURVE SMOOTH",
"314 -10 OFFCURVE",
"368 23 OFFCURVE",
"403 83 CURVE",
"408 39 OFFCURVE",
"419 6 OFFCURVE",
"428 -10 CURVE",
"475 9 LINE",
"461 30 OFFCURVE",
"453 62 OFFCURVE",
"453 113 CURVE SMOOTH"
);
}
);
width = 530;
}
);
note = u;
unicode = 0075;
},
{
color = 6;
glyphname = v;
lastChange = "2018-03-24 02:21:21 +0000";
layers = (
{
anchors = (
{
name = bottom;
position = "{264, 0}";
},
{
name = top;
position = "{264, 470}";
}
);
layerId = "0B1DFD06-3317-40CA-B510-4969A0718C16";
paths = (
{
closed = 1;
nodes = (
"264 75 LINE",
"110 485 LINE",
"55 485 LINE",
"233 28 LINE",
"231 21 LINE SMOOTH",
"226 4 OFFCURVE",
"238 -10 OFFCURVE",
"260 -10 CURVE SMOOTH",
"276 -10 OFFCURVE",
"282 -3 OFFCURVE",
"287 9 CURVE SMOOTH",
"472 485 LINE",
"417 485 LINE"
);
}
);
width = 527;
}
);
note = v;
unicode = 0076;
},
{
color = 6;
glyphname = w;
lastChange = "2018-03-24 02:21:21 +0000";
layers = (
{
anchors = (
{
name = bottom;
position = "{356, 0}";
},
{
name = top;
position = "{356, 470}";
}
);
layerId = "0B1DFD06-3317-40CA-B510-4969A0718C16";
paths = (
{
closed = 1;
nodes = (
"476 -4 OFFCURVE",
"485 -10 OFFCURVE",
"504 -10 CURVE SMOOTH",
"523 -10 OFFCURVE",
"536 3 OFFCURVE",
"532 18 CURVE SMOOTH",
"529 30 LINE",
"657 485 LINE",
"601 485 LINE",
"497 74 LINE",
"387 437 LINE",
"391 456 LINE",
"404 479 OFFCURVE",
"348 498 OFFCURVE",
"338 476 CURVE",
"215 74 LINE",
"111 485 LINE",
"55 485 LINE",
"183 30 LINE",
"180 18 LINE SMOOTH",
"176 3 OFFCURVE",
"189 -10 OFFCURVE",
"208 -10 CURVE SMOOTH",
"227 -10 OFFCURVE",
"236 -4 OFFCURVE",
"241 12 CURVE SMOOTH",
"356 388 LINE",
"471 12 LINE SMOOTH"
);
}
);
width = 712;
}
);
note = w;
unicode = 0077;
},
{
color = 6;
glyphname = x;
lastChange = "2018-04-09 08:43:56 +0000";
layers = (
{
anchors = (
{
name = bottom;
position = "{246, 0}";
},
{
name = top;
position = "{246, 470}";
}
);
layerId = "0B1DFD06-3317-40CA-B510-4969A0718C16";
paths = (
{
closed = 1;
nodes = (
"376 0 LINE",
"437 0 LINE",
"276 251 LINE",
"437 485 LINE",
"378 485 LINE",
"246 288 LINE",
"114 485 LINE",
"55 485 LINE",
"216 251 LINE",
"55 0 LINE",
"116 0 LINE",
"246 213 LINE"
);
}
);
width = 492;
}
);
note = x;
unicode = 0078;
},
{
color = 6;
glyphname = y;
lastChange = "2018-04-09 08:43:59 +0000";
layers = (
{
anchors = (
{
name = bottom;
position = "{385, 0}";
},
{
name = top;
position = "{281, 470}";
}
);
layerId = "0B1DFD06-3317-40CA-B510-4969A0718C16";
paths = (
{
closed = 1;
nodes = (
"506 485 LINE",
"447 485 LINE",
"287 65 LINE",
"114 485 LINE",
"55 485 LINE",
"258 15 LINE",
"217 -124 OFFCURVE",
"193 -155 OFFCURVE",
"98 -185 CURVE",
"114 -232 LINE",
"211 -197 OFFCURVE",
"251 -156 OFFCURVE",
"286 -67 CURVE SMOOTH"
);
}
);
width = 561;
}
);
note = y;
unicode = 0079;
},
{
color = 6;
glyphname = z;
lastChange = "2018-04-05 04:45:02 +0000";
layers = (
{
anchors = (
{
name = bottom;
position = "{265, 0}";
},
{
name = top;
position = "{265, 470}";
}
);
layerId = "0B1DFD06-3317-40CA-B510-4969A0718C16";
paths = (
{
closed = 1;
nodes = (
"422 495 OFFCURVE",
"411 485 OFFCURVE",
"411 485 CURVE SMOOTH",
"84 485 LINE",
"84 439 LINE",
"396 439 LINE",
"92 66 LINE",
"86 58 OFFCURVE",
"80 51 OFFCURVE",
"71 43 CURVE SMOOTH",
"58 31 OFFCURVE",
"51 27 OFFCURVE",
"58 13 CURVE",
"74 -13 OFFCURVE",
"88 -16 OFFCURVE",
"95 -13 CURVE",
"104 -10 OFFCURVE",
"111 0 OFFCURVE",
"120 0 CURVE SMOOTH",
"468 0 LINE",
"468 46 LINE",
"138 46 LINE",
"463 448 LINE SMOOTH",
"475 462 OFFCURVE",
"482 469 OFFCURVE",
"465 490 CURVE SMOOTH",
"451 507 OFFCURVE",
"434 506 OFFCURVE",
"429 501 CURVE"
);
}
);
width = 530;
}
);
note = z;
unicode = 007A;
},
{
color = 6;
glyphname = AE;
lastChange = "2018-03-27 08:06:45 +0000";
layers = (
{
anchors = (
{
name = bottom;
position = "{380, 0}";
},
{
name = ogonek;
position = "{640, 10}";
},
{
name = top;
position = "{454, 700}";
},
{
name = topleft;
position = "{725, 700}";
}
);
layerId = "0B1DFD06-3317-40CA-B510-4969A0718C16";
paths = (
{
closed = 1;
nodes = (
"55 0 LINE",
"112 0 LINE",
"200 195 LINE",
"392 195 LINE",
"392 0 LINE",
"745 0 LINE",
"745 46 LINE",
"445 46 LINE",
"445 344 LINE",
"652 344 LINE",
"652 390 LINE",
"445 390 LINE",
"445 654 LINE",
"736 654 LINE",
"736 700 LINE",
"369 700 LINE"
);
},
{
closed = 1;
nodes = (
"392 625 LINE",
"392 241 LINE",
"220 241 LINE"
);
}
);
width = 800;
}
);
note = AE;
unicode = 00C6;
},
{
color = 6;
glyphname = Eth;
lastChange = "2018-03-27 08:08:00 +0000";
layers = (
{
layerId = "0B1DFD06-3317-40CA-B510-4969A0718C16";
paths = (
{
closed = 1;
nodes = (
"131 0 LINE",
"309 0 LINE SMOOTH",
"505 0 OFFCURVE",
"614 118 OFFCURVE",
"614 352 CURVE SMOOTH",
"614 582 OFFCURVE",
"493 700 OFFCURVE",
"304 700 CURVE SMOOTH",
"167 700 LINE",
"159 709 OFFCURVE",
"148 718 OFFCURVE",
"142 718 CURVE SMOOTH",
"122 718 OFFCURVE",
"109 696 OFFCURVE",
"106 687 CURVE SMOOTH",
"102 669 OFFCURVE",
"131 666 OFFCURVE",
"131 631 CURVE SMOOTH"
);
},
{
closed = 1;
nodes = (
"185 46 LINE",
"185 654 LINE",
"301 654 LINE SMOOTH",
"460 654 OFFCURVE",
"558 557 OFFCURVE",
"558 352 CURVE SMOOTH",
"558 159 OFFCURVE",
"484 46 OFFCURVE",
"309 46 CURVE SMOOTH"
);
},
{
closed = 1;
nodes = (
"55 326 LINE",
"351 326 LINE",
"351 372 LINE",
"55 372 LINE"
);
}
);
width = 669;
}
);
note = Eth;
unicode = 00D0;
},
{
color = 6;
glyphname = Dcroat;
lastChange = "2018-03-27 08:08:00 +0000";
layers = (
{
layerId = "0B1DFD06-3317-40CA-B510-4969A0718C16";
paths = (
{
closed = 1;
nodes = (
"131 0 LINE",
"309 0 LINE SMOOTH",
"505 0 OFFCURVE",
"614 118 OFFCURVE",
"614 352 CURVE SMOOTH",
"614 582 OFFCURVE",
"493 700 OFFCURVE",
"304 700 CURVE SMOOTH",
"167 700 LINE",
"159 709 OFFCURVE",
"148 718 OFFCURVE",
"142 718 CURVE SMOOTH",
"122 718 OFFCURVE",
"109 696 OFFCURVE",
"106 687 CURVE SMOOTH",
"102 669 OFFCURVE",
"131 666 OFFCURVE",
"131 631 CURVE SMOOTH"
);
},
{
closed = 1;
nodes = (
"185 46 LINE",
"185 654 LINE",
"301 654 LINE SMOOTH",
"460 654 OFFCURVE",
"558 557 OFFCURVE",
"558 352 CURVE SMOOTH",
"558 159 OFFCURVE",
"484 46 OFFCURVE",
"309 46 CURVE SMOOTH"
);
},
{
closed = 1;
nodes = (
"55 326 LINE",
"351 326 LINE",
"351 372 LINE",
"55 372 LINE"
);
}
);
width = 669;
}
);
note = Dcroat;
unicode = 0110;
},
{
color = 6;
glyphname = Eacute;
lastChange = "2018-03-24 02:25:34 +0000";
layers = (
{
background = {
paths = (
{
closed = 1;
nodes = (
"554 0 LINE",
"571 179 LINE",
"544 179 LINE",
"538 124 OFFCURVE",
"520 40 OFFCURVE",
"456 40 CURVE SMOOTH",
"201 40 LINE",
"201 659 LINE",
"441 659 LINE SMOOTH",
"516 659 OFFCURVE",
"525 567 OFFCURVE",
"528 527 CURVE",
"555 527 LINE",
"555 700 LINE",
"16 700 LINE",
"16 673 LINE",
"44 673 LINE SMOOTH",
"83 673 OFFCURVE",
"103 662 OFFCURVE",
"103 637 CURVE SMOOTH",
"103 62 LINE SMOOTH",
"103 37 OFFCURVE",
"83 26 OFFCURVE",
"44 26 CURVE SMOOTH",
"16 26 LINE",
"16 0 LINE"
);
},
{
closed = 1;
nodes = (
"455 251 LINE",
"455 485 LINE",
"431 485 LINE",
"427 436 OFFCURVE",
"424 388 OFFCURVE",
"379 388 CURVE SMOOTH",
"162 388 LINE",
"162 348 LINE",
"379 348 LINE SMOOTH",
"424 348 OFFCURVE",
"427 300 OFFCURVE",
"431 251 CURVE"
);
},
{
closed = 1;
nodes = (
"398 865 LINE SMOOTH",
"420 877 OFFCURVE",
"432 890 OFFCURVE",
"432 907 CURVE SMOOTH",
"432 922 OFFCURVE",
"420 937 OFFCURVE",
"398 937 CURVE SMOOTH",
"377 937 OFFCURVE",
"362 921 OFFCURVE",
"354 914 CURVE SMOOTH",
"239 807 LINE",
"256 782 LINE"
);
}
);
};
components = (
{
name = E;
},
{
alignment = 1;
name = acutecomb;
transform = "{1, 0, 0, 1, 296, 230}";
}
);
layerId = "0B1DFD06-3317-40CA-B510-4969A0718C16";
width = 509;
}
);
note = Eacute;
unicode = 00C9;
},
{
color = 6;
glyphname = Ebreve;
lastChange = "2018-03-27 02:03:07 +0000";
layers = (
{
background = {
paths = (
{
closed = 1;
nodes = (
"554 0 LINE",
"571 179 LINE",
"544 179 LINE",
"538 124 OFFCURVE",
"520 40 OFFCURVE",
"456 40 CURVE SMOOTH",
"201 40 LINE",
"201 659 LINE",
"441 659 LINE SMOOTH",
"516 659 OFFCURVE",
"525 567 OFFCURVE",
"528 527 CURVE",
"555 527 LINE",
"555 700 LINE",
"16 700 LINE",
"16 673 LINE",
"44 673 LINE SMOOTH",
"83 673 OFFCURVE",
"103 662 OFFCURVE",
"103 637 CURVE SMOOTH",
"103 62 LINE SMOOTH",
"103 37 OFFCURVE",
"83 26 OFFCURVE",
"44 26 CURVE SMOOTH",
"16 26 LINE",
"16 0 LINE"
);
},
{
closed = 1;
nodes = (
"455 251 LINE",
"455 485 LINE",
"431 485 LINE",
"427 436 OFFCURVE",
"424 388 OFFCURVE",
"379 388 CURVE SMOOTH",
"162 388 LINE",
"162 348 LINE",
"379 348 LINE SMOOTH",
"424 348 OFFCURVE",
"427 300 OFFCURVE",
"431 251 CURVE"
);
},
{
closed = 1;
nodes = (
"432 776 OFFCURVE",
"474 832 OFFCURVE",
"478 907 CURVE",
"445 907 LINE",
"439 848 OFFCURVE",
"397 822 OFFCURVE",
"333 822 CURVE SMOOTH",
"269 822 OFFCURVE",
"226 848 OFFCURVE",
"219 907 CURVE",
"186 907 LINE",
"190 829 OFFCURVE",
"232 776 OFFCURVE",
"333 776 CURVE SMOOTH"
);
}
);
};
components = (
{
name = E;
},
{
name = brevecomb;
transform = "{1, 0, 0, 1, 265, 230}";
}
);
layerId = "0B1DFD06-3317-40CA-B510-4969A0718C16";
width = 509;
}
);
note = Ebreve;
unicode = 0114;
},
{
color = 6;
glyphname = Ecaron;
lastChange = "2018-03-25 03:51:43 +0000";
layers = (
{
background = {
paths = (
{
closed = 1;
nodes = (
"554 0 LINE",
"571 179 LINE",
"544 179 LINE",
"538 124 OFFCURVE",
"520 40 OFFCURVE",
"456 40 CURVE SMOOTH",
"201 40 LINE",
"201 659 LINE",
"441 659 LINE SMOOTH",
"516 659 OFFCURVE",
"525 567 OFFCURVE",
"528 527 CURVE",
"555 527 LINE",
"555 700 LINE",
"16 700 LINE",
"16 673 LINE",
"44 673 LINE SMOOTH",
"83 673 OFFCURVE",
"103 662 OFFCURVE",
"103 637 CURVE SMOOTH",
"103 62 LINE SMOOTH",
"103 37 OFFCURVE",
"83 26 OFFCURVE",
"44 26 CURVE SMOOTH",
"16 26 LINE",
"16 0 LINE"
);
},
{
closed = 1;
nodes = (
"455 251 LINE",
"455 485 LINE",
"431 485 LINE",
"427 436 OFFCURVE",
"424 388 OFFCURVE",
"379 388 CURVE SMOOTH",
"162 388 LINE",
"162 348 LINE",
"379 348 LINE SMOOTH",
"424 348 OFFCURVE",
"427 300 OFFCURVE",
"431 251 CURVE"
);
},
{
closed = 1;
nodes = (
"357 782 LINE",
"481 911 LINE",
"462 932 LINE",
"354 847 LINE",
"346 840 OFFCURVE",
"337 836 OFFCURVE",
"331 836 CURVE SMOOTH",
"325 836 OFFCURVE",
"317 840 OFFCURVE",
"307 847 CURVE",
"199 932 LINE",
"180 911 LINE",
"304 782 LINE"
);
}
);
};
components = (
{
name = E;
},
{
name = caroncomb;
transform = "{1, 0, 0, 1, 266, 230}";
}
);
layerId = "0B1DFD06-3317-40CA-B510-4969A0718C16";
width = 509;
}
);
note = Ecaron;
unicode = 011A;
},
{
color = 6;
glyphname = Ecircumflex;
lastChange = "2018-03-25 03:52:04 +0000";
layers = (
{
background = {
paths = (
{
closed = 1;
nodes = (
"554 0 LINE",
"571 179 LINE",
"544 179 LINE",
"538 124 OFFCURVE",
"520 40 OFFCURVE",
"456 40 CURVE SMOOTH",
"201 40 LINE",
"201 659 LINE",
"441 659 LINE SMOOTH",
"516 659 OFFCURVE",
"525 567 OFFCURVE",
"528 527 CURVE",
"555 527 LINE",
"555 700 LINE",
"16 700 LINE",
"16 673 LINE",
"44 673 LINE SMOOTH",
"83 673 OFFCURVE",
"103 662 OFFCURVE",
"103 637 CURVE SMOOTH",
"103 62 LINE SMOOTH",
"103 37 OFFCURVE",
"83 26 OFFCURVE",
"44 26 CURVE SMOOTH",
"16 26 LINE",
"16 0 LINE"
);
},
{
closed = 1;
nodes = (
"455 251 LINE",
"455 485 LINE",
"431 485 LINE",
"427 436 OFFCURVE",
"424 388 OFFCURVE",
"379 388 CURVE SMOOTH",
"162 388 LINE",
"162 348 LINE",
"379 348 LINE SMOOTH",
"424 348 OFFCURVE",
"427 300 OFFCURVE",
"431 251 CURVE"
);
},
{
closed = 1;
nodes = (
"304 868 LINE SMOOTH",
"312 874 OFFCURVE",
"322 879 OFFCURVE",
"328 879 CURVE SMOOTH",
"334 879 OFFCURVE",
"342 874 OFFCURVE",
"351 868 CURVE",
"459 782 LINE",
"478 803 LINE",
"354 932 LINE",
"301 932 LINE",
"177 803 LINE",
"196 782 LINE"
);
}
);
};
components = (
{
name = E;
},
{
name = circumflexcomb;
transform = "{1, 0, 0, 1, 266, 230}";
}
);
layerId = "0B1DFD06-3317-40CA-B510-4969A0718C16";
width = 509;
}
);
note = Ecircumflex;
unicode = 00CA;
},
{
color = 6;
glyphname = Ecircumflexacute;
lastChange = "2018-03-27 03:41:41 +0000";
layers = (
{
background = {
paths = (
{
closed = 1;
nodes = (
"554 0 LINE",
"571 179 LINE",
"544 179 LINE",
"538 124 OFFCURVE",
"520 40 OFFCURVE",
"456 40 CURVE SMOOTH",
"201 40 LINE",
"201 659 LINE",
"441 659 LINE SMOOTH",
"516 659 OFFCURVE",
"525 567 OFFCURVE",
"528 527 CURVE",
"555 527 LINE",
"555 700 LINE",
"16 700 LINE",
"16 673 LINE",
"44 673 LINE SMOOTH",
"83 673 OFFCURVE",
"103 662 OFFCURVE",
"103 637 CURVE SMOOTH",
"103 62 LINE SMOOTH",
"103 37 OFFCURVE",
"83 26 OFFCURVE",
"44 26 CURVE SMOOTH",
"16 26 LINE",
"16 0 LINE"
);
},
{
closed = 1;
nodes = (
"455 251 LINE",
"455 485 LINE",
"431 485 LINE",
"427 436 OFFCURVE",
"424 388 OFFCURVE",
"379 388 CURVE SMOOTH",
"162 388 LINE",
"162 348 LINE",
"379 348 LINE SMOOTH",
"424 348 OFFCURVE",
"427 300 OFFCURVE",
"431 251 CURVE"
);
},
{
closed = 1;
nodes = (
"290 862 LINE SMOOTH",
"300 870 OFFCURVE",
"310 878 OFFCURVE",
"318 878 CURVE SMOOTH",
"324 878 OFFCURVE",
"332 873 OFFCURVE",
"341 867 CURVE",
"447 781 LINE",
"466 803 LINE",
"344 932 LINE",
"293 932 LINE",
"171 803 LINE",
"189 781 LINE"
);
},
{
closed = 1;
nodes = (
"555 960 LINE SMOOTH",
"578 972 OFFCURVE",
"591 988 OFFCURVE",
"591 1003 CURVE SMOOTH",
"591 1017 OFFCURVE",
"580 1034 OFFCURVE",
"557 1034 CURVE SMOOTH",
"538 1034 OFFCURVE",
"521 1018 OFFCURVE",
"511 1008 CURVE SMOOTH",
"415 915 LINE",
"433 893 LINE"
);
}
);
};
components = (
{
name = E;
},
{
name = circumflexacute;
transform = "{1, 0, 0, 1, 515, 230}";
}
);
layerId = "0B1DFD06-3317-40CA-B510-4969A0718C16";
width = 509;
}
);
note = Ecircumflexacute;
unicode = 1EBE;
},
{
color = 6;
glyphname = Ecircumflexdotbelow;
lastChange = "2018-03-27 04:00:33 +0000";
layers = (
{
background = {
paths = (
{
closed = 1;
nodes = (
"554 0 LINE",
"571 179 LINE",
"544 179 LINE",
"538 124 OFFCURVE",
"520 40 OFFCURVE",
"456 40 CURVE SMOOTH",
"201 40 LINE",
"201 659 LINE",
"441 659 LINE SMOOTH",
"516 659 OFFCURVE",
"525 567 OFFCURVE",
"528 527 CURVE",
"555 527 LINE",
"555 700 LINE",
"16 700 LINE",
"16 673 LINE",
"44 673 LINE SMOOTH",
"83 673 OFFCURVE",
"103 662 OFFCURVE",
"103 637 CURVE SMOOTH",
"103 62 LINE SMOOTH",
"103 37 OFFCURVE",
"83 26 OFFCURVE",
"44 26 CURVE SMOOTH",
"16 26 LINE",
"16 0 LINE"
);
},
{
closed = 1;
nodes = (
"350 -159 OFFCURVE",
"368 -140 OFFCURVE",
"368 -112 CURVE SMOOTH",
"368 -84 OFFCURVE",
"350 -64 OFFCURVE",
"322 -64 CURVE SMOOTH",
"294 -64 OFFCURVE",
"275 -84 OFFCURVE",
"275 -112 CURVE SMOOTH",
"275 -140 OFFCURVE",
"294 -159 OFFCURVE",
"322 -159 CURVE SMOOTH"
);
},
{
closed = 1;
nodes = (
"455 251 LINE",
"455 485 LINE",
"431 485 LINE",
"427 436 OFFCURVE",
"424 388 OFFCURVE",
"379 388 CURVE SMOOTH",
"162 388 LINE",
"162 348 LINE",
"379 348 LINE SMOOTH",
"424 348 OFFCURVE",
"427 300 OFFCURVE",
"431 251 CURVE"
);
},
{
closed = 1;
nodes = (
"294 868 LINE SMOOTH",
"302 874 OFFCURVE",
"312 879 OFFCURVE",
"318 879 CURVE SMOOTH",
"324 879 OFFCURVE",
"332 874 OFFCURVE",
"341 868 CURVE",
"449 782 LINE",
"468 803 LINE",
"344 932 LINE",
"291 932 LINE",
"167 803 LINE",
"186 782 LINE"
);
}
);
};
components = (
{
name = E;
},
{
name = dotbelowcomb;
transform = "{1, 0, 0, 1, 266, 0}";
},
{
name = circumflexcomb;
transform = "{1, 0, 0, 1, 266, 230}";
}
);
layerId = "0B1DFD06-3317-40CA-B510-4969A0718C16";
width = 509;
}
);
note = Ecircumflexdotbelow;
unicode = 1EC6;
},
{
color = 6;
glyphname = Ecircumflexgrave;
lastChange = "2018-03-27 03:41:38 +0000";
layers = (
{
background = {
paths = (
{
closed = 1;
nodes = (
"554 0 LINE",
"571 179 LINE",
"544 179 LINE",
"538 124 OFFCURVE",
"520 40 OFFCURVE",
"456 40 CURVE SMOOTH",
"201 40 LINE",
"201 659 LINE",
"441 659 LINE SMOOTH",
"516 659 OFFCURVE",
"525 567 OFFCURVE",
"528 527 CURVE",
"555 527 LINE",
"555 700 LINE",
"16 700 LINE",
"16 673 LINE",
"44 673 LINE SMOOTH",
"83 673 OFFCURVE",
"103 662 OFFCURVE",
"103 637 CURVE SMOOTH",
"103 62 LINE SMOOTH",
"103 37 OFFCURVE",
"83 26 OFFCURVE",
"44 26 CURVE SMOOTH",
"16 26 LINE",
"16 0 LINE"
);
},
{
closed = 1;
nodes = (
"455 251 LINE",
"455 485 LINE",
"431 485 LINE",
"427 436 OFFCURVE",
"424 388 OFFCURVE",
"379 388 CURVE SMOOTH",
"162 388 LINE",
"162 348 LINE",
"379 348 LINE SMOOTH",
"424 348 OFFCURVE",
"427 300 OFFCURVE",
"431 251 CURVE"
);
},
{
closed = 1;
nodes = (
"227 915 LINE",
"132 1008 LINE SMOOTH",
"122 1018 OFFCURVE",
"105 1034 OFFCURVE",
"85 1034 CURVE SMOOTH",
"63 1034 OFFCURVE",
"52 1017 OFFCURVE",
"52 1003 CURVE SMOOTH",
"52 988 OFFCURVE",
"65 972 OFFCURVE",
"88 960 CURVE SMOOTH",
"210 893 LINE"
);
},
{
closed = 1;
nodes = (
"290 862 LINE SMOOTH",
"300 870 OFFCURVE",
"310 878 OFFCURVE",
"318 878 CURVE SMOOTH",
"324 878 OFFCURVE",
"332 873 OFFCURVE",
"341 867 CURVE",
"447 781 LINE",
"466 803 LINE",
"344 932 LINE",
"293 932 LINE",
"171 803 LINE",
"189 781 LINE"
);
}
);
};
components = (
{
name = E;
},
{
name = circumflexgrave;
transform = "{1, 0, 0, 1, 515, 230}";
}
);
layerId = "0B1DFD06-3317-40CA-B510-4969A0718C16";
width = 509;
}
);
note = Ecircumflexgrave;
unicode = 1EC0;
},
{
color = 6;
glyphname = Ecircumflexhookabove;
lastChange = "2018-03-27 05:14:15 +0000";
layers = (
{
background = {
paths = (
{
closed = 1;
nodes = (
"554 0 LINE",
"571 179 LINE",
"544 179 LINE",
"538 124 OFFCURVE",
"520 40 OFFCURVE",
"456 40 CURVE SMOOTH",
"201 40 LINE",
"201 659 LINE",
"441 659 LINE SMOOTH",
"516 659 OFFCURVE",
"525 567 OFFCURVE",
"528 527 CURVE",
"555 527 LINE",
"555 700 LINE",
"16 700 LINE",
"16 673 LINE",
"44 673 LINE SMOOTH",
"83 673 OFFCURVE",
"103 662 OFFCURVE",
"103 637 CURVE SMOOTH",
"103 62 LINE SMOOTH",
"103 37 OFFCURVE",
"83 26 OFFCURVE",
"44 26 CURVE SMOOTH",
"16 26 LINE",
"16 0 LINE"
);
},
{
closed = 1;
nodes = (
"455 251 LINE",
"455 485 LINE",
"431 485 LINE",
"427 436 OFFCURVE",
"424 388 OFFCURVE",
"379 388 CURVE SMOOTH",
"162 388 LINE",
"162 348 LINE",
"379 348 LINE SMOOTH",
"424 348 OFFCURVE",
"427 300 OFFCURVE",
"431 251 CURVE"
);
},
{
closed = 1;
nodes = (
"286 858 LINE",
"297 868 OFFCURVE",
"309 878 OFFCURVE",
"318 878 CURVE SMOOTH",
"324 878 OFFCURVE",
"332 873 OFFCURVE",
"341 867 CURVE",
"447 781 LINE",
"466 803 LINE",
"344 932 LINE",
"293 932 LINE",
"171 803 LINE",
"189 781 LINE"
);
},
{
closed = 1;
nodes = (
"493 898 LINE",
"474 905 OFFCURVE",
"464 912 OFFCURVE",
"464 926 CURVE SMOOTH",
"464 954 OFFCURVE",
"544 965 OFFCURVE",
"544 1010 CURVE SMOOTH",
"544 1047 OFFCURVE",
"502 1063 OFFCURVE",
"460 1063 CURVE SMOOTH",
"429 1063 OFFCURVE",
"384 1053 OFFCURVE",
"384 1022 CURVE SMOOTH",
"384 1010 OFFCURVE",
"395 1001 OFFCURVE",
"405 1001 CURVE SMOOTH",
"434 1001 OFFCURVE",
"421 1040 OFFCURVE",
"464 1040 CURVE SMOOTH",
"483 1040 OFFCURVE",
"494 1028 OFFCURVE",
"494 1013 CURVE SMOOTH",
"494 973 OFFCURVE",
"421 965 OFFCURVE",
"421 925 CURVE SMOOTH",
"421 901 OFFCURVE",
"437 880 OFFCURVE",
"484 880 CURVE"
);
}
);
};
components = (
{
name = E;
},
{
name = circumflexhookabove;
transform = "{1, 0, 0, 1, 515, 230}";
}
);
layerId = "0B1DFD06-3317-40CA-B510-4969A0718C16";
width = 509;
}
);
note = Ecircumflexhookabove;
unicode = 1EC2;
},
{
color = 6;
glyphname = Ecircumflextilde;
lastChange = "2018-03-27 04:49:31 +0000";
layers = (
{
background = {
paths = (
{
closed = 1;
nodes = (
"554 0 LINE",
"571 179 LINE",
"544 179 LINE",
"538 124 OFFCURVE",
"520 40 OFFCURVE",
"456 40 CURVE SMOOTH",
"201 40 LINE",
"201 659 LINE",
"441 659 LINE SMOOTH",
"516 659 OFFCURVE",
"525 567 OFFCURVE",
"528 527 CURVE",
"555 527 LINE",
"555 700 LINE",
"16 700 LINE",
"16 673 LINE",
"44 673 LINE SMOOTH",
"83 673 OFFCURVE",
"103 662 OFFCURVE",
"103 637 CURVE SMOOTH",
"103 62 LINE SMOOTH",
"103 37 OFFCURVE",
"83 26 OFFCURVE",
"44 26 CURVE SMOOTH",
"16 26 LINE",
"16 0 LINE"
);
},
{
closed = 1;
nodes = (
"455 251 LINE",
"455 485 LINE",
"431 485 LINE",
"427 436 OFFCURVE",
"424 388 OFFCURVE",
"379 388 CURVE SMOOTH",
"162 388 LINE",
"162 348 LINE",
"379 348 LINE SMOOTH",
"424 348 OFFCURVE",
"427 300 OFFCURVE",
"431 251 CURVE"
);
},
{
closed = 1;
nodes = (
"290 862 LINE SMOOTH",
"300 870 OFFCURVE",
"310 878 OFFCURVE",
"318 878 CURVE SMOOTH",
"324 878 OFFCURVE",
"332 873 OFFCURVE",
"341 867 CURVE",
"447 781 LINE",
"466 803 LINE",
"344 932 LINE",
"293 932 LINE",
"171 803 LINE",
"189 781 LINE"
);
},
{
closed = 1;
nodes = (
"193 997 OFFCURVE",
"211 1018 OFFCURVE",
"242 1018 CURVE SMOOTH",
"291 1018 OFFCURVE",
"338 964 OFFCURVE",
"387 964 CURVE SMOOTH",
"440 964 OFFCURVE",
"469 1012 OFFCURVE",
"481 1063 CURVE",
"460 1075 LINE",
"447 1035 OFFCURVE",
"431 1012 OFFCURVE",
"398 1012 CURVE SMOOTH",
"351 1012 OFFCURVE",
"302 1065 OFFCURVE",
"253 1065 CURVE SMOOTH",
"202 1065 OFFCURVE",
"170 1021 OFFCURVE",
"160 970 CURVE",
"180 958 LINE"
);
}
);
};
components = (
{
name = E;
},
{
name = circumflextilde;
transform = "{1, 0, 0, 1, 515, 230}";
}
);
layerId = "0B1DFD06-3317-40CA-B510-4969A0718C16";
width = 509;
}
);
note = Ecircumflextilde;
unicode = 1EC4;
},
{
color = 6;
glyphname = Edieresis;
lastChange = "2018-03-25 03:46:45 +0000";
layers = (
{
background = {
paths = (
{
closed = 1;
nodes = (
"554 0 LINE",
"571 179 LINE",
"544 179 LINE",
"538 124 OFFCURVE",
"520 40 OFFCURVE",
"456 40 CURVE SMOOTH",
"201 40 LINE",
"201 659 LINE",
"441 659 LINE SMOOTH",
"516 659 OFFCURVE",
"525 567 OFFCURVE",
"528 527 CURVE",
"555 527 LINE",
"555 700 LINE",
"16 700 LINE",
"16 673 LINE",
"44 673 LINE SMOOTH",
"83 673 OFFCURVE",
"103 662 OFFCURVE",
"103 637 CURVE SMOOTH",
"103 62 LINE SMOOTH",
"103 37 OFFCURVE",
"83 26 OFFCURVE",
"44 26 CURVE SMOOTH",
"16 26 LINE",
"16 0 LINE"
);
},
{
closed = 1;
nodes = (
"455 251 LINE",
"455 485 LINE",
"431 485 LINE",
"427 436 OFFCURVE",
"424 388 OFFCURVE",
"379 388 CURVE SMOOTH",
"162 388 LINE",
"162 348 LINE",
"379 348 LINE SMOOTH",
"424 348 OFFCURVE",
"427 300 OFFCURVE",
"431 251 CURVE"
);
},
{
closed = 1;
nodes = (
"254 781 OFFCURVE",
"272 800 OFFCURVE",
"272 827 CURVE SMOOTH",
"272 855 OFFCURVE",
"254 875 OFFCURVE",
"225 875 CURVE SMOOTH",
"197 875 OFFCURVE",
"179 855 OFFCURVE",
"179 827 CURVE SMOOTH",
"179 800 OFFCURVE",
"197 781 OFFCURVE",
"225 781 CURVE SMOOTH"
);
},
{
closed = 1;
nodes = (
"470 781 OFFCURVE",
"488 800 OFFCURVE",
"488 827 CURVE SMOOTH",
"488 855 OFFCURVE",
"470 875 OFFCURVE",
"441 875 CURVE SMOOTH",
"412 875 OFFCURVE",
"394 855 OFFCURVE",
"394 827 CURVE SMOOTH",
"394 800 OFFCURVE",
"412 781 OFFCURVE",
"441 781 CURVE SMOOTH"
);
}
);
};
components = (
{
name = E;
},
{
name = dieresiscomb;
transform = "{1, 0, 0, 1, 266, 230}";
}
);
layerId = "0B1DFD06-3317-40CA-B510-4969A0718C16";
width = 509;
}
);
note = Edieresis;
unicode = 00CB;
},
{
color = 6;
glyphname = Edotaccent;
lastChange = "2018-03-25 03:35:11 +0000";
layers = (
{
background = {
paths = (
{
closed = 1;
nodes = (
"554 0 LINE",
"571 179 LINE",
"544 179 LINE",
"538 124 OFFCURVE",
"520 40 OFFCURVE",
"456 40 CURVE SMOOTH",
"201 40 LINE",
"201 659 LINE",
"441 659 LINE SMOOTH",
"516 659 OFFCURVE",
"525 567 OFFCURVE",
"528 527 CURVE",
"555 527 LINE",
"555 700 LINE",
"16 700 LINE",
"16 673 LINE",
"44 673 LINE SMOOTH",
"83 673 OFFCURVE",
"103 662 OFFCURVE",
"103 637 CURVE SMOOTH",
"103 62 LINE SMOOTH",
"103 37 OFFCURVE",
"83 26 OFFCURVE",
"44 26 CURVE SMOOTH",
"16 26 LINE",
"16 0 LINE"
);
},
{
closed = 1;
nodes = (
"455 251 LINE",
"455 485 LINE",
"431 485 LINE",
"427 436 OFFCURVE",
"424 388 OFFCURVE",
"379 388 CURVE SMOOTH",
"162 388 LINE",
"162 348 LINE",
"379 348 LINE SMOOTH",
"424 348 OFFCURVE",
"427 300 OFFCURVE",
"431 251 CURVE"
);
},
{
closed = 1;
nodes = (
"362 765 OFFCURVE",
"380 784 OFFCURVE",
"380 811 CURVE SMOOTH",
"380 839 OFFCURVE",
"362 858 OFFCURVE",
"334 858 CURVE SMOOTH",
"305 858 OFFCURVE",
"287 839 OFFCURVE",
"287 811 CURVE SMOOTH",
"287 784 OFFCURVE",
"305 765 OFFCURVE",
"334 765 CURVE SMOOTH"
);
}
);
};
components = (
{
name = E;
},
{
name = dotaccentcomb;
transform = "{1, 0, 0, 1, 266, 230}";
}
);
layerId = "0B1DFD06-3317-40CA-B510-4969A0718C16";
width = 509;
}
);
note = Edotaccent;
unicode = 0116;
},
{
color = 6;
glyphname = Edotbelow;
lastChange = "2018-03-27 04:00:47 +0000";
layers = (
{
background = {
paths = (
{
closed = 1;
nodes = (
"554 0 LINE",
"571 179 LINE",
"544 179 LINE",
"538 124 OFFCURVE",
"520 40 OFFCURVE",
"456 40 CURVE SMOOTH",
"201 40 LINE",
"201 659 LINE",
"441 659 LINE SMOOTH",
"516 659 OFFCURVE",
"525 567 OFFCURVE",
"528 527 CURVE",
"555 527 LINE",
"555 700 LINE",
"16 700 LINE",
"16 673 LINE",
"44 673 LINE SMOOTH",
"83 673 OFFCURVE",
"103 662 OFFCURVE",
"103 637 CURVE SMOOTH",
"103 62 LINE SMOOTH",
"103 37 OFFCURVE",
"83 26 OFFCURVE",
"44 26 CURVE SMOOTH",
"16 26 LINE",
"16 0 LINE"
);
},
{
closed = 1;
nodes = (
"343 -159 OFFCURVE",
"361 -140 OFFCURVE",
"361 -112 CURVE SMOOTH",
"361 -84 OFFCURVE",
"343 -64 OFFCURVE",
"315 -64 CURVE SMOOTH",
"287 -64 OFFCURVE",
"268 -84 OFFCURVE",
"268 -112 CURVE SMOOTH",
"268 -140 OFFCURVE",
"287 -159 OFFCURVE",
"315 -159 CURVE SMOOTH"
);
},
{
closed = 1;
nodes = (
"455 251 LINE",
"455 485 LINE",
"431 485 LINE",
"427 436 OFFCURVE",
"424 388 OFFCURVE",
"379 388 CURVE SMOOTH",
"162 388 LINE",
"162 348 LINE",
"379 348 LINE SMOOTH",
"424 348 OFFCURVE",
"427 300 OFFCURVE",
"431 251 CURVE"
);
}
);
};
components = (
{
name = E;
},
{
name = dotbelowcomb;
transform = "{1, 0, 0, 1, 266, 0}";
}
);
layerId = "0B1DFD06-3317-40CA-B510-4969A0718C16";
width = 509;
}
);
note = Edotbelow;
unicode = 1EB8;
},
{
color = 6;
glyphname = Egrave;
lastChange = "2018-03-24 02:19:13 +0000";
layers = (
{
background = {
paths = (
{
closed = 1;
nodes = (
"554 0 LINE",
"571 179 LINE",
"544 179 LINE",
"538 124 OFFCURVE",
"520 40 OFFCURVE",
"456 40 CURVE SMOOTH",
"201 40 LINE",
"201 659 LINE",
"441 659 LINE SMOOTH",
"516 659 OFFCURVE",
"525 567 OFFCURVE",
"528 527 CURVE",
"555 527 LINE",
"555 700 LINE",
"16 700 LINE",
"16 673 LINE",
"44 673 LINE SMOOTH",
"83 673 OFFCURVE",
"103 662 OFFCURVE",
"103 637 CURVE SMOOTH",
"103 62 LINE SMOOTH",
"103 37 OFFCURVE",
"83 26 OFFCURVE",
"44 26 CURVE SMOOTH",
"16 26 LINE",
"16 0 LINE"
);
},
{
closed = 1;
nodes = (
"455 251 LINE",
"455 485 LINE",
"431 485 LINE",
"427 436 OFFCURVE",
"424 388 OFFCURVE",
"379 388 CURVE SMOOTH",
"162 388 LINE",
"162 348 LINE",
"379 348 LINE SMOOTH",
"424 348 OFFCURVE",
"427 300 OFFCURVE",
"431 251 CURVE"
);
},
{
closed = 1;
nodes = (
"425 807 LINE",
"310 913 LINE",
"301 922 OFFCURVE",
"285 937 OFFCURVE",
"265 937 CURVE SMOOTH",
"245 937 OFFCURVE",
"233 924 OFFCURVE",
"233 908 CURVE SMOOTH",
"233 890 OFFCURVE",
"245 876 OFFCURVE",
"264 865 CURVE SMOOTH",
"407 782 LINE"
);
}
);
};
components = (
{
name = E;
},
{
name = gravecomb;
transform = "{1, 0, 0, 1, 199, 230}";
}
);
layerId = "0B1DFD06-3317-40CA-B510-4969A0718C16";
width = 509;
}
);
note = Egrave;
unicode = 00C8;
},
{
color = 6;
glyphname = Ehookabove;
lastChange = "2018-03-27 05:10:17 +0000";
layers = (
{
background = {
paths = (
{
closed = 1;
nodes = (
"554 0 LINE",
"571 179 LINE",
"544 179 LINE",
"538 124 OFFCURVE",
"520 40 OFFCURVE",
"456 40 CURVE SMOOTH",
"201 40 LINE",
"201 659 LINE",
"441 659 LINE SMOOTH",
"516 659 OFFCURVE",
"525 567 OFFCURVE",
"528 527 CURVE",
"555 527 LINE",
"555 700 LINE",
"16 700 LINE",
"16 673 LINE",
"44 673 LINE SMOOTH",
"83 673 OFFCURVE",
"103 662 OFFCURVE",
"103 637 CURVE SMOOTH",
"103 62 LINE SMOOTH",
"103 37 OFFCURVE",
"83 26 OFFCURVE",
"44 26 CURVE SMOOTH",
"16 26 LINE",
"16 0 LINE"
);
},
{
closed = 1;
nodes = (
"455 251 LINE",
"455 485 LINE",
"431 485 LINE",
"427 436 OFFCURVE",
"424 388 OFFCURVE",
"379 388 CURVE SMOOTH",
"162 388 LINE",
"162 348 LINE",
"379 348 LINE SMOOTH",
"424 348 OFFCURVE",
"427 300 OFFCURVE",
"431 251 CURVE"
);
},
{
closed = 1;
nodes = (
"367 798 LINE",
"348 805 OFFCURVE",
"336 811 OFFCURVE",
"336 828 CURVE SMOOTH",
"336 861 OFFCURVE",
"425 876 OFFCURVE",
"425 927 CURVE SMOOTH",
"425 969 OFFCURVE",
"389 991 OFFCURVE",
"336 991 CURVE SMOOTH",
"289 991 OFFCURVE",
"248 974 OFFCURVE",
"248 940 CURVE SMOOTH",
"248 923 OFFCURVE",
"256 915 OFFCURVE",
"271 915 CURVE SMOOTH",
"294 915 OFFCURVE",
"296 934 OFFCURVE",
"299 942 CURVE SMOOTH",
"304 956 OFFCURVE",
"321 962 OFFCURVE",
"337 962 CURVE SMOOTH",
"358 962 OFFCURVE",
"371 947 OFFCURVE",
"371 930 CURVE SMOOTH",
"371 885 OFFCURVE",
"289 874 OFFCURVE",
"289 828 CURVE SMOOTH",
"289 801 OFFCURVE",
"307 778 OFFCURVE",
"358 778 CURVE"
);
}
);
};
components = (
{
name = E;
},
{
name = hookabovecomb;
transform = "{1, 0, 0, 1, 5, 230}";
}
);
layerId = "0B1DFD06-3317-40CA-B510-4969A0718C16";
width = 509;
}
);
note = Ehookabove;
unicode = 1EBA;
},
{
color = 6;
glyphname = Emacron;
lastChange = "2018-03-27 04:15:01 +0000";
layers = (
{
background = {
paths = (
{
closed = 1;
nodes = (
"554 0 LINE",
"571 179 LINE",
"544 179 LINE",
"538 124 OFFCURVE",
"520 40 OFFCURVE",
"456 40 CURVE SMOOTH",
"201 40 LINE",
"201 659 LINE",
"441 659 LINE SMOOTH",
"516 659 OFFCURVE",
"525 567 OFFCURVE",
"528 527 CURVE",
"555 527 LINE",
"555 700 LINE",
"16 700 LINE",
"16 673 LINE",
"44 673 LINE SMOOTH",
"83 673 OFFCURVE",
"103 662 OFFCURVE",
"103 637 CURVE SMOOTH",
"103 62 LINE SMOOTH",
"103 37 OFFCURVE",
"83 26 OFFCURVE",
"44 26 CURVE SMOOTH",
"16 26 LINE",
"16 0 LINE"
);
},
{
closed = 1;
nodes = (
"455 251 LINE",
"455 485 LINE",
"431 485 LINE",
"427 436 OFFCURVE",
"424 388 OFFCURVE",
"379 388 CURVE SMOOTH",
"162 388 LINE",
"162 348 LINE",
"379 348 LINE SMOOTH",
"424 348 OFFCURVE",
"427 300 OFFCURVE",
"431 251 CURVE"
);
},
{
closed = 1;
nodes = (
"495 782 LINE",
"495 824 LINE",
"162 824 LINE",
"162 782 LINE"
);
}
);
};
components = (
{
name = E;
},
{
name = macroncomb;
transform = "{1, 0, 0, 1, 265, 230}";
}
);
layerId = "0B1DFD06-3317-40CA-B510-4969A0718C16";
width = 509;
}
);
note = Emacron;
unicode = 0112;
},
{
color = 6;
glyphname = Eogonek;
lastChange = "2018-03-28 03:51:52 +0000";
layers = (
{
background = {
paths = (
{
closed = 1;
nodes = (
"554 0 LINE",
"571 179 LINE",
"544 179 LINE",
"538 124 OFFCURVE",
"520 40 OFFCURVE",
"456 40 CURVE SMOOTH",
"201 40 LINE",
"201 659 LINE",
"441 659 LINE SMOOTH",
"516 659 OFFCURVE",
"525 567 OFFCURVE",
"528 527 CURVE",
"555 527 LINE",
"555 700 LINE",
"16 700 LINE",
"16 673 LINE",
"44 673 LINE SMOOTH",
"83 673 OFFCURVE",
"103 662 OFFCURVE",
"103 637 CURVE SMOOTH",
"103 62 LINE SMOOTH",
"103 37 OFFCURVE",
"83 26 OFFCURVE",
"44 26 CURVE SMOOTH",
"16 26 LINE",
"16 0 LINE"
);
},
{
closed = 1;
nodes = (
"496 -196 OFFCURVE",
"524 -189 OFFCURVE",
"549 -172 CURVE",
"543 -152 LINE",
"527 -158 OFFCURVE",
"510 -162 OFFCURVE",
"497 -162 CURVE SMOOTH",
"464 -162 OFFCURVE",
"437 -146 OFFCURVE",
"437 -106 CURVE SMOOTH",
"437 -66 OFFCURVE",
"464 -26 OFFCURVE",
"510 4 CURVE",
"469 4 LINE",
"416 -22 OFFCURVE",
"376 -64 OFFCURVE",
"376 -114 CURVE SMOOTH",
"376 -147 OFFCURVE",
"395 -196 OFFCURVE",
"470 -196 CURVE SMOOTH"
);
},
{
closed = 1;
nodes = (
"455 251 LINE",
"455 485 LINE",
"431 485 LINE",
"427 436 OFFCURVE",
"424 388 OFFCURVE",
"379 388 CURVE SMOOTH",
"162 388 LINE",
"162 348 LINE",
"379 348 LINE SMOOTH",
"424 348 OFFCURVE",
"427 300 OFFCURVE",
"431 251 CURVE"
);
}
);
};
components = (
{
name = E;
},
{
name = ogonekcomb;
transform = "{1, 0, 0, 1, 412, 0}";
}
);
layerId = "0B1DFD06-3317-40CA-B510-4969A0718C16";
width = 509;
}
);
note = Eogonek;
unicode = 0118;
},
{
color = 6;
glyphname = Etilde;
lastChange = "2018-03-27 04:37:32 +0000";
layers = (
{
background = {
paths = (
{
closed = 1;
nodes = (
"554 0 LINE",
"571 179 LINE",
"544 179 LINE",
"538 124 OFFCURVE",
"520 40 OFFCURVE",
"456 40 CURVE SMOOTH",
"201 40 LINE",
"201 659 LINE",
"441 659 LINE SMOOTH",
"516 659 OFFCURVE",
"525 567 OFFCURVE",
"528 527 CURVE",
"555 527 LINE",
"555 700 LINE",
"16 700 LINE",
"16 673 LINE",
"44 673 LINE SMOOTH",
"83 673 OFFCURVE",
"103 662 OFFCURVE",
"103 637 CURVE SMOOTH",
"103 62 LINE SMOOTH",
"103 37 OFFCURVE",
"83 26 OFFCURVE",
"44 26 CURVE SMOOTH",
"16 26 LINE",
"16 0 LINE"
);
},
{
closed = 1;
nodes = (
"455 251 LINE",
"455 485 LINE",
"431 485 LINE",
"427 436 OFFCURVE",
"424 388 OFFCURVE",
"379 388 CURVE SMOOTH",
"162 388 LINE",
"162 348 LINE",
"379 348 LINE SMOOTH",
"424 348 OFFCURVE",
"427 300 OFFCURVE",
"431 251 CURVE"
);
},
{
closed = 1;
nodes = (
"190 817 OFFCURVE",
"208 838 OFFCURVE",
"241 838 CURVE SMOOTH",
"292 838 OFFCURVE",
"341 784 OFFCURVE",
"392 784 CURVE SMOOTH",
"450 784 OFFCURVE",
"480 832 OFFCURVE",
"492 884 CURVE",
"471 895 LINE",
"455 855 OFFCURVE",
"439 833 OFFCURVE",
"405 833 CURVE SMOOTH",
"356 833 OFFCURVE",
"304 886 OFFCURVE",
"253 886 CURVE SMOOTH",
"199 886 OFFCURVE",
"166 842 OFFCURVE",
"154 790 CURVE",
"176 779 LINE"
);
}
);
};
components = (
{
name = E;
},
{
name = tildecomb;
transform = "{1, 0, 0, 1, 265, 230}";
}
);
layerId = "0B1DFD06-3317-40CA-B510-4969A0718C16";
width = 509;
}
);
note = Etilde;
unicode = 1EBC;
},
{
color = 6;
glyphname = Hbar;
lastChange = "2018-04-09 07:44:08 +0000";
layers = (
{
components = (
{
name = H;
transform = "{1, 0, 0, 1, 32, 0}";
}
);
layerId = "0B1DFD06-3317-40CA-B510-4969A0718C16";
paths = (
{
closed = 1;
nodes = (
"651 514 LINE",
"651 560 LINE",
"35 560 LINE",
"35 514 LINE"
);
}
);
width = 686;
}
);
note = Hbar;
unicode = 0126;
},
{
color = 6;
glyphname = Lslash;
lastChange = "2018-04-09 07:55:25 +0000";
layers = (
{
components = (
{
name = L;
transform = "{1, 0, 0, 1, 40, 0}";
}
);
layerId = "0B1DFD06-3317-40CA-B510-4969A0718C16";
paths = (
{
closed = 1;
nodes = (
"35 262 LINE",
"347 412 LINE",
"347 462 LINE",
"35 312 LINE"
);
}
);
width = 526;
}
);
note = Lslash;
unicode = 0141;
},
{
color = 6;
glyphname = Nacute;
lastChange = "2018-03-24 02:26:59 +0000";
layers = (
{
background = {
paths = (
{
closed = 1;
nodes = (
"247 0 LINE",
"247 26 LINE",
"217 26 LINE SMOOTH",
"179 26 OFFCURVE",
"159 37 OFFCURVE",
"159 62 CURVE SMOOTH",
"159 642 LINE",
"587 0 LINE",
"645 0 LINE",
"645 637 LINE SMOOTH",
"645 662 OFFCURVE",
"665 673 OFFCURVE",
"703 673 CURVE SMOOTH",
"733 673 LINE",
"733 700 LINE",
"508 700 LINE",
"508 673 LINE",
"537 673 LINE SMOOTH",
"576 673 OFFCURVE",
"595 662 OFFCURVE",
"595 637 CURVE SMOOTH",
"595 126 LINE",
"217 700 LINE",
"22 700 LINE",
"22 673 LINE",
"51 673 LINE SMOOTH",
"90 673 OFFCURVE",
"109 662 OFFCURVE",
"109 637 CURVE SMOOTH",
"109 62 LINE SMOOTH",
"109 37 OFFCURVE",
"90 26 OFFCURVE",
"51 26 CURVE SMOOTH",
"22 26 LINE",
"22 0 LINE"
);
},
{
closed = 1;
nodes = (
"458 865 LINE SMOOTH",
"480 877 OFFCURVE",
"492 890 OFFCURVE",
"492 907 CURVE SMOOTH",
"492 922 OFFCURVE",
"480 937 OFFCURVE",
"458 937 CURVE SMOOTH",
"437 937 OFFCURVE",
"422 921 OFFCURVE",
"414 914 CURVE SMOOTH",
"299 807 LINE",
"316 782 LINE"
);
}
);
};
components = (
{
name = N;
},
{
name = acutecomb;
transform = "{1, 0, 0, 1, 340, 230}";
}
);
layerId = "0B1DFD06-3317-40CA-B510-4969A0718C16";
width = 618;
}
);
note = Nacute;
unicode = 0143;
},
{
color = 6;
glyphname = Ncaron;
lastChange = "2018-03-25 03:52:42 +0000";
layers = (
{
background = {
paths = (
{
closed = 1;
nodes = (
"247 0 LINE",
"247 26 LINE",
"217 26 LINE SMOOTH",
"179 26 OFFCURVE",
"159 37 OFFCURVE",
"159 62 CURVE SMOOTH",
"159 642 LINE",
"587 0 LINE",
"645 0 LINE",
"645 637 LINE SMOOTH",
"645 662 OFFCURVE",
"665 673 OFFCURVE",
"703 673 CURVE SMOOTH",
"733 673 LINE",
"733 700 LINE",
"508 700 LINE",
"508 673 LINE",
"537 673 LINE SMOOTH",
"576 673 OFFCURVE",
"595 662 OFFCURVE",
"595 637 CURVE SMOOTH",
"595 126 LINE",
"217 700 LINE",
"22 700 LINE",
"22 673 LINE",
"51 673 LINE SMOOTH",
"90 673 OFFCURVE",
"109 662 OFFCURVE",
"109 637 CURVE SMOOTH",
"109 62 LINE SMOOTH",
"109 37 OFFCURVE",
"90 26 OFFCURVE",
"51 26 CURVE SMOOTH",
"22 26 LINE",
"22 0 LINE"
);
},
{
closed = 1;
nodes = (
"403 782 LINE",
"527 911 LINE",
"508 932 LINE",
"400 847 LINE",
"392 840 OFFCURVE",
"383 836 OFFCURVE",
"377 836 CURVE SMOOTH",
"371 836 OFFCURVE",
"363 840 OFFCURVE",
"353 847 CURVE",
"245 932 LINE",
"226 911 LINE",
"350 782 LINE"
);
}
);
};
components = (
{
name = N;
},
{
name = caroncomb;
transform = "{1, 0, 0, 1, 310, 230}";
}
);
layerId = "0B1DFD06-3317-40CA-B510-4969A0718C16";
width = 618;
}
);
note = Ncaron;
unicode = 0147;
},
{
color = 6;
glyphname = Ncommaaccent;
lastChange = "2018-04-09 07:40:06 +0000";
layers = (
{
background = {
paths = (
{
closed = 1;
nodes = (
"247 0 LINE",
"247 26 LINE",
"217 26 LINE SMOOTH",
"179 26 OFFCURVE",
"159 37 OFFCURVE",
"159 62 CURVE SMOOTH",
"159 642 LINE",
"587 0 LINE",
"645 0 LINE",
"645 637 LINE SMOOTH",
"645 662 OFFCURVE",
"665 673 OFFCURVE",
"703 673 CURVE SMOOTH",
"733 673 LINE",
"733 700 LINE",
"508 700 LINE",
"508 673 LINE",
"537 673 LINE SMOOTH",
"576 673 OFFCURVE",
"595 662 OFFCURVE",
"595 637 CURVE SMOOTH",
"595 126 LINE",
"217 700 LINE",
"22 700 LINE",
"22 673 LINE",
"51 673 LINE SMOOTH",
"90 673 OFFCURVE",
"109 662 OFFCURVE",
"109 637 CURVE SMOOTH",
"109 62 LINE SMOOTH",
"109 37 OFFCURVE",
"90 26 OFFCURVE",
"51 26 CURVE SMOOTH",
"22 26 LINE",
"22 0 LINE"
);
},
{
closed = 1;
nodes = (
"369 -258 OFFCURVE",
"413 -198 OFFCURVE",
"413 -135 CURVE SMOOTH",
"413 -87 OFFCURVE",
"389 -67 OFFCURVE",
"360 -67 CURVE SMOOTH",
"331 -67 OFFCURVE",
"314 -87 OFFCURVE",
"314 -111 CURVE SMOOTH",
"314 -145 OFFCURVE",
"349 -152 OFFCURVE",
"349 -187 CURVE SMOOTH",
"349 -223 OFFCURVE",
"323 -256 OFFCURVE",
"296 -282 CURVE",
"313 -299 LINE"
);
}
);
};
components = (
{
name = N;
},
{
name = commaaccentcomb;
transform = "{1, 0, 0, 1, 203, 0}";
}
);
layerId = "0B1DFD06-3317-40CA-B510-4969A0718C16";
width = 618;
}
);
note = Ncommaaccent;
unicode = 0145;
},
{
color = 6;
glyphname = Ndotaccent;
lastChange = "2018-03-25 03:42:33 +0000";
layers = (
{
background = {
paths = (
{
closed = 1;
nodes = (
"247 0 LINE",
"247 26 LINE",
"217 26 LINE SMOOTH",
"179 26 OFFCURVE",
"159 37 OFFCURVE",
"159 62 CURVE SMOOTH",
"159 642 LINE",
"587 0 LINE",
"645 0 LINE",
"645 637 LINE SMOOTH",
"645 662 OFFCURVE",
"665 673 OFFCURVE",
"703 673 CURVE SMOOTH",
"733 673 LINE",
"733 700 LINE",
"508 700 LINE",
"508 673 LINE",
"537 673 LINE SMOOTH",
"576 673 OFFCURVE",
"595 662 OFFCURVE",
"595 637 CURVE SMOOTH",
"595 126 LINE",
"217 700 LINE",
"22 700 LINE",
"22 673 LINE",
"51 673 LINE SMOOTH",
"90 673 OFFCURVE",
"109 662 OFFCURVE",
"109 637 CURVE SMOOTH",
"109 62 LINE SMOOTH",
"109 37 OFFCURVE",
"90 26 OFFCURVE",
"51 26 CURVE SMOOTH",
"22 26 LINE",
"22 0 LINE"
);
},
{
closed = 1;
nodes = (
"405 765 OFFCURVE",
"423 784 OFFCURVE",
"423 811 CURVE SMOOTH",
"423 839 OFFCURVE",
"405 858 OFFCURVE",
"377 858 CURVE SMOOTH",
"348 858 OFFCURVE",
"330 839 OFFCURVE",
"330 811 CURVE SMOOTH",
"330 784 OFFCURVE",
"348 765 OFFCURVE",
"377 765 CURVE SMOOTH"
);
}
);
};
components = (
{
name = N;
},
{
name = dotaccentcomb;
transform = "{1, 0, 0, 1, 310, 230}";
}
);
layerId = "0B1DFD06-3317-40CA-B510-4969A0718C16";
width = 618;
}
);
note = Ndotaccent;
unicode = 1E44;
},
{
color = 6;
glyphname = Ndotbelow;
lastChange = "2018-03-27 04:01:22 +0000";
layers = (
{
background = {
paths = (
{
closed = 1;
nodes = (
"247 0 LINE",
"247 26 LINE",
"217 26 LINE SMOOTH",
"179 26 OFFCURVE",
"159 37 OFFCURVE",
"159 62 CURVE SMOOTH",
"159 642 LINE",
"587 0 LINE",
"645 0 LINE",
"645 637 LINE SMOOTH",
"645 662 OFFCURVE",
"665 673 OFFCURVE",
"703 673 CURVE SMOOTH",
"733 673 LINE",
"733 700 LINE",
"508 700 LINE",
"508 673 LINE",
"537 673 LINE SMOOTH",
"576 673 OFFCURVE",
"595 662 OFFCURVE",
"595 637 CURVE SMOOTH",
"595 126 LINE",
"217 700 LINE",
"22 700 LINE",
"22 673 LINE",
"51 673 LINE SMOOTH",
"90 673 OFFCURVE",
"109 662 OFFCURVE",
"109 637 CURVE SMOOTH",
"109 62 LINE SMOOTH",
"109 37 OFFCURVE",
"90 26 OFFCURVE",
"51 26 CURVE SMOOTH",
"22 26 LINE",
"22 0 LINE"
);
},
{
closed = 1;
nodes = (
"415 -159 OFFCURVE",
"433 -140 OFFCURVE",
"433 -112 CURVE SMOOTH",
"433 -84 OFFCURVE",
"415 -64 OFFCURVE",
"387 -64 CURVE SMOOTH",
"359 -64 OFFCURVE",
"340 -84 OFFCURVE",
"340 -112 CURVE SMOOTH",
"340 -140 OFFCURVE",
"359 -159 OFFCURVE",
"387 -159 CURVE SMOOTH"
);
}
);
};
components = (
{
name = N;
},
{
name = dotbelowcomb;
transform = "{1, 0, 0, 1, 310, 0}";
}
);
layerId = "0B1DFD06-3317-40CA-B510-4969A0718C16";
width = 618;
}
);
note = uni1E46;
unicode = 1E46;
},
{
color = 6;
glyphname = Eng;
lastChange = "2018-03-27 04:54:12 +0000";
layers = (
{
anchors = (
{
name = bottom;
position = "{826, 0}";
},
{
name = top;
position = "{927, 700}";
}
);
background = {
paths = (
{
closed = 1;
nodes = (
"592 -259 OFFCURVE",
"645 -182 OFFCURVE",
"645 -36 CURVE SMOOTH",
"645 637 LINE SMOOTH",
"645 662 OFFCURVE",
"665 673 OFFCURVE",
"703 673 CURVE SMOOTH",
"733 673 LINE",
"733 700 LINE",
"508 700 LINE",
"508 673 LINE",
"537 673 LINE SMOOTH",
"576 673 OFFCURVE",
"595 662 OFFCURVE",
"595 637 CURVE SMOOTH",
"595 125 LINE",
"219 700 LINE",
"22 700 LINE",
"22 673 LINE",
"51 673 LINE SMOOTH",
"90 673 OFFCURVE",
"109 662 OFFCURVE",
"109 637 CURVE SMOOTH",
"109 62 LINE SMOOTH",
"109 37 OFFCURVE",
"93 26 OFFCURVE",
"51 26 CURVE SMOOTH",
"22 26 LINE",
"22 0 LINE",
"247 0 LINE",
"247 26 LINE",
"217 26 LINE SMOOTH",
"179 26 OFFCURVE",
"159 37 OFFCURVE",
"159 62 CURVE SMOOTH",
"159 647 LINE",
"586 0 LINE",
"586 -76 LINE SMOOTH",
"586 -173 OFFCURVE",
"510 -238 OFFCURVE",
"423 -243 CURVE",
"427 -268 LINE"
);
}
);
};
layerId = "0B1DFD06-3317-40CA-B510-4969A0718C16";
paths = (
{
closed = 1;
nodes = (
"51 670 OFFCURVE",
"78 670 OFFCURVE",
"78 634 CURVE SMOOTH",
"78 0 LINE",
"132 0 LINE",
"132 579 LINE",
"484 9.704 LINE",
"484 -94 LINE SMOOTH",
"484 -174 OFFCURVE",
"444 -216 OFFCURVE",
"369 -216 CURVE SMOOTH",
"336 -216 OFFCURVE",
"292 -203 OFFCURVE",
"271 -185 CURVE",
"248 -230 LINE",
"279 -249 OFFCURVE",
"326 -265 OFFCURVE",
"365 -265 CURVE SMOOTH",
"472 -265 OFFCURVE",
"538 -200 OFFCURVE",
"538 -91 CURVE SMOOTH",
"538 700 LINE",
"484 700 LINE",
"484 104 LINE",
"116 701 LINE",
"110 710 OFFCURVE",
"97 718 OFFCURVE",
"91 718 CURVE SMOOTH",
"72 718 OFFCURVE",
"59 696 OFFCURVE",
"56 687 CURVE"
);
}
);
width = 618;
}
);
note = Eng;
unicode = 014A;
},
{
color = 6;
glyphname = Nlinebelow;
lastChange = "2018-04-09 07:32:50 +0000";
layers = (
{
background = {
paths = (
{
closed = 1;
nodes = (
"247 0 LINE",
"247 26 LINE",
"217 26 LINE SMOOTH",
"179 26 OFFCURVE",
"159 37 OFFCURVE",
"159 62 CURVE SMOOTH",
"159 642 LINE",
"587 0 LINE",
"645 0 LINE",
"645 637 LINE SMOOTH",
"645 662 OFFCURVE",
"665 673 OFFCURVE",
"703 673 CURVE SMOOTH",
"733 673 LINE",
"733 700 LINE",
"508 700 LINE",
"508 673 LINE",
"537 673 LINE SMOOTH",
"576 673 OFFCURVE",
"595 662 OFFCURVE",
"595 637 CURVE SMOOTH",
"595 126 LINE",
"217 700 LINE",
"22 700 LINE",
"22 673 LINE",
"51 673 LINE SMOOTH",
"90 673 OFFCURVE",
"109 662 OFFCURVE",
"109 637 CURVE SMOOTH",
"109 62 LINE SMOOTH",
"109 37 OFFCURVE",
"90 26 OFFCURVE",
"51 26 CURVE SMOOTH",
"22 26 LINE",
"22 0 LINE"
);
},
{
closed = 1;
nodes = (
"542 -110 LINE",
"542 -72 LINE",
"210 -72 LINE",
"210 -110 LINE"
);
}
);
};
components = (
{
name = N;
},
{
name = macronbelowcomb;
transform = "{1, 0, 0, 1, 309, 0}";
}
);
layerId = "0B1DFD06-3317-40CA-B510-4969A0718C16";
width = 618;
}
);
note = Nlinebelow;
unicode = 1E48;
},
{
color = 6;
glyphname = Ntilde;
lastChange = "2018-03-27 04:49:46 +0000";
layers = (
{
background = {
paths = (
{
closed = 1;
nodes = (
"247 0 LINE",
"247 26 LINE",
"217 26 LINE SMOOTH",
"179 26 OFFCURVE",
"159 37 OFFCURVE",
"159 62 CURVE SMOOTH",
"159 642 LINE",
"587 0 LINE",
"645 0 LINE",
"645 637 LINE SMOOTH",
"645 662 OFFCURVE",
"665 673 OFFCURVE",
"703 673 CURVE SMOOTH",
"733 673 LINE",
"733 700 LINE",
"508 700 LINE",
"508 673 LINE",
"537 673 LINE SMOOTH",
"576 673 OFFCURVE",
"595 662 OFFCURVE",
"595 637 CURVE SMOOTH",
"595 126 LINE",
"217 700 LINE",
"22 700 LINE",
"22 673 LINE",
"51 673 LINE SMOOTH",
"90 673 OFFCURVE",
"109 662 OFFCURVE",
"109 637 CURVE SMOOTH",
"109 62 LINE SMOOTH",
"109 37 OFFCURVE",
"90 26 OFFCURVE",
"51 26 CURVE SMOOTH",
"22 26 LINE",
"22 0 LINE"
);
},
{
closed = 1;
nodes = (
"254 818 OFFCURVE",
"272 839 OFFCURVE",
"305 839 CURVE SMOOTH",
"356 839 OFFCURVE",
"405 785 OFFCURVE",
"456 785 CURVE SMOOTH",
"514 785 OFFCURVE",
"544 833 OFFCURVE",
"556 885 CURVE",
"535 896 LINE",
"519 856 OFFCURVE",
"503 834 OFFCURVE",
"469 834 CURVE SMOOTH",
"420 834 OFFCURVE",
"368 887 OFFCURVE",
"317 887 CURVE SMOOTH",
"263 887 OFFCURVE",
"230 843 OFFCURVE",
"218 791 CURVE",
"240 780 LINE"
);
}
);
};
components = (
{
name = N;
},
{
name = tildecomb;
transform = "{1, 0, 0, 1, 309, 230}";
}
);
layerId = "0B1DFD06-3317-40CA-B510-4969A0718C16";
width = 618;
}
);
note = Ntilde;
unicode = 00D1;
},
{
color = 6;
glyphname = Oacute;
lastChange = "2018-03-24 02:25:28 +0000";
layers = (
{
background = {
paths = (
{
closed = 1;
nodes = (
"601 -10 OFFCURVE",
"719 124 OFFCURVE",
"719 350 CURVE SMOOTH",
"719 574 OFFCURVE",
"601 710 OFFCURVE",
"378 710 CURVE SMOOTH",
"154 710 OFFCURVE",
"36 574 OFFCURVE",
"36 350 CURVE SMOOTH",
"36 124 OFFCURVE",
"154 -10 OFFCURVE",
"378 -10 CURVE SMOOTH"
);
},
{
closed = 1;
nodes = (
"215 32 OFFCURVE",
"135 158 OFFCURVE",
"135 350 CURVE SMOOTH",
"135 541 OFFCURVE",
"215 668 OFFCURVE",
"377 668 CURVE SMOOTH",
"541 668 OFFCURVE",
"620 541 OFFCURVE",
"620 350 CURVE SMOOTH",
"620 158 OFFCURVE",
"541 32 OFFCURVE",
"377 32 CURVE SMOOTH"
);
},
{
closed = 1;
nodes = (
"440 865 LINE SMOOTH",
"462 877 OFFCURVE",
"474 890 OFFCURVE",
"474 907 CURVE SMOOTH",
"474 922 OFFCURVE",
"462 937 OFFCURVE",
"440 937 CURVE SMOOTH",
"419 937 OFFCURVE",
"404 921 OFFCURVE",
"396 914 CURVE SMOOTH",
"281 807 LINE",
"298 782 LINE"
);
}
);
};
components = (
{
name = O;
},
{
name = acutecomb;
transform = "{1, 0, 0, 1, 357, 230}";
}
);
layerId = "0B1DFD06-3317-40CA-B510-4969A0718C16";
width = 652;
}
);
leftKerningGroup = O;
note = Oacute;
rightKerningGroup = O;
unicode = 00D3;
},
{
color = 6;
glyphname = Obreve;
lastChange = "2018-03-27 02:03:48 +0000";
layers = (
{
background = {
paths = (
{
closed = 1;
nodes = (
"601 -10 OFFCURVE",
"719 124 OFFCURVE",
"719 350 CURVE SMOOTH",
"719 574 OFFCURVE",
"601 710 OFFCURVE",
"378 710 CURVE SMOOTH",
"154 710 OFFCURVE",
"36 574 OFFCURVE",
"36 350 CURVE SMOOTH",
"36 124 OFFCURVE",
"154 -10 OFFCURVE",
"378 -10 CURVE SMOOTH"
);
},
{
closed = 1;
nodes = (
"215 32 OFFCURVE",
"135 158 OFFCURVE",
"135 350 CURVE SMOOTH",
"135 541 OFFCURVE",
"215 668 OFFCURVE",
"377 668 CURVE SMOOTH",
"541 668 OFFCURVE",
"620 541 OFFCURVE",
"620 350 CURVE SMOOTH",
"620 158 OFFCURVE",
"541 32 OFFCURVE",
"377 32 CURVE SMOOTH"
);
},
{
closed = 1;
nodes = (
"477 774 OFFCURVE",
"519 830 OFFCURVE",
"523 905 CURVE",
"490 905 LINE",
"484 846 OFFCURVE",
"442 820 OFFCURVE",
"378 820 CURVE SMOOTH",
"314 820 OFFCURVE",
"271 846 OFFCURVE",
"264 905 CURVE",
"231 905 LINE",
"235 827 OFFCURVE",
"277 774 OFFCURVE",
"378 774 CURVE SMOOTH"
);
}
);
};
components = (
{
name = O;
},
{
name = brevecomb;
transform = "{1, 0, 0, 1, 326, 230}";
}
);
layerId = "0B1DFD06-3317-40CA-B510-4969A0718C16";
width = 652;
}
);
leftKerningGroup = O;
note = Obreve;
rightKerningGroup = O;
unicode = 014E;
},
{
color = 6;
glyphname = Ocaron;
lastChange = "2018-03-25 03:48:14 +0000";
layers = (
{
background = {
paths = (
{
closed = 1;
nodes = (
"601 -10 OFFCURVE",
"719 124 OFFCURVE",
"719 350 CURVE SMOOTH",
"719 574 OFFCURVE",
"601 710 OFFCURVE",
"378 710 CURVE SMOOTH",
"154 710 OFFCURVE",
"36 574 OFFCURVE",
"36 350 CURVE SMOOTH",
"36 124 OFFCURVE",
"154 -10 OFFCURVE",
"378 -10 CURVE SMOOTH"
);
},
{
closed = 1;
nodes = (
"215 32 OFFCURVE",
"135 158 OFFCURVE",
"135 350 CURVE SMOOTH",
"135 541 OFFCURVE",
"215 668 OFFCURVE",
"377 668 CURVE SMOOTH",
"541 668 OFFCURVE",
"620 541 OFFCURVE",
"620 350 CURVE SMOOTH",
"620 158 OFFCURVE",
"541 32 OFFCURVE",
"377 32 CURVE SMOOTH"
);
},
{
closed = 1;
nodes = (
"404 782 LINE",
"528 911 LINE",
"509 932 LINE",
"401 847 LINE",
"393 840 OFFCURVE",
"384 836 OFFCURVE",
"378 836 CURVE SMOOTH",
"372 836 OFFCURVE",
"364 840 OFFCURVE",
"354 847 CURVE",
"246 932 LINE",
"227 911 LINE",
"351 782 LINE"
);
}
);
};
components = (
{
name = O;
},
{
name = caroncomb;
transform = "{1, 0, 0, 1, 327, 230}";
}
);
layerId = "0B1DFD06-3317-40CA-B510-4969A0718C16";
width = 652;
}
);
leftKerningGroup = O;
note = Ocaron;
rightKerningGroup = O;
unicode = 01D1;
},
{
color = 6;
glyphname = Ocircumflex;
lastChange = "2018-03-25 03:48:27 +0000";
layers = (
{
background = {
paths = (
{
closed = 1;
nodes = (
"601 -10 OFFCURVE",
"719 124 OFFCURVE",
"719 350 CURVE SMOOTH",
"719 574 OFFCURVE",
"601 710 OFFCURVE",
"378 710 CURVE SMOOTH",
"154 710 OFFCURVE",
"36 574 OFFCURVE",
"36 350 CURVE SMOOTH",
"36 124 OFFCURVE",
"154 -10 OFFCURVE",
"378 -10 CURVE SMOOTH"
);
},
{
closed = 1;
nodes = (
"215 32 OFFCURVE",
"135 158 OFFCURVE",
"135 350 CURVE SMOOTH",
"135 541 OFFCURVE",
"215 668 OFFCURVE",
"377 668 CURVE SMOOTH",
"541 668 OFFCURVE",
"620 541 OFFCURVE",
"620 350 CURVE SMOOTH",
"620 158 OFFCURVE",
"541 32 OFFCURVE",
"377 32 CURVE SMOOTH"
);
},
{
closed = 1;
nodes = (
"354 868 LINE SMOOTH",
"362 874 OFFCURVE",
"372 879 OFFCURVE",
"378 879 CURVE SMOOTH",
"384 879 OFFCURVE",
"392 874 OFFCURVE",
"401 868 CURVE",
"509 782 LINE",
"528 803 LINE",
"404 932 LINE",
"351 932 LINE",
"227 803 LINE",
"246 782 LINE"
);
}
);
};
components = (
{
name = O;
},
{
name = circumflexcomb;
transform = "{1, 0, 0, 1, 327, 230}";
}
);
layerId = "0B1DFD06-3317-40CA-B510-4969A0718C16";
width = 652;
}
);
leftKerningGroup = O;
note = Ocircumflex;
rightKerningGroup = O;
unicode = 00D4;
},
{
color = 6;
glyphname = Ocircumflexacute;
lastChange = "2018-03-27 03:45:51 +0000";
layers = (
{
background = {
paths = (
{
closed = 1;
nodes = (
"601 -10 OFFCURVE",
"719 124 OFFCURVE",
"719 350 CURVE SMOOTH",
"719 574 OFFCURVE",
"601 710 OFFCURVE",
"378 710 CURVE SMOOTH",
"154 710 OFFCURVE",
"36 574 OFFCURVE",
"36 350 CURVE SMOOTH",
"36 124 OFFCURVE",
"154 -10 OFFCURVE",
"378 -10 CURVE SMOOTH"
);
},
{
closed = 1;
nodes = (
"215 32 OFFCURVE",
"135 158 OFFCURVE",
"135 350 CURVE SMOOTH",
"135 541 OFFCURVE",
"215 668 OFFCURVE",
"377 668 CURVE SMOOTH",
"541 668 OFFCURVE",
"620 541 OFFCURVE",
"620 350 CURVE SMOOTH",
"620 158 OFFCURVE",
"541 32 OFFCURVE",
"377 32 CURVE SMOOTH"
);
},
{
closed = 1;
nodes = (
"348 861 LINE SMOOTH",
"358 869 OFFCURVE",
"368 877 OFFCURVE",
"376 877 CURVE SMOOTH",
"382 877 OFFCURVE",
"390 872 OFFCURVE",
"399 866 CURVE",
"505 780 LINE",
"524 802 LINE",
"402 931 LINE",
"351 931 LINE",
"229 802 LINE",
"247 780 LINE"
);
},
{
closed = 1;
nodes = (
"613 959 LINE SMOOTH",
"636 971 OFFCURVE",
"649 987 OFFCURVE",
"649 1002 CURVE SMOOTH",
"649 1016 OFFCURVE",
"638 1033 OFFCURVE",
"615 1033 CURVE SMOOTH",
"596 1033 OFFCURVE",
"579 1017 OFFCURVE",
"569 1007 CURVE SMOOTH",
"473 914 LINE",
"491 892 LINE"
);
}
);
};
components = (
{
name = O;
},
{
name = circumflexacute;
transform = "{1, 0, 0, 1, 576, 230}";
}
);
layerId = "0B1DFD06-3317-40CA-B510-4969A0718C16";
width = 652;
}
);
leftKerningGroup = O;
note = Ocircumflexacute;
rightKerningGroup = O;
unicode = 1ED0;
},
{
color = 6;
glyphname = Ocircumflexdotbelow;
lastChange = "2018-03-27 04:01:09 +0000";
layers = (
{
background = {
paths = (
{
closed = 1;
nodes = (
"36 124 OFFCURVE",
"154 -10 OFFCURVE",
"378 -10 CURVE SMOOTH",
"601 -10 OFFCURVE",
"719 124 OFFCURVE",
"719 350 CURVE SMOOTH",
"719 574 OFFCURVE",
"601 710 OFFCURVE",
"378 710 CURVE SMOOTH",
"154 710 OFFCURVE",
"36 574 OFFCURVE",
"36 350 CURVE SMOOTH"
);
},
{
closed = 1;
nodes = (
"135 541 OFFCURVE",
"215 668 OFFCURVE",
"377 668 CURVE SMOOTH",
"541 668 OFFCURVE",
"620 541 OFFCURVE",
"620 350 CURVE SMOOTH",
"620 158 OFFCURVE",
"541 32 OFFCURVE",
"377 32 CURVE SMOOTH",
"215 32 OFFCURVE",
"135 158 OFFCURVE",
"135 350 CURVE SMOOTH"
);
},
{
closed = 1;
nodes = (
"245 782 LINE",
"353 868 LINE SMOOTH",
"361 874 OFFCURVE",
"371 879 OFFCURVE",
"377 879 CURVE SMOOTH",
"383 879 OFFCURVE",
"391 874 OFFCURVE",
"400 868 CURVE",
"508 782 LINE",
"527 803 LINE",
"403 932 LINE",
"350 932 LINE",
"226 803 LINE"
);
},
{
closed = 1;
nodes = (
"330 -140 OFFCURVE",
"349 -159 OFFCURVE",
"377 -159 CURVE SMOOTH",
"405 -159 OFFCURVE",
"423 -140 OFFCURVE",
"423 -112 CURVE SMOOTH",
"423 -84 OFFCURVE",
"405 -64 OFFCURVE",
"377 -64 CURVE SMOOTH",
"349 -64 OFFCURVE",
"330 -84 OFFCURVE",
"330 -112 CURVE SMOOTH"
);
}
);
};
components = (
{
name = O;
},
{
name = dotbelowcomb;
transform = "{1, 0, 0, 1, 327, 0}";
},
{
name = circumflexcomb;
transform = "{1, 0, 0, 1, 327, 230}";
}
);
layerId = "0B1DFD06-3317-40CA-B510-4969A0718C16";
width = 652;
}
);
leftKerningGroup = O;
note = Ocircumflexdotbelow;
rightKerningGroup = O;
unicode = 1ED8;
},
{
color = 6;
glyphname = Ocircumflexgrave;
lastChange = "2018-03-27 03:45:49 +0000";
layers = (
{
background = {
paths = (
{
closed = 1;
nodes = (
"601 -10 OFFCURVE",
"719 124 OFFCURVE",
"719 350 CURVE SMOOTH",
"719 574 OFFCURVE",
"601 710 OFFCURVE",
"378 710 CURVE SMOOTH",
"154 710 OFFCURVE",
"36 574 OFFCURVE",
"36 350 CURVE SMOOTH",
"36 124 OFFCURVE",
"154 -10 OFFCURVE",
"378 -10 CURVE SMOOTH"
);
},
{
closed = 1;
nodes = (
"215 32 OFFCURVE",
"135 158 OFFCURVE",
"135 350 CURVE SMOOTH",
"135 541 OFFCURVE",
"215 668 OFFCURVE",
"377 668 CURVE SMOOTH",
"541 668 OFFCURVE",
"620 541 OFFCURVE",
"620 350 CURVE SMOOTH",
"620 158 OFFCURVE",
"541 32 OFFCURVE",
"377 32 CURVE SMOOTH"
);
},
{
closed = 1;
nodes = (
"285 914 LINE",
"190 1007 LINE SMOOTH",
"180 1017 OFFCURVE",
"163 1033 OFFCURVE",
"143 1033 CURVE SMOOTH",
"121 1033 OFFCURVE",
"110 1016 OFFCURVE",
"110 1002 CURVE SMOOTH",
"110 987 OFFCURVE",
"123 971 OFFCURVE",
"146 959 CURVE SMOOTH",
"268 892 LINE"
);
},
{
closed = 1;
nodes = (
"348 861 LINE SMOOTH",
"358 869 OFFCURVE",
"368 877 OFFCURVE",
"376 877 CURVE SMOOTH",
"382 877 OFFCURVE",
"390 872 OFFCURVE",
"399 866 CURVE",
"505 780 LINE",
"524 802 LINE",
"402 931 LINE",
"351 931 LINE",
"229 802 LINE",
"247 780 LINE"
);
}
);
};
components = (
{
name = O;
},
{
name = circumflexgrave;
transform = "{1, 0, 0, 1, 576, 230}";
}
);
layerId = "0B1DFD06-3317-40CA-B510-4969A0718C16";
width = 652;
}
);
leftKerningGroup = O;
note = Ocircumflexgrave;
rightKerningGroup = O;
unicode = 1ED2;
},
{
color = 6;
glyphname = Ocircumflexhookabove;
lastChange = "2018-03-27 05:14:20 +0000";
layers = (
{
background = {
paths = (
{
closed = 1;
nodes = (
"601 -10 OFFCURVE",
"719 124 OFFCURVE",
"719 350 CURVE SMOOTH",
"719 574 OFFCURVE",
"601 710 OFFCURVE",
"378 710 CURVE SMOOTH",
"154 710 OFFCURVE",
"36 574 OFFCURVE",
"36 350 CURVE SMOOTH",
"36 124 OFFCURVE",
"154 -10 OFFCURVE",
"378 -10 CURVE SMOOTH"
);
},
{
closed = 1;
nodes = (
"215 32 OFFCURVE",
"135 158 OFFCURVE",
"135 350 CURVE SMOOTH",
"135 541 OFFCURVE",
"215 668 OFFCURVE",
"377 668 CURVE SMOOTH",
"541 668 OFFCURVE",
"620 541 OFFCURVE",
"620 350 CURVE SMOOTH",
"620 158 OFFCURVE",
"541 32 OFFCURVE",
"377 32 CURVE SMOOTH"
);
},
{
closed = 1;
nodes = (
"344 858 LINE",
"355 868 OFFCURVE",
"367 878 OFFCURVE",
"376 878 CURVE SMOOTH",
"382 878 OFFCURVE",
"390 873 OFFCURVE",
"399 867 CURVE",
"505 781 LINE",
"524 803 LINE",
"402 932 LINE",
"351 932 LINE",
"229 803 LINE",
"247 781 LINE"
);
},
{
closed = 1;
nodes = (
"551 898 LINE",
"532 905 OFFCURVE",
"522 912 OFFCURVE",
"522 926 CURVE SMOOTH",
"522 954 OFFCURVE",
"602 965 OFFCURVE",
"602 1010 CURVE SMOOTH",
"602 1047 OFFCURVE",
"560 1063 OFFCURVE",
"518 1063 CURVE SMOOTH",
"487 1063 OFFCURVE",
"442 1053 OFFCURVE",
"442 1022 CURVE SMOOTH",
"442 1010 OFFCURVE",
"453 1001 OFFCURVE",
"463 1001 CURVE SMOOTH",
"492 1001 OFFCURVE",
"479 1040 OFFCURVE",
"522 1040 CURVE SMOOTH",
"541 1040 OFFCURVE",
"552 1028 OFFCURVE",
"552 1013 CURVE SMOOTH",
"552 973 OFFCURVE",
"479 965 OFFCURVE",
"479 925 CURVE SMOOTH",
"479 901 OFFCURVE",
"495 880 OFFCURVE",
"542 880 CURVE"
);
}
);
};
components = (
{
name = O;
},
{
name = circumflexhookabove;
transform = "{1, 0, 0, 1, 576, 230}";
}
);
layerId = "0B1DFD06-3317-40CA-B510-4969A0718C16";
width = 652;
}
);
leftKerningGroup = O;
note = Ocircumflexhookabove;
rightKerningGroup = O;
unicode = 1ED4;
},
{
color = 6;
glyphname = Ocircumflextilde;
lastChange = "2018-03-27 04:49:36 +0000";
layers = (
{
background = {
paths = (
{
closed = 1;
nodes = (
"601 -10 OFFCURVE",
"719 124 OFFCURVE",
"719 350 CURVE SMOOTH",
"719 574 OFFCURVE",
"601 710 OFFCURVE",
"378 710 CURVE SMOOTH",
"154 710 OFFCURVE",
"36 574 OFFCURVE",
"36 350 CURVE SMOOTH",
"36 124 OFFCURVE",
"154 -10 OFFCURVE",
"378 -10 CURVE SMOOTH"
);
},
{
closed = 1;
nodes = (
"215 32 OFFCURVE",
"135 158 OFFCURVE",
"135 350 CURVE SMOOTH",
"135 541 OFFCURVE",
"215 668 OFFCURVE",
"377 668 CURVE SMOOTH",
"541 668 OFFCURVE",
"620 541 OFFCURVE",
"620 350 CURVE SMOOTH",
"620 158 OFFCURVE",
"541 32 OFFCURVE",
"377 32 CURVE SMOOTH"
);
},
{
closed = 1;
nodes = (
"348 862 LINE SMOOTH",
"358 870 OFFCURVE",
"368 878 OFFCURVE",
"376 878 CURVE SMOOTH",
"382 878 OFFCURVE",
"390 873 OFFCURVE",
"399 867 CURVE",
"505 781 LINE",
"524 803 LINE",
"402 932 LINE",
"351 932 LINE",
"229 803 LINE",
"247 781 LINE"
);
},
{
closed = 1;
nodes = (
"251 997 OFFCURVE",
"269 1018 OFFCURVE",
"300 1018 CURVE SMOOTH",
"349 1018 OFFCURVE",
"396 964 OFFCURVE",
"445 964 CURVE SMOOTH",
"498 964 OFFCURVE",
"527 1012 OFFCURVE",
"539 1063 CURVE",
"518 1075 LINE",
"505 1035 OFFCURVE",
"489 1012 OFFCURVE",
"456 1012 CURVE SMOOTH",
"409 1012 OFFCURVE",
"360 1065 OFFCURVE",
"311 1065 CURVE SMOOTH",
"260 1065 OFFCURVE",
"228 1021 OFFCURVE",
"218 970 CURVE",
"238 958 LINE"
);
}
);
};
components = (
{
name = O;
},
{
name = circumflextilde;
transform = "{1, 0, 0, 1, 576, 230}";
}
);
layerId = "0B1DFD06-3317-40CA-B510-4969A0718C16";
width = 652;
}
);
leftKerningGroup = O;
note = Ocircumflextilde;
rightKerningGroup = O;
unicode = 1ED6;
},
{
color = 6;
glyphname = Odieresis;
lastChange = "2018-03-25 03:37:32 +0000";
layers = (
{
background = {
paths = (
{
closed = 1;
nodes = (
"601 -10 OFFCURVE",
"719 124 OFFCURVE",
"719 350 CURVE SMOOTH",
"719 574 OFFCURVE",
"601 710 OFFCURVE",
"378 710 CURVE SMOOTH",
"154 710 OFFCURVE",
"36 574 OFFCURVE",
"36 350 CURVE SMOOTH",
"36 124 OFFCURVE",
"154 -10 OFFCURVE",
"378 -10 CURVE SMOOTH"
);
},
{
closed = 1;
nodes = (
"215 32 OFFCURVE",
"135 158 OFFCURVE",
"135 350 CURVE SMOOTH",
"135 541 OFFCURVE",
"215 668 OFFCURVE",
"377 668 CURVE SMOOTH",
"541 668 OFFCURVE",
"620 541 OFFCURVE",
"620 350 CURVE SMOOTH",
"620 158 OFFCURVE",
"541 32 OFFCURVE",
"377 32 CURVE SMOOTH"
);
},
{
closed = 1;
nodes = (
"298 781 OFFCURVE",
"316 800 OFFCURVE",
"316 827 CURVE SMOOTH",
"316 855 OFFCURVE",
"298 875 OFFCURVE",
"269 875 CURVE SMOOTH",
"241 875 OFFCURVE",
"223 855 OFFCURVE",
"223 827 CURVE SMOOTH",
"223 800 OFFCURVE",
"241 781 OFFCURVE",
"269 781 CURVE SMOOTH"
);
},
{
closed = 1;
nodes = (
"514 781 OFFCURVE",
"532 800 OFFCURVE",
"532 827 CURVE SMOOTH",
"532 855 OFFCURVE",
"514 875 OFFCURVE",
"485 875 CURVE SMOOTH",
"456 875 OFFCURVE",
"438 855 OFFCURVE",
"438 827 CURVE SMOOTH",
"438 800 OFFCURVE",
"456 781 OFFCURVE",
"485 781 CURVE SMOOTH"
);
}
);
};
components = (
{
name = O;
},
{
name = dieresiscomb;
transform = "{1, 0, 0, 1, 327, 230}";
}
);
layerId = "0B1DFD06-3317-40CA-B510-4969A0718C16";
width = 652;
}
);
leftKerningGroup = O;
note = Odieresis;
rightKerningGroup = O;
unicode = 00D6;
},
{
color = 6;
glyphname = Odotbelow;
lastChange = "2018-03-27 04:01:14 +0000";
layers = (
{
background = {
paths = (
{
closed = 1;
nodes = (
"36 124 OFFCURVE",
"154 -10 OFFCURVE",
"378 -10 CURVE SMOOTH",
"601 -10 OFFCURVE",
"719 124 OFFCURVE",
"719 350 CURVE SMOOTH",
"719 574 OFFCURVE",
"601 710 OFFCURVE",
"378 710 CURVE SMOOTH",
"154 710 OFFCURVE",
"36 574 OFFCURVE",
"36 350 CURVE SMOOTH"
);
},
{
closed = 1;
nodes = (
"135 541 OFFCURVE",
"215 668 OFFCURVE",
"377 668 CURVE SMOOTH",
"541 668 OFFCURVE",
"620 541 OFFCURVE",
"620 350 CURVE SMOOTH",
"620 158 OFFCURVE",
"541 32 OFFCURVE",
"377 32 CURVE SMOOTH",
"215 32 OFFCURVE",
"135 158 OFFCURVE",
"135 350 CURVE SMOOTH"
);
},
{
closed = 1;
nodes = (
"330 -140 OFFCURVE",
"349 -159 OFFCURVE",
"377 -159 CURVE SMOOTH",
"405 -159 OFFCURVE",
"423 -140 OFFCURVE",
"423 -112 CURVE SMOOTH",
"423 -84 OFFCURVE",
"405 -64 OFFCURVE",
"377 -64 CURVE SMOOTH",
"349 -64 OFFCURVE",
"330 -84 OFFCURVE",
"330 -112 CURVE SMOOTH"
);
}
);
};
components = (
{
name = O;
},
{
name = dotbelowcomb;
transform = "{1, 0, 0, 1, 327, 0}";
}
);
layerId = "0B1DFD06-3317-40CA-B510-4969A0718C16";
width = 652;
}
);
leftKerningGroup = O;
note = Odotbelow;
rightKerningGroup = O;
unicode = 1ECC;
},
{
color = 6;
glyphname = Ograve;
lastChange = "2018-03-24 02:22:22 +0000";
layers = (
{
background = {
paths = (
{
closed = 1;
nodes = (
"601 -10 OFFCURVE",
"719 124 OFFCURVE",
"719 350 CURVE SMOOTH",
"719 574 OFFCURVE",
"601 710 OFFCURVE",
"378 710 CURVE SMOOTH",
"154 710 OFFCURVE",
"36 574 OFFCURVE",
"36 350 CURVE SMOOTH",
"36 124 OFFCURVE",
"154 -10 OFFCURVE",
"378 -10 CURVE SMOOTH"
);
},
{
closed = 1;
nodes = (
"215 32 OFFCURVE",
"135 158 OFFCURVE",
"135 350 CURVE SMOOTH",
"135 541 OFFCURVE",
"215 668 OFFCURVE",
"377 668 CURVE SMOOTH",
"541 668 OFFCURVE",
"620 541 OFFCURVE",
"620 350 CURVE SMOOTH",
"620 158 OFFCURVE",
"541 32 OFFCURVE",
"377 32 CURVE SMOOTH"
);
},
{
closed = 1;
nodes = (
"459 807 LINE",
"344 913 LINE",
"335 922 OFFCURVE",
"319 937 OFFCURVE",
"299 937 CURVE SMOOTH",
"279 937 OFFCURVE",
"267 924 OFFCURVE",
"267 908 CURVE SMOOTH",
"267 890 OFFCURVE",
"279 876 OFFCURVE",
"298 865 CURVE SMOOTH",
"441 782 LINE"
);
}
);
};
components = (
{
name = O;
},
{
name = gravecomb;
transform = "{1, 0, 0, 1, 260, 230}";
}
);
layerId = "0B1DFD06-3317-40CA-B510-4969A0718C16";
width = 652;
}
);
leftKerningGroup = O;
note = Ograve;
rightKerningGroup = O;
unicode = 00D2;
},
{
color = 6;
glyphname = Ohookabove;
lastChange = "2018-03-27 05:10:21 +0000";
layers = (
{
background = {
paths = (
{
closed = 1;
nodes = (
"601 -10 OFFCURVE",
"719 124 OFFCURVE",
"719 350 CURVE SMOOTH",
"719 574 OFFCURVE",
"601 710 OFFCURVE",
"378 710 CURVE SMOOTH",
"154 710 OFFCURVE",
"36 574 OFFCURVE",
"36 350 CURVE SMOOTH",
"36 124 OFFCURVE",
"154 -10 OFFCURVE",
"378 -10 CURVE SMOOTH"
);
},
{
closed = 1;
nodes = (
"215 32 OFFCURVE",
"135 158 OFFCURVE",
"135 350 CURVE SMOOTH",
"135 541 OFFCURVE",
"215 668 OFFCURVE",
"377 668 CURVE SMOOTH",
"541 668 OFFCURVE",
"620 541 OFFCURVE",
"620 350 CURVE SMOOTH",
"620 158 OFFCURVE",
"541 32 OFFCURVE",
"377 32 CURVE SMOOTH"
);
},
{
closed = 1;
nodes = (
"407 798 LINE",
"388 805 OFFCURVE",
"376 811 OFFCURVE",
"376 828 CURVE SMOOTH",
"376 861 OFFCURVE",
"465 876 OFFCURVE",
"465 927 CURVE SMOOTH",
"465 969 OFFCURVE",
"429 991 OFFCURVE",
"376 991 CURVE SMOOTH",
"329 991 OFFCURVE",
"288 974 OFFCURVE",
"288 940 CURVE SMOOTH",
"288 923 OFFCURVE",
"296 915 OFFCURVE",
"311 915 CURVE SMOOTH",
"334 915 OFFCURVE",
"336 934 OFFCURVE",
"339 942 CURVE SMOOTH",
"344 956 OFFCURVE",
"361 962 OFFCURVE",
"377 962 CURVE SMOOTH",
"398 962 OFFCURVE",
"411 947 OFFCURVE",
"411 930 CURVE SMOOTH",
"411 885 OFFCURVE",
"329 874 OFFCURVE",
"329 828 CURVE SMOOTH",
"329 801 OFFCURVE",
"347 778 OFFCURVE",
"398 778 CURVE"
);
}
);
};
components = (
{
name = O;
},
{
name = hookabovecomb;
transform = "{1, 0, 0, 1, 66, 230}";
}
);
layerId = "0B1DFD06-3317-40CA-B510-4969A0718C16";
width = 652;
}
);
leftKerningGroup = O;
note = Ohookabove;
rightKerningGroup = O;
unicode = 1ECE;
},
{
color = 6;
glyphname = Ohornacute;
lastChange = "2018-03-27 05:22:38 +0000";
layers = (
{
background = {
paths = (
{
closed = 1;
nodes = (
"602 -10 OFFCURVE",
"720 124 OFFCURVE",
"720 350 CURVE SMOOTH",
"720 574 OFFCURVE",
"602 710 OFFCURVE",
"379 710 CURVE SMOOTH",
"155 710 OFFCURVE",
"37 574 OFFCURVE",
"37 350 CURVE SMOOTH",
"37 124 OFFCURVE",
"155 -10 OFFCURVE",
"379 -10 CURVE SMOOTH"
);
},
{
closed = 1;
nodes = (
"216 32 OFFCURVE",
"136 158 OFFCURVE",
"136 350 CURVE SMOOTH",
"136 541 OFFCURVE",
"216 668 OFFCURVE",
"378 668 CURVE SMOOTH",
"542 668 OFFCURVE",
"621 541 OFFCURVE",
"621 350 CURVE SMOOTH",
"621 158 OFFCURVE",
"542 32 OFFCURVE",
"378 32 CURVE SMOOTH"
);
},
{
closed = 1;
nodes = (
"424 864 LINE SMOOTH",
"446 876 OFFCURVE",
"458 889 OFFCURVE",
"458 906 CURVE SMOOTH",
"458 921 OFFCURVE",
"446 936 OFFCURVE",
"424 936 CURVE SMOOTH",
"403 936 OFFCURVE",
"388 920 OFFCURVE",
"380 913 CURVE SMOOTH",
"265 806 LINE",
"282 781 LINE"
);
},
{
closed = 1;
nodes = (
"691 567 OFFCURVE",
"756 632 OFFCURVE",
"756 705 CURVE SMOOTH",
"756 752 OFFCURVE",
"729 772 OFFCURVE",
"701 772 CURVE SMOOTH",
"672 772 OFFCURVE",
"656 752 OFFCURVE",
"656 729 CURVE SMOOTH",
"656 695 OFFCURVE",
"689 688 OFFCURVE",
"689 653 CURVE SMOOTH",
"689 617 OFFCURVE",
"658 588 OFFCURVE",
"623 568 CURVE",
"623 543 LINE"
);
}
);
};
components = (
{
name = Ohorn;
},
{
name = acutecomb;
transform = "{1, 0, 0, 1, 357, 230}";
}
);
layerId = "0B1DFD06-3317-40CA-B510-4969A0718C16";
width = 652;
}
);
leftKerningGroup = O;
note = Ohornacute;
rightKerningGroup = O;
unicode = 1EDA;
},
{
color = 6;
glyphname = Ohorndotbelow;
lastChange = "2018-03-27 05:22:50 +0000";
layers = (
{
background = {
paths = (
{
closed = 1;
nodes = (
"602 -10 OFFCURVE",
"720 124 OFFCURVE",
"720 350 CURVE SMOOTH",
"720 574 OFFCURVE",
"602 710 OFFCURVE",
"379 710 CURVE SMOOTH",
"155 710 OFFCURVE",
"37 574 OFFCURVE",
"37 350 CURVE SMOOTH",
"37 124 OFFCURVE",
"155 -10 OFFCURVE",
"379 -10 CURVE SMOOTH"
);
},
{
closed = 1;
nodes = (
"216 32 OFFCURVE",
"136 158 OFFCURVE",
"136 350 CURVE SMOOTH",
"136 541 OFFCURVE",
"216 668 OFFCURVE",
"378 668 CURVE SMOOTH",
"542 668 OFFCURVE",
"621 541 OFFCURVE",
"621 350 CURVE SMOOTH",
"621 158 OFFCURVE",
"542 32 OFFCURVE",
"378 32 CURVE SMOOTH"
);
},
{
closed = 1;
nodes = (
"691 567 OFFCURVE",
"756 632 OFFCURVE",
"756 705 CURVE SMOOTH",
"756 752 OFFCURVE",
"729 772 OFFCURVE",
"701 772 CURVE SMOOTH",
"672 772 OFFCURVE",
"656 752 OFFCURVE",
"656 729 CURVE SMOOTH",
"656 695 OFFCURVE",
"689 688 OFFCURVE",
"689 653 CURVE SMOOTH",
"689 617 OFFCURVE",
"658 588 OFFCURVE",
"623 568 CURVE",
"623 543 LINE"
);
},
{
closed = 1;
nodes = (
"395 -159 OFFCURVE",
"413 -140 OFFCURVE",
"413 -112 CURVE SMOOTH",
"413 -84 OFFCURVE",
"395 -64 OFFCURVE",
"367 -64 CURVE SMOOTH",
"339 -64 OFFCURVE",
"320 -84 OFFCURVE",
"320 -112 CURVE SMOOTH",
"320 -140 OFFCURVE",
"339 -159 OFFCURVE",
"367 -159 CURVE SMOOTH"
);
}
);
};
components = (
{
name = Ohorn;
},
{
name = dotbelowcomb;
transform = "{1, 0, 0, 1, 327, 0}";
}
);
layerId = "0B1DFD06-3317-40CA-B510-4969A0718C16";
width = 652;
}
);
leftKerningGroup = O;
note = Ohorndotbelow;
rightKerningGroup = O;
unicode = 1EE2;
},
{
color = 6;
glyphname = Ohorngrave;
lastChange = "2018-03-27 05:23:32 +0000";
layers = (
{
background = {
paths = (
{
closed = 1;
nodes = (
"602 -10 OFFCURVE",
"720 124 OFFCURVE",
"720 350 CURVE SMOOTH",
"720 574 OFFCURVE",
"602 710 OFFCURVE",
"379 710 CURVE SMOOTH",
"155 710 OFFCURVE",
"37 574 OFFCURVE",
"37 350 CURVE SMOOTH",
"37 124 OFFCURVE",
"155 -10 OFFCURVE",
"379 -10 CURVE SMOOTH"
);
},
{
closed = 1;
nodes = (
"216 32 OFFCURVE",
"136 158 OFFCURVE",
"136 350 CURVE SMOOTH",
"136 541 OFFCURVE",
"216 668 OFFCURVE",
"378 668 CURVE SMOOTH",
"542 668 OFFCURVE",
"621 541 OFFCURVE",
"621 350 CURVE SMOOTH",
"621 158 OFFCURVE",
"542 32 OFFCURVE",
"378 32 CURVE SMOOTH"
);
},
{
closed = 1;
nodes = (
"464 816 LINE",
"349 922 LINE",
"340 931 OFFCURVE",
"324 946 OFFCURVE",
"304 946 CURVE SMOOTH",
"284 946 OFFCURVE",
"272 933 OFFCURVE",
"272 917 CURVE SMOOTH",
"272 899 OFFCURVE",
"284 885 OFFCURVE",
"303 874 CURVE SMOOTH",
"446 791 LINE"
);
},
{
closed = 1;
nodes = (
"691 567 OFFCURVE",
"756 632 OFFCURVE",
"756 705 CURVE SMOOTH",
"756 752 OFFCURVE",
"729 772 OFFCURVE",
"701 772 CURVE SMOOTH",
"672 772 OFFCURVE",
"656 752 OFFCURVE",
"656 729 CURVE SMOOTH",
"656 695 OFFCURVE",
"689 688 OFFCURVE",
"689 653 CURVE SMOOTH",
"689 617 OFFCURVE",
"658 588 OFFCURVE",
"623 568 CURVE",
"623 543 LINE"
);
}
);
};
components = (
{
name = Ohorn;
},
{
name = gravecomb;
transform = "{1, 0, 0, 1, 260, 230}";
}
);
layerId = "0B1DFD06-3317-40CA-B510-4969A0718C16";
width = 652;
}
);
leftKerningGroup = O;
note = Ohorngrave;
rightKerningGroup = O;
unicode = 1EDC;
},
{
color = 6;
glyphname = Ohornhookabove;
lastChange = "2018-03-27 05:23:32 +0000";
layers = (
{
background = {
paths = (
{
closed = 1;
nodes = (
"602 -10 OFFCURVE",
"720 124 OFFCURVE",
"720 350 CURVE SMOOTH",
"720 574 OFFCURVE",
"602 710 OFFCURVE",
"379 710 CURVE SMOOTH",
"155 710 OFFCURVE",
"37 574 OFFCURVE",
"37 350 CURVE SMOOTH",
"37 124 OFFCURVE",
"155 -10 OFFCURVE",
"379 -10 CURVE SMOOTH"
);
},
{
closed = 1;
nodes = (
"216 32 OFFCURVE",
"136 158 OFFCURVE",
"136 350 CURVE SMOOTH",
"136 541 OFFCURVE",
"216 668 OFFCURVE",
"378 668 CURVE SMOOTH",
"542 668 OFFCURVE",
"621 541 OFFCURVE",
"621 350 CURVE SMOOTH",
"621 158 OFFCURVE",
"542 32 OFFCURVE",
"378 32 CURVE SMOOTH"
);
},
{
closed = 1;
nodes = (
"412 809 LINE",
"393 816 OFFCURVE",
"381 822 OFFCURVE",
"381 839 CURVE SMOOTH",
"381 872 OFFCURVE",
"470 887 OFFCURVE",
"470 938 CURVE SMOOTH",
"470 980 OFFCURVE",
"434 1002 OFFCURVE",
"381 1002 CURVE SMOOTH",
"334 1002 OFFCURVE",
"293 985 OFFCURVE",
"293 951 CURVE SMOOTH",
"293 934 OFFCURVE",
"301 926 OFFCURVE",
"316 926 CURVE SMOOTH",
"339 926 OFFCURVE",
"341 945 OFFCURVE",
"344 953 CURVE SMOOTH",
"349 967 OFFCURVE",
"366 973 OFFCURVE",
"382 973 CURVE SMOOTH",
"403 973 OFFCURVE",
"416 958 OFFCURVE",
"416 941 CURVE SMOOTH",
"416 896 OFFCURVE",
"334 885 OFFCURVE",
"334 839 CURVE SMOOTH",
"334 812 OFFCURVE",
"352 789 OFFCURVE",
"403 789 CURVE"
);
},
{
closed = 1;
nodes = (
"691 567 OFFCURVE",
"756 632 OFFCURVE",
"756 705 CURVE SMOOTH",
"756 752 OFFCURVE",
"729 772 OFFCURVE",
"701 772 CURVE SMOOTH",
"672 772 OFFCURVE",
"656 752 OFFCURVE",
"656 729 CURVE SMOOTH",
"656 695 OFFCURVE",
"689 688 OFFCURVE",
"689 653 CURVE SMOOTH",
"689 617 OFFCURVE",
"658 588 OFFCURVE",
"623 568 CURVE",
"623 543 LINE"
);
}
);
};
components = (
{
name = Ohorn;
},
{
name = hookabovecomb;
transform = "{1, 0, 0, 1, 66, 230}";
}
);
layerId = "0B1DFD06-3317-40CA-B510-4969A0718C16";
width = 652;
}
);
leftKerningGroup = O;
note = Ohornhookabove;
rightKerningGroup = O;
unicode = 1EDE;
},
{
color = 6;
glyphname = Ohorntilde;
lastChange = "2018-03-27 05:23:32 +0000";
layers = (
{
background = {
paths = (
{
closed = 1;
nodes = (
"602 -10 OFFCURVE",
"720 124 OFFCURVE",
"720 350 CURVE SMOOTH",
"720 574 OFFCURVE",
"602 710 OFFCURVE",
"379 710 CURVE SMOOTH",
"155 710 OFFCURVE",
"37 574 OFFCURVE",
"37 350 CURVE SMOOTH",
"37 124 OFFCURVE",
"155 -10 OFFCURVE",
"379 -10 CURVE SMOOTH"
);
},
{
closed = 1;
nodes = (
"216 32 OFFCURVE",
"136 158 OFFCURVE",
"136 350 CURVE SMOOTH",
"136 541 OFFCURVE",
"216 668 OFFCURVE",
"378 668 CURVE SMOOTH",
"542 668 OFFCURVE",
"621 541 OFFCURVE",
"621 350 CURVE SMOOTH",
"621 158 OFFCURVE",
"542 32 OFFCURVE",
"378 32 CURVE SMOOTH"
);
},
{
closed = 1;
nodes = (
"234 828 OFFCURVE",
"252 849 OFFCURVE",
"285 849 CURVE SMOOTH",
"336 849 OFFCURVE",
"385 795 OFFCURVE",
"436 795 CURVE SMOOTH",
"494 795 OFFCURVE",
"524 843 OFFCURVE",
"536 895 CURVE",
"515 906 LINE",
"499 866 OFFCURVE",
"483 844 OFFCURVE",
"449 844 CURVE SMOOTH",
"400 844 OFFCURVE",
"348 897 OFFCURVE",
"297 897 CURVE SMOOTH",
"243 897 OFFCURVE",
"210 853 OFFCURVE",
"198 801 CURVE",
"220 790 LINE"
);
},
{
closed = 1;
nodes = (
"691 567 OFFCURVE",
"756 632 OFFCURVE",
"756 705 CURVE SMOOTH",
"756 752 OFFCURVE",
"729 772 OFFCURVE",
"701 772 CURVE SMOOTH",
"672 772 OFFCURVE",
"656 752 OFFCURVE",
"656 729 CURVE SMOOTH",
"656 695 OFFCURVE",
"689 688 OFFCURVE",
"689 653 CURVE SMOOTH",
"689 617 OFFCURVE",
"658 588 OFFCURVE",
"623 568 CURVE",
"623 543 LINE"
);
}
);
};
components = (
{
name = Ohorn;
},
{
name = tildecomb;
transform = "{1, 0, 0, 1, 326, 230}";
}
);
layerId = "0B1DFD06-3317-40CA-B510-4969A0718C16";
width = 652;
}
);
leftKerningGroup = O;
note = Ohorntilde;
rightKerningGroup = O;
unicode = 1EE0;
},
{
color = 6;
glyphname = Ohungarumlaut;
lastChange = "2018-03-25 03:48:46 +0000";
layers = (
{
background = {
paths = (
{
closed = 1;
nodes = (
"601 -10 OFFCURVE",
"719 124 OFFCURVE",
"719 350 CURVE SMOOTH",
"719 574 OFFCURVE",
"601 710 OFFCURVE",
"378 710 CURVE SMOOTH",
"154 710 OFFCURVE",
"36 574 OFFCURVE",
"36 350 CURVE SMOOTH",
"36 124 OFFCURVE",
"154 -10 OFFCURVE",
"378 -10 CURVE SMOOTH"
);
},
{
closed = 1;
nodes = (
"215 32 OFFCURVE",
"135 158 OFFCURVE",
"135 350 CURVE SMOOTH",
"135 541 OFFCURVE",
"215 668 OFFCURVE",
"377 668 CURVE SMOOTH",
"541 668 OFFCURVE",
"620 541 OFFCURVE",
"620 350 CURVE SMOOTH",
"620 158 OFFCURVE",
"541 32 OFFCURVE",
"377 32 CURVE SMOOTH"
);
},
{
closed = 1;
nodes = (
"395 864 LINE SMOOTH",
"417 877 OFFCURVE",
"429 891 OFFCURVE",
"429 908 CURVE SMOOTH",
"429 922 OFFCURVE",
"421 937 OFFCURVE",
"399 937 CURVE SMOOTH",
"378 937 OFFCURVE",
"357 919 OFFCURVE",
"350 913 CURVE",
"236 807 LINE",
"253 782 LINE"
);
},
{
closed = 1;
nodes = (
"556 864 LINE SMOOTH",
"577 877 OFFCURVE",
"589 891 OFFCURVE",
"589 908 CURVE SMOOTH",
"589 922 OFFCURVE",
"578 937 OFFCURVE",
"556 937 CURVE SMOOTH",
"534 937 OFFCURVE",
"517 919 OFFCURVE",
"510 913 CURVE",
"396 807 LINE",
"414 782 LINE"
);
}
);
};
components = (
{
name = O;
},
{
name = hungarumlautcomb;
transform = "{1, 0, 0, 1, 326, 230}";
}
);
layerId = "0B1DFD06-3317-40CA-B510-4969A0718C16";
width = 652;
}
);
leftKerningGroup = O;
note = Ohungarumlaut;
rightKerningGroup = O;
unicode = 0150;
},
{
color = 6;
glyphname = Omacron;
lastChange = "2018-03-27 04:15:15 +0000";
layers = (
{
background = {
paths = (
{
closed = 1;
nodes = (
"601 -10 OFFCURVE",
"719 124 OFFCURVE",
"719 350 CURVE SMOOTH",
"719 574 OFFCURVE",
"601 710 OFFCURVE",
"378 710 CURVE SMOOTH",
"154 710 OFFCURVE",
"36 574 OFFCURVE",
"36 350 CURVE SMOOTH",
"36 124 OFFCURVE",
"154 -10 OFFCURVE",
"378 -10 CURVE SMOOTH"
);
},
{
closed = 1;
nodes = (
"215 32 OFFCURVE",
"135 158 OFFCURVE",
"135 350 CURVE SMOOTH",
"135 541 OFFCURVE",
"215 668 OFFCURVE",
"377 668 CURVE SMOOTH",
"541 668 OFFCURVE",
"620 541 OFFCURVE",
"620 350 CURVE SMOOTH",
"620 158 OFFCURVE",
"541 32 OFFCURVE",
"377 32 CURVE SMOOTH"
);
},
{
closed = 1;
nodes = (
"543 793 LINE",
"543 835 LINE",
"210 835 LINE",
"210 793 LINE"
);
}
);
};
components = (
{
name = O;
},
{
name = macroncomb;
transform = "{1, 0, 0, 1, 326, 230}";
}
);
layerId = "0B1DFD06-3317-40CA-B510-4969A0718C16";
width = 652;
}
);
leftKerningGroup = O;
note = Omacron;
rightKerningGroup = O;
unicode = 014C;
},
{
color = 6;
glyphname = Oslash;
lastChange = "2018-03-28 04:11:16 +0000";
layers = (
{
anchors = (
{
name = bottom;
position = "{326, 0}";
},
{
name = center;
position = "{326, 350}";
},
{
name = ogonek;
position = "{587, 10}";
},
{
name = top;
position = "{326, 700}";
},
{
name = topleft;
position = "{20, 700}";
},
{
name = topright;
position = "{496, 584}";
}
);
layerId = "0B1DFD06-3317-40CA-B510-4969A0718C16";
paths = (
{
closed = 1;
nodes = (
"76 -46 LINE",
"121 -71 LINE",
"574 746 LINE",
"529 771 LINE"
);
},
{
closed = 1;
nodes = (
"597 568 OFFCURVE",
"508 710 OFFCURVE",
"326 710 CURVE SMOOTH",
"144 710 OFFCURVE",
"55 568 OFFCURVE",
"55 350 CURVE SMOOTH",
"55 132 OFFCURVE",
"144 -10 OFFCURVE",
"326 -10 CURVE SMOOTH",
"508 -10 OFFCURVE",
"597 132 OFFCURVE",
"597 350 CURVE SMOOTH"
);
},
{
closed = 1;
nodes = (
"541 178 OFFCURVE",
"486 39 OFFCURVE",
"326 39 CURVE SMOOTH",
"166 39 OFFCURVE",
"111 178 OFFCURVE",
"111 350 CURVE SMOOTH",
"111 522 OFFCURVE",
"166 661 OFFCURVE",
"326 661 CURVE SMOOTH",
"486 661 OFFCURVE",
"541 522 OFFCURVE",
"541 350 CURVE SMOOTH"
);
}
);
width = 652;
}
);
note = Oslash;
unicode = 00D8;
},
{
color = 6;
glyphname = OE;
lastChange = "2018-03-27 04:59:59 +0000";
layers = (
{
anchors = (
{
name = bottom;
position = "{321, 0}";
},
{
name = center;
position = "{321, 350}";
},
{
name = ogonek;
position = "{582, 10}";
},
{
name = top;
position = "{321, 700}";
},
{
name = topleft;
position = "{15, 700}";
},
{
name = topright;
position = "{627, 700}";
}
);
layerId = "0B1DFD06-3317-40CA-B510-4969A0718C16";
paths = (
{
closed = 1;
nodes = (
"55 132 OFFCURVE",
"144 -10 OFFCURVE",
"326 -10 CURVE SMOOTH",
"426 -10 OFFCURVE",
"497 37 OFFCURVE",
"537 111 CURVE",
"537 0 LINE",
"908 0 LINE",
"908 46 LINE",
"589 46 LINE",
"590 344 LINE",
"815 344 LINE",
"815 390 LINE",
"589 390 LINE",
"589 654 LINE",
"899 654 LINE",
"899 700 LINE",
"572 700 LINE",
"565 709 OFFCURVE",
"553 718 OFFCURVE",
"547 718 CURVE SMOOTH",
"528 718 OFFCURVE",
"515 696 OFFCURVE",
"512 687 CURVE",
"507 669 OFFCURVE",
"537 666 OFFCURVE",
"537 631 CURVE SMOOTH",
"537 589 LINE",
"497 663 OFFCURVE",
"426 710 OFFCURVE",
"326 710 CURVE SMOOTH",
"144 710 OFFCURVE",
"55 568 OFFCURVE",
"55 350 CURVE SMOOTH"
);
},
{
closed = 1;
nodes = (
"111 522 OFFCURVE",
"166 661 OFFCURVE",
"326 661 CURVE SMOOTH",
"486 661 OFFCURVE",
"541 522 OFFCURVE",
"541 350 CURVE SMOOTH",
"541 178 OFFCURVE",
"486 39 OFFCURVE",
"326 39 CURVE SMOOTH",
"166 39 OFFCURVE",
"111 178 OFFCURVE",
"111 350 CURVE SMOOTH"
);
}
);
width = 963;
}
);
note = OE;
unicode = 0152;
},
{
color = 6;
glyphname = Thorn;
lastChange = "2018-03-27 05:02:05 +0000";
layers = (
{
anchors = (
{
name = bottom;
position = "{286, 0}";
},
{
name = top;
position = "{286, 700}";
}
);
layerId = "0B1DFD06-3317-40CA-B510-4969A0718C16";
paths = (
{
closed = 1;
nodes = (
"80 0 LINE",
"134 0 LINE",
"134 136 LINE",
"266 136 LINE SMOOTH",
"404 136 OFFCURVE",
"517 191 OFFCURVE",
"517 350 CURVE SMOOTH",
"517 509 OFFCURVE",
"404 564 OFFCURVE",
"266 564 CURVE SMOOTH",
"134 564 LINE",
"134 700 LINE",
"80 700 LINE"
);
},
{
closed = 1;
nodes = (
"263 519 LINE SMOOTH",
"394 519 OFFCURVE",
"461 464 OFFCURVE",
"461 350 CURVE SMOOTH",
"461 236 OFFCURVE",
"394 181 OFFCURVE",
"263 181 CURVE SMOOTH",
"134 181 LINE",
"134 519 LINE"
);
}
);
width = 572;
}
);
note = Thorn;
unicode = 00DE;
},
{
color = 6;
glyphname = Germandbls;
lastChange = "2018-04-09 07:30:14 +0000";
layers = (
{
layerId = "0B1DFD06-3317-40CA-B510-4969A0718C16";
paths = (
{
closed = 1;
nodes = (
"81 0 LINE",
"134 0 LINE",
"134 514 LINE SMOOTH",
"134 606 OFFCURVE",
"207 661 OFFCURVE",
"302 661 CURVE SMOOTH",
"399 661 OFFCURVE",
"454 601 OFFCURVE",
"454 529 CURVE",
"267 368 LINE",
"267 341 LINE",
"318 341 LINE SMOOTH",
"418 341 OFFCURVE",
"492 288 OFFCURVE",
"492 189 CURVE SMOOTH",
"492 95 OFFCURVE",
"435 39 OFFCURVE",
"338 39 CURVE SMOOTH",
"300 39 OFFCURVE",
"273 43 OFFCURVE",
"239 58 CURVE",
"226 10 LINE",
"261 -4 OFFCURVE",
"298 -10 OFFCURVE",
"338 -10 CURVE SMOOTH",
"470 -10 OFFCURVE",
"548 64 OFFCURVE",
"548 189 CURVE SMOOTH",
"548 288 OFFCURVE",
"493 371 OFFCURVE",
"345 381 CURVE",
"511 524 LINE",
"511 627 OFFCURVE",
"429 710 OFFCURVE",
"302 710 CURVE SMOOTH",
"174 710 OFFCURVE",
"81 620 OFFCURVE",
"81 514 CURVE SMOOTH"
);
}
);
width = 703;
}
);
note = uni1E9E;
unicode = 1E9E;
},
{
color = 6;
glyphname = Schwa;
lastChange = "2018-04-09 07:18:37 +0000";
layers = (
{
layerId = "0B1DFD06-3317-40CA-B510-4969A0718C16";
paths = (
{
closed = 1;
nodes = (
"550 321 LINE",
"550 142 OFFCURVE",
"458 37 OFFCURVE",
"326 37 CURVE SMOOTH",
"193 37 OFFCURVE",
"107 142 OFFCURVE",
"107 321 CURVE"
);
},
{
closed = 1;
nodes = (
"244 710 OFFCURVE",
"159 683 OFFCURVE",
"93 638 CURVE",
"122 602 LINE",
"184 640 OFFCURVE",
"258 663 OFFCURVE",
"323 663 CURVE SMOOTH",
"466 663 OFFCURVE",
"549 553 OFFCURVE",
"549 367 CURVE",
"96 367 LINE SMOOTH",
"66 367 OFFCURVE",
"55 355 OFFCURVE",
"55 329 CURVE SMOOTH",
"55 116 OFFCURVE",
"160 -10 OFFCURVE",
"326 -10 CURVE SMOOTH",
"492 -10 OFFCURVE",
"604 122 OFFCURVE",
"604 346 CURVE SMOOTH",
"604 575 OFFCURVE",
"493 710 OFFCURVE",
"323 710 CURVE SMOOTH"
);
}
);
width = 659;
}
);
note = uni018F;
unicode = 018F;
},
{
color = 6;
glyphname = Tbar;
lastChange = "2018-04-09 07:14:27 +0000";
layers = (
{
components = (
{
name = T;
}
);
layerId = "0B1DFD06-3317-40CA-B510-4969A0718C16";
paths = (
{
closed = 1;
nodes = (
"115 347 LINE",
"429 347 LINE",
"429 393 LINE",
"115 393 LINE"
);
}
);
width = 544;
}
);
leftKerningGroup = T;
note = Tbar;
rightKerningGroup = T;
unicode = 0166;
},
{
color = 6;
glyphname = Uacute;
lastChange = "2018-03-24 02:25:17 +0000";
layers = (
{
background = {
paths = (
{
closed = 1;
nodes = (
"539 -10 OFFCURVE",
"636 51 OFFCURVE",
"636 204 CURVE SMOOTH",
"636 637 LINE SMOOTH",
"636 662 OFFCURVE",
"660 673 OFFCURVE",
"690 673 CURVE SMOOTH",
"713 673 LINE",
"713 700 LINE",
"510 700 LINE",
"510 673 LINE",
"532 673 LINE SMOOTH",
"564 673 OFFCURVE",
"586 662 OFFCURVE",
"586 637 CURVE SMOOTH",
"586 197 LINE SMOOTH",
"586 65 OFFCURVE",
"489 31 OFFCURVE",
"397 31 CURVE SMOOTH",
"290 31 OFFCURVE",
"203 63 OFFCURVE",
"203 197 CURVE SMOOTH",
"203 637 LINE SMOOTH",
"203 662 OFFCURVE",
"226 673 OFFCURVE",
"257 673 CURVE SMOOTH",
"280 673 LINE",
"280 700 LINE",
"28 700 LINE",
"28 673 LINE",
"51 673 LINE SMOOTH",
"82 673 OFFCURVE",
"105 662 OFFCURVE",
"105 637 CURVE SMOOTH",
"105 204 LINE SMOOTH",
"105 46 OFFCURVE",
"208 -10 OFFCURVE",
"375 -10 CURVE SMOOTH"
);
},
{
closed = 1;
nodes = (
"447 865 LINE SMOOTH",
"469 877 OFFCURVE",
"481 890 OFFCURVE",
"481 907 CURVE SMOOTH",
"481 922 OFFCURVE",
"469 937 OFFCURVE",
"447 937 CURVE SMOOTH",
"426 937 OFFCURVE",
"411 921 OFFCURVE",
"403 914 CURVE SMOOTH",
"288 807 LINE",
"305 782 LINE"
);
}
);
};
components = (
{
name = U;
},
{
name = acutecomb;
transform = "{1, 0, 0, 1, 353, 230}";
}
);
layerId = "0B1DFD06-3317-40CA-B510-4969A0718C16";
width = 644;
}
);
leftKerningGroup = U;
note = Uacute;
rightKerningGroup = U;
unicode = 00DA;
},
{
color = 6;
glyphname = Ubreve;
lastChange = "2018-03-27 02:04:36 +0000";
layers = (
{
background = {
paths = (
{
closed = 1;
nodes = (
"539 -10 OFFCURVE",
"636 51 OFFCURVE",
"636 204 CURVE SMOOTH",
"636 637 LINE SMOOTH",
"636 662 OFFCURVE",
"660 673 OFFCURVE",
"690 673 CURVE SMOOTH",
"713 673 LINE",
"713 700 LINE",
"510 700 LINE",
"510 673 LINE",
"532 673 LINE SMOOTH",
"564 673 OFFCURVE",
"586 662 OFFCURVE",
"586 637 CURVE SMOOTH",
"586 197 LINE SMOOTH",
"586 65 OFFCURVE",
"489 31 OFFCURVE",
"397 31 CURVE SMOOTH",
"290 31 OFFCURVE",
"203 63 OFFCURVE",
"203 197 CURVE SMOOTH",
"203 637 LINE SMOOTH",
"203 662 OFFCURVE",
"226 673 OFFCURVE",
"257 673 CURVE SMOOTH",
"280 673 LINE",
"280 700 LINE",
"28 700 LINE",
"28 673 LINE",
"51 673 LINE SMOOTH",
"82 673 OFFCURVE",
"105 662 OFFCURVE",
"105 637 CURVE SMOOTH",
"105 204 LINE SMOOTH",
"105 46 OFFCURVE",
"208 -10 OFFCURVE",
"375 -10 CURVE SMOOTH"
);
},
{
closed = 1;
nodes = (
"483 774 OFFCURVE",
"525 830 OFFCURVE",
"529 905 CURVE",
"496 905 LINE",
"490 846 OFFCURVE",
"448 820 OFFCURVE",
"384 820 CURVE SMOOTH",
"320 820 OFFCURVE",
"277 846 OFFCURVE",
"270 905 CURVE",
"237 905 LINE",
"241 827 OFFCURVE",
"283 774 OFFCURVE",
"384 774 CURVE SMOOTH"
);
}
);
};
components = (
{
name = U;
},
{
name = brevecomb;
transform = "{1, 0, 0, 1, 322, 230}";
}
);
layerId = "0B1DFD06-3317-40CA-B510-4969A0718C16";
width = 644;
}
);
leftKerningGroup = U;
note = Ubreve;
rightKerningGroup = U;
unicode = 016C;
},
{
color = 6;
glyphname = Ucaron;
lastChange = "2018-03-27 03:47:29 +0000";
layers = (
{
background = {
paths = (
{
closed = 1;
nodes = (
"539 -10 OFFCURVE",
"636 51 OFFCURVE",
"636 204 CURVE SMOOTH",
"636 637 LINE SMOOTH",
"636 662 OFFCURVE",
"660 673 OFFCURVE",
"690 673 CURVE SMOOTH",
"713 673 LINE",
"713 700 LINE",
"510 700 LINE",
"510 673 LINE",
"532 673 LINE SMOOTH",
"564 673 OFFCURVE",
"586 662 OFFCURVE",
"586 637 CURVE SMOOTH",
"586 197 LINE SMOOTH",
"586 65 OFFCURVE",
"489 31 OFFCURVE",
"397 31 CURVE SMOOTH",
"290 31 OFFCURVE",
"203 63 OFFCURVE",
"203 197 CURVE SMOOTH",
"203 637 LINE SMOOTH",
"203 662 OFFCURVE",
"226 673 OFFCURVE",
"257 673 CURVE SMOOTH",
"280 673 LINE",
"280 700 LINE",
"28 700 LINE",
"28 673 LINE",
"51 673 LINE SMOOTH",
"82 673 OFFCURVE",
"105 662 OFFCURVE",
"105 637 CURVE SMOOTH",
"105 204 LINE SMOOTH",
"105 46 OFFCURVE",
"208 -10 OFFCURVE",
"375 -10 CURVE SMOOTH"
);
},
{
closed = 1;
nodes = (
"397 782 LINE",
"521 911 LINE",
"502 932 LINE",
"394 847 LINE",
"386 840 OFFCURVE",
"377 836 OFFCURVE",
"371 836 CURVE SMOOTH",
"365 836 OFFCURVE",
"357 840 OFFCURVE",
"347 847 CURVE",
"239 932 LINE",
"220 911 LINE",
"344 782 LINE"
);
}
);
};
components = (
{
name = U;
},
{
name = caroncomb;
transform = "{1, 0, 0, 1, 323, 230}";
}
);
layerId = "0B1DFD06-3317-40CA-B510-4969A0718C16";
width = 644;
}
);
leftKerningGroup = U;
note = Ucaron;
rightKerningGroup = U;
unicode = 01D3;
},
{
color = 6;
glyphname = Ucircumflex;
lastChange = "2018-03-27 03:47:29 +0000";
layers = (
{
background = {
paths = (
{
closed = 1;
nodes = (
"539 -10 OFFCURVE",
"636 51 OFFCURVE",
"636 204 CURVE SMOOTH",
"636 637 LINE SMOOTH",
"636 662 OFFCURVE",
"660 673 OFFCURVE",
"690 673 CURVE SMOOTH",
"713 673 LINE",
"713 700 LINE",
"510 700 LINE",
"510 673 LINE",
"532 673 LINE SMOOTH",
"564 673 OFFCURVE",
"586 662 OFFCURVE",
"586 637 CURVE SMOOTH",
"586 197 LINE SMOOTH",
"586 65 OFFCURVE",
"489 31 OFFCURVE",
"397 31 CURVE SMOOTH",
"290 31 OFFCURVE",
"203 63 OFFCURVE",
"203 197 CURVE SMOOTH",
"203 637 LINE SMOOTH",
"203 662 OFFCURVE",
"226 673 OFFCURVE",
"257 673 CURVE SMOOTH",
"280 673 LINE",
"280 700 LINE",
"28 700 LINE",
"28 673 LINE",
"51 673 LINE SMOOTH",
"82 673 OFFCURVE",
"105 662 OFFCURVE",
"105 637 CURVE SMOOTH",
"105 204 LINE SMOOTH",
"105 46 OFFCURVE",
"208 -10 OFFCURVE",
"375 -10 CURVE SMOOTH"
);
},
{
closed = 1;
nodes = (
"360 868 LINE SMOOTH",
"368 874 OFFCURVE",
"378 879 OFFCURVE",
"384 879 CURVE SMOOTH",
"390 879 OFFCURVE",
"398 874 OFFCURVE",
"407 868 CURVE",
"515 782 LINE",
"534 803 LINE",
"410 932 LINE",
"357 932 LINE",
"233 803 LINE",
"252 782 LINE"
);
}
);
};
components = (
{
name = U;
},
{
name = circumflexcomb;
transform = "{1, 0, 0, 1, 323, 230}";
}
);
layerId = "0B1DFD06-3317-40CA-B510-4969A0718C16";
width = 644;
}
);
leftKerningGroup = U;
note = Ucircumflex;
rightKerningGroup = U;
unicode = 00DB;
},
{
color = 6;
glyphname = Udieresis;
lastChange = "2018-03-25 03:38:08 +0000";
layers = (
{
background = {
paths = (
{
closed = 1;
nodes = (
"539 -10 OFFCURVE",
"636 51 OFFCURVE",
"636 204 CURVE SMOOTH",
"636 637 LINE SMOOTH",
"636 662 OFFCURVE",
"660 673 OFFCURVE",
"690 673 CURVE SMOOTH",
"713 673 LINE",
"713 700 LINE",
"510 700 LINE",
"510 673 LINE",
"532 673 LINE SMOOTH",
"564 673 OFFCURVE",
"586 662 OFFCURVE",
"586 637 CURVE SMOOTH",
"586 197 LINE SMOOTH",
"586 65 OFFCURVE",
"489 31 OFFCURVE",
"397 31 CURVE SMOOTH",
"290 31 OFFCURVE",
"203 63 OFFCURVE",
"203 197 CURVE SMOOTH",
"203 637 LINE SMOOTH",
"203 662 OFFCURVE",
"226 673 OFFCURVE",
"257 673 CURVE SMOOTH",
"280 673 LINE",
"280 700 LINE",
"28 700 LINE",
"28 673 LINE",
"51 673 LINE SMOOTH",
"82 673 OFFCURVE",
"105 662 OFFCURVE",
"105 637 CURVE SMOOTH",
"105 204 LINE SMOOTH",
"105 46 OFFCURVE",
"208 -10 OFFCURVE",
"375 -10 CURVE SMOOTH"
);
},
{
closed = 1;
nodes = (
"304 781 OFFCURVE",
"322 800 OFFCURVE",
"322 827 CURVE SMOOTH",
"322 855 OFFCURVE",
"304 875 OFFCURVE",
"275 875 CURVE SMOOTH",
"247 875 OFFCURVE",
"229 855 OFFCURVE",
"229 827 CURVE SMOOTH",
"229 800 OFFCURVE",
"247 781 OFFCURVE",
"275 781 CURVE SMOOTH"
);
},
{
closed = 1;
nodes = (
"520 781 OFFCURVE",
"538 800 OFFCURVE",
"538 827 CURVE SMOOTH",
"538 855 OFFCURVE",
"520 875 OFFCURVE",
"491 875 CURVE SMOOTH",
"462 875 OFFCURVE",
"444 855 OFFCURVE",
"444 827 CURVE SMOOTH",
"444 800 OFFCURVE",
"462 781 OFFCURVE",
"491 781 CURVE SMOOTH"
);
}
);
};
components = (
{
name = U;
},
{
name = dieresiscomb;
transform = "{1, 0, 0, 1, 323, 230}";
}
);
layerId = "0B1DFD06-3317-40CA-B510-4969A0718C16";
width = 644;
}
);
leftKerningGroup = U;
note = Udieresis;
rightKerningGroup = U;
unicode = 00DC;
},
{
color = 6;
glyphname = Udieresisacute;
lastChange = "2018-03-27 03:45:37 +0000";
layers = (
{
background = {
paths = (
{
closed = 1;
nodes = (
"539 -10 OFFCURVE",
"636 51 OFFCURVE",
"636 204 CURVE SMOOTH",
"636 637 LINE SMOOTH",
"636 662 OFFCURVE",
"660 673 OFFCURVE",
"690 673 CURVE SMOOTH",
"713 673 LINE",
"713 700 LINE",
"510 700 LINE",
"510 673 LINE",
"532 673 LINE SMOOTH",
"564 673 OFFCURVE",
"586 662 OFFCURVE",
"586 637 CURVE SMOOTH",
"586 197 LINE SMOOTH",
"586 65 OFFCURVE",
"489 31 OFFCURVE",
"397 31 CURVE SMOOTH",
"290 31 OFFCURVE",
"203 63 OFFCURVE",
"203 197 CURVE SMOOTH",
"203 637 LINE SMOOTH",
"203 662 OFFCURVE",
"226 673 OFFCURVE",
"257 673 CURVE SMOOTH",
"280 673 LINE",
"280 700 LINE",
"28 700 LINE",
"28 673 LINE",
"51 673 LINE SMOOTH",
"82 673 OFFCURVE",
"105 662 OFFCURVE",
"105 637 CURVE SMOOTH",
"105 204 LINE SMOOTH",
"105 46 OFFCURVE",
"208 -10 OFFCURVE",
"375 -10 CURVE SMOOTH"
);
},
{
closed = 1;
nodes = (
"291 780 OFFCURVE",
"310 799 OFFCURVE",
"310 827 CURVE SMOOTH",
"310 855 OFFCURVE",
"291 875 OFFCURVE",
"262 875 CURVE SMOOTH",
"235 875 OFFCURVE",
"216 855 OFFCURVE",
"216 827 CURVE SMOOTH",
"216 799 OFFCURVE",
"235 780 OFFCURVE",
"262 780 CURVE SMOOTH"
);
},
{
closed = 1;
nodes = (
"507 780 OFFCURVE",
"526 799 OFFCURVE",
"526 827 CURVE SMOOTH",
"526 855 OFFCURVE",
"507 875 OFFCURVE",
"479 875 CURVE SMOOTH",
"451 875 OFFCURVE",
"432 855 OFFCURVE",
"432 827 CURVE SMOOTH",
"432 799 OFFCURVE",
"451 780 OFFCURVE",
"479 780 CURVE SMOOTH"
);
},
{
closed = 1;
nodes = (
"481 969 LINE SMOOTH",
"502 981 OFFCURVE",
"512 993 OFFCURVE",
"512 1009 CURVE SMOOTH",
"512 1024 OFFCURVE",
"503 1037 OFFCURVE",
"481 1037 CURVE SMOOTH",
"460 1037 OFFCURVE",
"442 1020 OFFCURVE",
"435 1013 CURVE SMOOTH",
"344 924 LINE",
"362 899 LINE"
);
}
);
};
components = (
{
name = U;
},
{
name = dieresisacute;
transform = "{1, 0, 0, 1, 322, 230}";
}
);
layerId = "0B1DFD06-3317-40CA-B510-4969A0718C16";
width = 644;
}
);
leftKerningGroup = U;
note = Udieresisacute;
rightKerningGroup = U;
unicode = 01D7;
},
{
color = 6;
glyphname = Udieresiscaron;
lastChange = "2018-03-27 03:46:37 +0000";
layers = (
{
background = {
paths = (
{
closed = 1;
nodes = (
"539 -10 OFFCURVE",
"636 51 OFFCURVE",
"636 204 CURVE SMOOTH",
"636 637 LINE SMOOTH",
"636 662 OFFCURVE",
"660 673 OFFCURVE",
"690 673 CURVE SMOOTH",
"713 673 LINE",
"713 700 LINE",
"510 700 LINE",
"510 673 LINE",
"532 673 LINE SMOOTH",
"564 673 OFFCURVE",
"586 662 OFFCURVE",
"586 637 CURVE SMOOTH",
"586 197 LINE SMOOTH",
"586 65 OFFCURVE",
"489 31 OFFCURVE",
"397 31 CURVE SMOOTH",
"290 31 OFFCURVE",
"203 63 OFFCURVE",
"203 197 CURVE SMOOTH",
"203 637 LINE SMOOTH",
"203 662 OFFCURVE",
"226 673 OFFCURVE",
"257 673 CURVE SMOOTH",
"280 673 LINE",
"280 700 LINE",
"28 700 LINE",
"28 673 LINE",
"51 673 LINE SMOOTH",
"82 673 OFFCURVE",
"105 662 OFFCURVE",
"105 637 CURVE SMOOTH",
"105 204 LINE SMOOTH",
"105 46 OFFCURVE",
"208 -10 OFFCURVE",
"375 -10 CURVE SMOOTH"
);
},
{
closed = 1;
nodes = (
"296 780 OFFCURVE",
"315 799 OFFCURVE",
"315 827 CURVE SMOOTH",
"315 855 OFFCURVE",
"296 875 OFFCURVE",
"267 875 CURVE SMOOTH",
"240 875 OFFCURVE",
"221 855 OFFCURVE",
"221 827 CURVE SMOOTH",
"221 799 OFFCURVE",
"240 780 OFFCURVE",
"267 780 CURVE SMOOTH"
);
},
{
closed = 1;
nodes = (
"512 780 OFFCURVE",
"531 799 OFFCURVE",
"531 827 CURVE SMOOTH",
"531 855 OFFCURVE",
"512 875 OFFCURVE",
"484 875 CURVE SMOOTH",
"456 875 OFFCURVE",
"437 855 OFFCURVE",
"437 827 CURVE SMOOTH",
"437 799 OFFCURVE",
"456 780 OFFCURVE",
"484 780 CURVE SMOOTH"
);
},
{
closed = 1;
nodes = (
"401 911 LINE",
"523 1035 LINE",
"505 1056 LINE",
"404 978 LINE",
"394 971 OFFCURVE",
"385 963 OFFCURVE",
"376 963 CURVE SMOOTH",
"369 963 OFFCURVE",
"357 971 OFFCURVE",
"347 978 CURVE",
"246 1056 LINE",
"228 1035 LINE",
"350 911 LINE"
);
}
);
};
components = (
{
name = U;
},
{
name = dieresiscaron;
transform = "{1, 0, 0, 1, 322, 230}";
}
);
layerId = "0B1DFD06-3317-40CA-B510-4969A0718C16";
width = 644;
}
);
leftKerningGroup = U;
note = Udieresiscaron;
rightKerningGroup = U;
unicode = 01D9;
},
{
color = 6;
glyphname = Udieresisgrave;
lastChange = "2018-03-27 03:46:37 +0000";
layers = (
{
background = {
paths = (
{
closed = 1;
nodes = (
"539 -10 OFFCURVE",
"636 51 OFFCURVE",
"636 204 CURVE SMOOTH",
"636 637 LINE SMOOTH",
"636 662 OFFCURVE",
"660 673 OFFCURVE",
"690 673 CURVE SMOOTH",
"713 673 LINE",
"713 700 LINE",
"510 700 LINE",
"510 673 LINE",
"532 673 LINE SMOOTH",
"564 673 OFFCURVE",
"586 662 OFFCURVE",
"586 637 CURVE SMOOTH",
"586 197 LINE SMOOTH",
"586 65 OFFCURVE",
"489 31 OFFCURVE",
"397 31 CURVE SMOOTH",
"290 31 OFFCURVE",
"203 63 OFFCURVE",
"203 197 CURVE SMOOTH",
"203 637 LINE SMOOTH",
"203 662 OFFCURVE",
"226 673 OFFCURVE",
"257 673 CURVE SMOOTH",
"280 673 LINE",
"280 700 LINE",
"28 700 LINE",
"28 673 LINE",
"51 673 LINE SMOOTH",
"82 673 OFFCURVE",
"105 662 OFFCURVE",
"105 637 CURVE SMOOTH",
"105 204 LINE SMOOTH",
"105 46 OFFCURVE",
"208 -10 OFFCURVE",
"375 -10 CURVE SMOOTH"
);
},
{
closed = 1;
nodes = (
"296 780 OFFCURVE",
"315 799 OFFCURVE",
"315 827 CURVE SMOOTH",
"315 855 OFFCURVE",
"296 875 OFFCURVE",
"267 875 CURVE SMOOTH",
"240 875 OFFCURVE",
"221 855 OFFCURVE",
"221 827 CURVE SMOOTH",
"221 799 OFFCURVE",
"240 780 OFFCURVE",
"267 780 CURVE SMOOTH"
);
},
{
closed = 1;
nodes = (
"403 924 LINE",
"312 1013 LINE SMOOTH",
"305 1020 OFFCURVE",
"288 1036 OFFCURVE",
"267 1036 CURVE SMOOTH",
"245 1036 OFFCURVE",
"235 1024 OFFCURVE",
"235 1009 CURVE SMOOTH",
"235 993 OFFCURVE",
"245 981 OFFCURVE",
"266 969 CURVE SMOOTH",
"385 899 LINE"
);
},
{
closed = 1;
nodes = (
"512 780 OFFCURVE",
"531 799 OFFCURVE",
"531 827 CURVE SMOOTH",
"531 855 OFFCURVE",
"512 875 OFFCURVE",
"484 875 CURVE SMOOTH",
"456 875 OFFCURVE",
"437 855 OFFCURVE",
"437 827 CURVE SMOOTH",
"437 799 OFFCURVE",
"456 780 OFFCURVE",
"484 780 CURVE SMOOTH"
);
}
);
};
components = (
{
name = U;
},
{
name = dieresisgrave;
transform = "{1, 0, 0, 1, 322, 230}";
}
);
layerId = "0B1DFD06-3317-40CA-B510-4969A0718C16";
width = 644;
}
);
leftKerningGroup = U;
note = Udieresisgrave;
rightKerningGroup = U;
unicode = 01DB;
},
{
color = 6;
glyphname = Udieresismacron;
lastChange = "2018-03-27 04:42:40 +0000";
layers = (
{
background = {
paths = (
{
closed = 1;
nodes = (
"539 -10 OFFCURVE",
"636 51 OFFCURVE",
"636 204 CURVE SMOOTH",
"636 637 LINE SMOOTH",
"636 662 OFFCURVE",
"660 673 OFFCURVE",
"690 673 CURVE SMOOTH",
"713 673 LINE",
"713 700 LINE",
"510 700 LINE",
"510 673 LINE",
"532 673 LINE SMOOTH",
"564 673 OFFCURVE",
"586 662 OFFCURVE",
"586 637 CURVE SMOOTH",
"586 197 LINE SMOOTH",
"586 65 OFFCURVE",
"489 31 OFFCURVE",
"397 31 CURVE SMOOTH",
"290 31 OFFCURVE",
"203 63 OFFCURVE",
"203 197 CURVE SMOOTH",
"203 637 LINE SMOOTH",
"203 662 OFFCURVE",
"226 673 OFFCURVE",
"257 673 CURVE SMOOTH",
"280 673 LINE",
"280 700 LINE",
"28 700 LINE",
"28 673 LINE",
"51 673 LINE SMOOTH",
"82 673 OFFCURVE",
"105 662 OFFCURVE",
"105 637 CURVE SMOOTH",
"105 204 LINE SMOOTH",
"105 46 OFFCURVE",
"208 -10 OFFCURVE",
"375 -10 CURVE SMOOTH"
);
},
{
closed = 1;
nodes = (
"291 781 OFFCURVE",
"309 800 OFFCURVE",
"309 827 CURVE SMOOTH",
"309 855 OFFCURVE",
"291 875 OFFCURVE",
"262 875 CURVE SMOOTH",
"234 875 OFFCURVE",
"216 855 OFFCURVE",
"216 827 CURVE SMOOTH",
"216 800 OFFCURVE",
"234 781 OFFCURVE",
"262 781 CURVE SMOOTH"
);
},
{
closed = 1;
nodes = (
"507 781 OFFCURVE",
"525 800 OFFCURVE",
"525 827 CURVE SMOOTH",
"525 855 OFFCURVE",
"507 875 OFFCURVE",
"478 875 CURVE SMOOTH",
"449 875 OFFCURVE",
"431 855 OFFCURVE",
"431 827 CURVE SMOOTH",
"431 800 OFFCURVE",
"449 781 OFFCURVE",
"478 781 CURVE SMOOTH"
);
},
{
closed = 1;
nodes = (
"537 928 LINE",
"537 970 LINE",
"204 970 LINE",
"204 928 LINE"
);
}
);
};
components = (
{
name = U;
},
{
name = dieresiscomb;
transform = "{1, 0, 0, 1, 323, 230}";
},
{
name = macroncomb;
transform = "{1, 0, 0, 1, 322, 393}";
}
);
layerId = "0B1DFD06-3317-40CA-B510-4969A0718C16";
width = 644;
}
);
leftKerningGroup = U;
note = Udieresismacron;
rightKerningGroup = U;
unicode = 01D5;
},
{
color = 6;
glyphname = "alpha-latin";
lastChange = "2018-03-28 03:59:19 +0000";
layers = (
{
layerId = "0B1DFD06-3317-40CA-B510-4969A0718C16";
paths = (
{
closed = 1;
nodes = (
"484 289 LINE SMOOTH",
"484 391 OFFCURVE",
"426 495 OFFCURVE",
"272 495 CURVE SMOOTH",
"126 495 OFFCURVE",
"55 373 OFFCURVE",
"55 241 CURVE SMOOTH",
"55 110 OFFCURVE",
"123 -10 OFFCURVE",
"266 -10 CURVE SMOOTH",
"341 -10 OFFCURVE",
"396 25 OFFCURVE",
"435 81 CURVE",
"438 80 LINE",
"441 31 OFFCURVE",
"453 3 OFFCURVE",
"462 -10 CURVE",
"506 9 LINE",
"493 30 OFFCURVE",
"484 63 OFFCURVE",
"484 118 CURVE SMOOTH"
);
},
{
closed = 1;
nodes = (
"394 448 OFFCURVE",
"434 375 OFFCURVE",
"434 271 CURVE SMOOTH",
"434 213 LINE SMOOTH",
"434 118 OFFCURVE",
"375 37 OFFCURVE",
"266 37 CURVE SMOOTH",
"161 37 OFFCURVE",
"109 128 OFFCURVE",
"109 241 CURVE SMOOTH",
"109 353 OFFCURVE",
"163 448 OFFCURVE",
"268 448 CURVE SMOOTH"
);
}
);
width = 561;
}
);
leftKerningGroup = a;
note = ascript;
rightKerningGroup = a;
unicode = 0251;
},
{
color = 6;
glyphname = ae;
lastChange = "2018-04-09 08:39:03 +0000";
layers = (
{
anchors = (
{
name = bottom;
position = "{396, 0}";
},
{
name = ogonek;
position = "{417, 10}";
},
{
name = top;
position = "{396, 470}";
}
);
layerId = "0B1DFD06-3317-40CA-B510-4969A0718C16";
paths = (
{
closed = 1;
nodes = (
"55 51 OFFCURVE",
"111 -10 OFFCURVE",
"227 -10 CURVE SMOOTH",
"321 -10 OFFCURVE",
"392 42 OFFCURVE",
"425 110 CURVE",
"426 110 LINE",
"452 42 OFFCURVE",
"519 -10 OFFCURVE",
"619 -10 CURVE SMOOTH",
"685 -10 OFFCURVE",
"749 12 OFFCURVE",
"791 50 CURVE",
"762 86 LINE",
"726 55 OFFCURVE",
"673 37 OFFCURVE",
"619 37 CURVE SMOOTH",
"512 37 OFFCURVE",
"451 104 OFFCURVE",
"454 200 CURVE SMOOTH",
"454 218 LINE",
"781 218 LINE SMOOTH",
"811 218 OFFCURVE",
"822 230 OFFCURVE",
"822 256 CURVE SMOOTH",
"822 363 OFFCURVE",
"781 495 OFFCURVE",
"613 495 CURVE SMOOTH",
"523 495 OFFCURVE",
"461 452 OFFCURVE",
"432 388 CURVE",
"431 388 LINE",
"401 454 OFFCURVE",
"351 495 OFFCURVE",
"260 495 CURVE SMOOTH",
"194 495 OFFCURVE",
"126 473 OFFCURVE",
"84 435 CURVE",
"113 399 LINE",
"149 430 OFFCURVE",
"197 448 OFFCURVE",
"260 448 CURVE SMOOTH",
"344 448 OFFCURVE",
"400 386 OFFCURVE",
"400 308 CURVE SMOOTH",
"400 286 LINE",
"232 286 LINE SMOOTH",
"120 286 OFFCURVE",
"55 225 OFFCURVE",
"55 141 CURVE SMOOTH"
);
},
{
closed = 1;
nodes = (
"107 196 OFFCURVE",
"143 240 OFFCURVE",
"228 240 CURVE SMOOTH",
"401 240 LINE",
"401 195 LINE SMOOTH",
"401 117 OFFCURVE",
"337 37 OFFCURVE",
"227 37 CURVE SMOOTH",
"133 37 OFFCURVE",
"107 81 OFFCURVE",
"107 141 CURVE SMOOTH"
);
},
{
closed = 1;
nodes = (
"455 363 OFFCURVE",
"505 448 OFFCURVE",
"613 448 CURVE SMOOTH",
"728 448 OFFCURVE",
"770 372 OFFCURVE",
"770 264 CURVE",
"453 264 LINE",
"453 290 LINE SMOOTH"
);
}
);
width = 877;
}
);
note = ae;
unicode = 00E6;
},
{
color = 6;
glyphname = eth;
lastChange = "2018-04-10 07:51:39 +0000";
layers = (
{
layerId = "0B1DFD06-3317-40CA-B510-4969A0718C16";
paths = (
{
closed = 1;
nodes = (
"573 426 OFFCURVE",
"501 562 OFFCURVE",
"372 660 CURVE",
"490 714 LINE",
"470 756 LINE",
"330 691 LINE",
"282 725 OFFCURVE",
"235 750 OFFCURVE",
"174 773 CURVE",
"153 730 LINE",
"199 715 OFFCURVE",
"246 692 OFFCURVE",
"279 667 CURVE",
"165 615 LINE",
"185 573 LINE",
"322 636 LINE",
"401 582 OFFCURVE",
"445 528 OFFCURVE",
"483 450 CURVE",
"480 448 LINE",
"423 497 OFFCURVE",
"369 508 OFFCURVE",
"313 508 CURVE SMOOTH",
"158 508 OFFCURVE",
"55 403 OFFCURVE",
"55 250 CURVE SMOOTH",
"55 87 OFFCURVE",
"158 -10 OFFCURVE",
"311 -10 CURVE SMOOTH",
"471 -10 OFFCURVE",
"573 103 OFFCURVE",
"573 261 CURVE SMOOTH"
);
},
{
closed = 1;
nodes = (
"517 121 OFFCURVE",
"440 39 OFFCURVE",
"311 39 CURVE SMOOTH",
"185 39 OFFCURVE",
"111 117 OFFCURVE",
"111 250 CURVE SMOOTH",
"111 381 OFFCURVE",
"186 459 OFFCURVE",
"313 459 CURVE SMOOTH",
"438 459 OFFCURVE",
"517 398 OFFCURVE",
"517 261 CURVE SMOOTH"
);
}
);
width = 628;
}
);
note = eth;
unicode = 00F0;
},
{
color = 6;
glyphname = dcaron;
lastChange = "2018-04-09 07:47:29 +0000";
layers = (
{
components = (
{
name = d;
}
);
layerId = "0B1DFD06-3317-40CA-B510-4969A0718C16";
paths = (
{
closed = 1;
nodes = (
"562 541 LINE",
"618 568 OFFCURVE",
"654 617 OFFCURVE",
"654 674 CURVE SMOOTH",
"654 711 OFFCURVE",
"637 735 OFFCURVE",
"603 735 CURVE SMOOTH",
"573 735 OFFCURVE",
"554 714 OFFCURVE",
"554 683 CURVE SMOOTH",
"554 650 OFFCURVE",
"584 632 OFFCURVE",
"613 641 CURVE",
"609 614 OFFCURVE",
"587 585 OFFCURVE",
"547 566 CURVE"
);
}
);
width = 709;
}
);
leftKerningGroup = d;
note = dcaron;
unicode = 010F;
},
{
color = 6;
glyphname = dcroat;
lastChange = "2018-03-29 04:01:59 +0000";
layers = (
{
layerId = "0B1DFD06-3317-40CA-B510-4969A0718C16";
paths = (
{
closed = 1;
nodes = (
"435 38 OFFCURVE",
"450 0 OFFCURVE",
"462 -11 CURVE",
"509 8 LINE",
"497 29 OFFCURVE",
"486 55 OFFCURVE",
"486 120 CURVE SMOOTH",
"486 734 LINE",
"434 734 LINE",
"434 402 LINE",
"402 453 OFFCURVE",
"347 495 OFFCURVE",
"270 495 CURVE SMOOTH",
"117 495 OFFCURVE",
"55 377 OFFCURVE",
"55 237 CURVE SMOOTH",
"55 98 OFFCURVE",
"123 -10 OFFCURVE",
"266 -10 CURVE SMOOTH",
"343 -10 OFFCURVE",
"401 30 OFFCURVE",
"435 83 CURVE"
);
},
{
closed = 1;
nodes = (
"109 339 OFFCURVE",
"145 448 OFFCURVE",
"270 448 CURVE SMOOTH",
"374 448 OFFCURVE",
"434 356 OFFCURVE",
"434 271 CURVE SMOOTH",
"434 213 LINE SMOOTH",
"434 126 OFFCURVE",
"370 37 OFFCURVE",
"266 37 CURVE SMOOTH",
"151 37 OFFCURVE",
"109 135 OFFCURVE",
"109 237 CURVE SMOOTH"
);
},
{
closed = 1;
nodes = (
"317 593 LINE",
"569 593 LINE",
"569 639 LINE",
"317 639 LINE"
);
}
);
width = 624;
}
);
note = dslash;
unicode = 0111;
},
{
color = 6;
glyphname = schwa;
lastChange = "2018-03-27 03:58:25 +0000";
layers = (
{
layerId = "0B1DFD06-3317-40CA-B510-4969A0718C16";
paths = (
{
closed = 1;
nodes = (
"429 221 LINE",
"429 144 OFFCURVE",
"390 37 OFFCURVE",
"269 37 CURVE SMOOTH",
"154 37 OFFCURVE",
"107 128 OFFCURVE",
"107 221 CURVE"
);
},
{
closed = 1;
nodes = (
"191 495 OFFCURVE",
"126 472 OFFCURVE",
"87 437 CURVE",
"121 402 LINE",
"155 431 OFFCURVE",
"210 448 OFFCURVE",
"264 448 CURVE SMOOTH",
"372 448 OFFCURVE",
"428 373 OFFCURVE",
"428 267 CURVE",
"96 267 LINE SMOOTH",
"66 267 OFFCURVE",
"55 255 OFFCURVE",
"55 229 CURVE SMOOTH",
"55 150 OFFCURVE",
"90 -10 OFFCURVE",
"269 -10 CURVE SMOOTH",
"433 -10 OFFCURVE",
"483 122 OFFCURVE",
"483 246 CURVE SMOOTH",
"483 391 OFFCURVE",
"403 495 OFFCURVE",
"264 495 CURVE SMOOTH"
);
}
);
width = 538;
}
);
note = schwa;
unicode = 0259;
},
{
color = 6;
glyphname = hbar;
lastChange = "2018-04-09 07:46:32 +0000";
layers = (
{
components = (
{
name = h;
transform = "{1, 0, 0, 1, 20, 0}";
}
);
layerId = "0B1DFD06-3317-40CA-B510-4969A0718C16";
paths = (
{
closed = 1;
nodes = (
"287 594 LINE",
"287 640 LINE",
"35 640 LINE",
"35 594 LINE"
);
}
);
width = 553;
}
);
note = hbar;
rightKerningGroup = h;
unicode = 0127;
},
{
color = 6;
glyphname = idotless;
lastChange = "2018-03-25 03:30:58 +0000";
layers = (
{
anchors = (
{
name = bottom;
position = "{106, 0}";
},
{
name = ogonek;
position = "{191, 10}";
},
{
name = top;
position = "{106, 470}";
}
);
layerId = "0B1DFD06-3317-40CA-B510-4969A0718C16";
paths = (
{
closed = 1;
nodes = (
"80 0 LINE",
"132 0 LINE",
"132 485 LINE",
"80 485 LINE"
);
}
);
width = 212;
}
);
note = dotlessi;
unicode = 0131;
},
{
color = 6;
glyphname = ij;
lastChange = "2018-03-27 03:58:57 +0000";
layers = (
{
anchors = (
{
name = bottom;
position = "{123, 0}";
}
);
layerId = "0B1DFD06-3317-40CA-B510-4969A0718C16";
paths = (
{
closed = 1;
nodes = (
"96 0 LINE",
"148 0 LINE",
"148 485 LINE",
"96 485 LINE"
);
},
{
closed = 1;
nodes = (
"100 649 OFFCURVE",
"80 670 OFFCURVE",
"80 692 CURVE SMOOTH",
"80 715 OFFCURVE",
"100 735 OFFCURVE",
"123 735 CURVE SMOOTH",
"146 735 OFFCURVE",
"166 715 OFFCURVE",
"166 692 CURVE SMOOTH",
"166 670 OFFCURVE",
"146 649 OFFCURVE",
"123 649 CURVE SMOOTH"
);
},
{
closed = 1;
nodes = (
"390 -174 OFFCURVE",
"417 -139 OFFCURVE",
"417 -40 CURVE SMOOTH",
"417 485 LINE",
"469 485 LINE",
"469 -40 LINE SMOOTH",
"469 -167 OFFCURVE",
"416 -219 OFFCURVE",
"319 -219 CURVE SMOOTH",
"273 -219 OFFCURVE",
"232 -205 OFFCURVE",
"201 -186 CURVE",
"224 -145 LINE",
"247 -161 OFFCURVE",
"280 -174 OFFCURVE",
"319 -174 CURVE"
);
},
{
closed = 1;
nodes = (
"421 649 OFFCURVE",
"401 670 OFFCURVE",
"401 692 CURVE SMOOTH",
"401 715 OFFCURVE",
"421 735 OFFCURVE",
"444 735 CURVE SMOOTH",
"467 735 OFFCURVE",
"487 715 OFFCURVE",
"487 692 CURVE SMOOTH",
"487 670 OFFCURVE",
"467 649 OFFCURVE",
"444 649 CURVE SMOOTH"
);
}
);
width = 567;
}
);
note = ij;
unicode = 0133;
},
{
color = 6;
glyphname = jdotless;
lastChange = "2018-03-27 03:49:59 +0000";
layers = (
{
anchors = (
{
name = bottom;
position = "{151, 0}";
},
{
name = top;
position = "{285, 470}";
}
);
layerId = "0B1DFD06-3317-40CA-B510-4969A0718C16";
paths = (
{
closed = 1;
nodes = (
"234 -174 OFFCURVE",
"261 -139 OFFCURVE",
"261 -40 CURVE SMOOTH",
"261 485 LINE",
"313 485 LINE",
"313 -40 LINE SMOOTH",
"313 -167 OFFCURVE",
"260 -219 OFFCURVE",
"163 -219 CURVE SMOOTH",
"117 -219 OFFCURVE",
"76 -205 OFFCURVE",
"45 -186 CURVE",
"68 -145 LINE",
"91 -161 OFFCURVE",
"124 -174 OFFCURVE",
"163 -174 CURVE"
);
}
);
width = 393;
}
);
leftKerningGroup = j;
note = dotlessj;
unicode = 0237;
},
{
color = 6;
glyphname = kgreenlandic;
lastChange = "2018-03-27 05:31:27 +0000";
layers = (
{
layerId = "0B1DFD06-3317-40CA-B510-4969A0718C16";
paths = (
{
closed = 1;
nodes = (
"177 246 LINE",
"416 495 LINE",
"346 495 LINE",
"132 264 LINE",
"132 497 LINE",
"80 497 LINE",
"80 0 LINE",
"132 0 LINE",
"132 228 LINE",
"386 -2 LINE",
"453 0 LINE"
);
}
);
width = 508;
}
);
note = kgreenlandic;
rightKerningGroup = k;
unicode = 0138;
},
{
color = 6;
glyphname = lslash;
lastChange = "2018-04-09 07:56:09 +0000";
layers = (
{
components = (
{
name = l;
transform = "{1, 0, 0, 1, 30, 0}";
}
);
layerId = "0B1DFD06-3317-40CA-B510-4969A0718C16";
paths = (
{
closed = 1;
nodes = (
"35 262 LINE",
"237 362 LINE",
"237 412 LINE",
"35 312 LINE"
);
}
);
width = 272;
}
);
note = lslash;
unicode = 0142;
},
{
color = 6;
glyphname = eng;
lastChange = "2018-03-27 04:55:49 +0000";
layers = (
{
anchors = (
{
name = bottom;
position = "{265, 0}";
},
{
name = top;
position = "{265, 470}";
}
);
layerId = "0B1DFD06-3317-40CA-B510-4969A0718C16";
paths = (
{
closed = 1;
nodes = (
"404 -40 LINE SMOOTH",
"404 -139 OFFCURVE",
"377 -174 OFFCURVE",
"306 -174 CURVE SMOOTH",
"267 -174 OFFCURVE",
"234 -161 OFFCURVE",
"211 -145 CURVE",
"188 -186 LINE",
"219 -205 OFFCURVE",
"260 -219 OFFCURVE",
"306 -219 CURVE SMOOTH",
"403 -219 OFFCURVE",
"456 -167 OFFCURVE",
"456 -40 CURVE SMOOTH",
"457 306 LINE SMOOTH",
"457 428 OFFCURVE",
"399 495 OFFCURVE",
"290 495 CURVE SMOOTH",
"223 495 OFFCURVE",
"162 462 OFFCURVE",
"127 402 CURVE",
"122 446 OFFCURVE",
"111 479 OFFCURVE",
"102 495 CURVE",
"55 476 LINE",
"69 455 OFFCURVE",
"77 423 OFFCURVE",
"77 372 CURVE SMOOTH",
"77 0 LINE",
"129 0 LINE",
"129 273 LINE SMOOTH",
"129 361 OFFCURVE",
"189 448 OFFCURVE",
"282 448 CURVE SMOOTH",
"371 448 OFFCURVE",
"404 401 OFFCURVE",
"404 307 CURVE SMOOTH"
);
}
);
width = 532;
}
);
leftKerningGroup = m;
note = eng;
rightKerningGroup = m;
unicode = 014B;
},
{
color = 6;
glyphname = oslash;
lastChange = "2018-04-09 07:48:58 +0000";
layers = (
{
components = (
{
name = o;
}
);
layerId = "0B1DFD06-3317-40CA-B510-4969A0718C16";
paths = (
{
closed = 1;
nodes = (
"76 -46 LINE",
"121 -71 LINE",
"455 531 LINE",
"410 556 LINE"
);
}
);
width = 542;
}
);
note = oslash;
unicode = 00F8;
},
{
color = 6;
glyphname = oe;
lastChange = "2018-03-27 05:04:35 +0000";
layers = (
{
anchors = (
{
name = bottom;
position = "{269, 0}";
},
{
name = center;
position = "{269, 235}";
},
{
name = ogonek;
position = "{486, 10}";
},
{
name = top;
position = "{269, 470}";
},
{
name = topright;
position = "{520, 470}";
}
);
layerId = "0B1DFD06-3317-40CA-B510-4969A0718C16";
paths = (
{
closed = 1;
nodes = (
"109 361 OFFCURVE",
"163 448 OFFCURVE",
"271 448 CURVE SMOOTH",
"379 448 OFFCURVE",
"433 361 OFFCURVE",
"433 243 CURVE SMOOTH",
"433 125 OFFCURVE",
"379 38 OFFCURVE",
"271 38 CURVE SMOOTH",
"163 38 OFFCURVE",
"109 125 OFFCURVE",
"109 243 CURVE SMOOTH"
);
},
{
closed = 1;
nodes = (
"483 355 OFFCURVE",
"522 448 OFFCURVE",
"643 448 CURVE SMOOTH",
"758 448 OFFCURVE",
"805 365 OFFCURVE",
"805 264 CURVE",
"483 264 LINE"
);
},
{
closed = 1;
nodes = (
"714 -10 OFFCURVE",
"778 12 OFFCURVE",
"820 50 CURVE",
"791 86 LINE",
"755 55 OFFCURVE",
"702 37 OFFCURVE",
"648 37 CURVE SMOOTH",
"540 37 OFFCURVE",
"484 107 OFFCURVE",
"484 218 CURVE",
"816 218 LINE SMOOTH",
"846 218 OFFCURVE",
"857 230 OFFCURVE",
"857 256 CURVE SMOOTH",
"857 335 OFFCURVE",
"822 495 OFFCURVE",
"643 495 CURVE SMOOTH",
"543 495 OFFCURVE",
"486 444 OFFCURVE",
"456 377 CURVE",
"425 445 OFFCURVE",
"367 495 OFFCURVE",
"271 495 CURVE SMOOTH",
"119 495 OFFCURVE",
"55 375 OFFCURVE",
"55 243 CURVE SMOOTH",
"55 111 OFFCURVE",
"119 -9 OFFCURVE",
"271 -9 CURVE SMOOTH",
"354 -9 OFFCURVE",
"424 41 OFFCURVE",
"456 110 CURVE",
"486 34 OFFCURVE",
"556 -10 OFFCURVE",
"648 -10 CURVE SMOOTH"
);
}
);
width = 912;
}
);
note = oe;
unicode = 0153;
},
{
color = 6;
glyphname = thorn;
lastChange = "2018-03-27 04:57:06 +0000";
layers = (
{
anchors = (
{
name = bottom;
position = "{284, 0}";
},
{
name = top;
position = "{284, 470}";
}
);
layerId = "0B1DFD06-3317-40CA-B510-4969A0718C16";
paths = (
{
closed = 1;
nodes = (
"457 142 OFFCURVE",
"421 37 OFFCURVE",
"296 37 CURVE SMOOTH",
"192 37 OFFCURVE",
"132 129 OFFCURVE",
"132 214 CURVE SMOOTH",
"132 272 LINE SMOOTH",
"132 359 OFFCURVE",
"196 448 OFFCURVE",
"300 448 CURVE SMOOTH",
"415 448 OFFCURVE",
"457 344 OFFCURVE",
"457 244 CURVE SMOOTH"
);
},
{
closed = 1;
nodes = (
"80 -219 LINE",
"132 -219 LINE",
"132 83 LINE",
"166 28 OFFCURVE",
"223 -10 OFFCURVE",
"296 -10 CURVE SMOOTH",
"449 -10 OFFCURVE",
"511 104 OFFCURVE",
"511 244 CURVE SMOOTH",
"511 381 OFFCURVE",
"443 495 OFFCURVE",
"296 495 CURVE SMOOTH",
"223 495 OFFCURVE",
"166 457 OFFCURVE",
"132 402 CURVE",
"132 704 LINE",
"80 704 LINE"
);
}
);
width = 566;
}
);
note = thorn;
unicode = 00FE;
},
{
color = 6;
glyphname = germandbls;
lastChange = "2018-04-09 07:51:49 +0000";
layers = (
{
layerId = "0B1DFD06-3317-40CA-B510-4969A0718C16";
paths = (
{
closed = 1;
nodes = (
"296 35 OFFCURVE",
"250 39 OFFCURVE",
"216 54 CURVE",
"203 10 LINE",
"238 -4 OFFCURVE",
"294 -10 OFFCURVE",
"334 -10 CURVE SMOOTH",
"457 -10 OFFCURVE",
"535 63 OFFCURVE",
"535 186 CURVE SMOOTH",
"535 292 OFFCURVE",
"462 348 OFFCURVE",
"360 366 CURVE",
"360 367 LINE",
"428 377 OFFCURVE",
"497 420 OFFCURVE",
"497 524 CURVE SMOOTH",
"497 616 OFFCURVE",
"424 700 OFFCURVE",
"284 700 CURVE SMOOTH",
"153 700 OFFCURVE",
"75 616 OFFCURVE",
"75 509 CURVE SMOOTH",
"75 -250 LINE",
"128 -250 LINE",
"128 511 LINE SMOOTH",
"128 602 OFFCURVE",
"186 655 OFFCURVE",
"284 655 CURVE SMOOTH",
"384 655 OFFCURVE",
"441 596 OFFCURVE",
"441 524 CURVE SMOOTH",
"441 421 OFFCURVE",
"367 387 OFFCURVE",
"270 387 CURVE SMOOTH",
"237 387 LINE",
"237 341 LINE",
"283 341 LINE SMOOTH",
"390 341 OFFCURVE",
"479 290 OFFCURVE",
"479 186 CURVE SMOOTH",
"479 91 OFFCURVE",
"422 35 OFFCURVE",
"334 35 CURVE SMOOTH"
);
}
);
width = 590;
}
);
note = uni00DF;
unicode = 00DF;
},
{
color = 6;
glyphname = tbar;
lastChange = "2018-03-27 05:32:08 +0000";
layers = (
{
components = (
{
name = t;
}
);
layerId = "0B1DFD06-3317-40CA-B510-4969A0718C16";
paths = (
{
closed = 1;
nodes = (
"50 242 LINE",
"306 242 LINE",
"306 288 LINE",
"50 288 LINE"
);
}
);
width = 397;
}
);
leftKerningGroup = t;
note = tbar;
rightKerningGroup = t;
unicode = 0167;
},
{
color = 6;
glyphname = fi;
lastChange = "2018-03-27 04:52:38 +0000";
layers = (
{
anchors = (
{
name = bottom;
position = "{176, 0}";
},
{
name = top;
position = "{176, 750}";
}
);
layerId = "0B1DFD06-3317-40CA-B510-4969A0718C16";
paths = (
{
closed = 1;
nodes = (
"125 0 LINE",
"177 0 LINE",
"177 439 LINE",
"392 439 LINE",
"404 485 LINE",
"177 485 LINE",
"177 592 LINE SMOOTH",
"177 654 OFFCURVE",
"204 689 OFFCURVE",
"286 689 CURVE SMOOTH",
"335 689 OFFCURVE",
"369 680 OFFCURVE",
"390 671 CURVE",
"401 715 LINE",
"375 724 OFFCURVE",
"335 736 OFFCURVE",
"281 736 CURVE SMOOTH",
"183 736 OFFCURVE",
"125 682 OFFCURVE",
"125 592 CURVE SMOOTH",
"125 485 LINE",
"57 485 LINE",
"45 439 LINE",
"125 439 LINE"
);
},
{
closed = 1;
nodes = (
"377 0 LINE",
"429 0 LINE",
"429 485 LINE",
"377 485 LINE"
);
}
);
width = 509;
}
);
note = fi;
unicode = FB01;
},
{
color = 6;
glyphname = fl;
lastChange = "2018-03-27 04:52:43 +0000";
layers = (
{
layerId = "0B1DFD06-3317-40CA-B510-4969A0718C16";
paths = (
{
closed = 1;
nodes = (
"125 0 LINE",
"177 0 LINE",
"177 439 LINE",
"392 439 LINE",
"404 485 LINE",
"177 485 LINE",
"177 592 LINE SMOOTH",
"177 654 OFFCURVE",
"204 689 OFFCURVE",
"286 689 CURVE SMOOTH",
"335 689 OFFCURVE",
"369 680 OFFCURVE",
"390 671 CURVE",
"401 715 LINE",
"375 724 OFFCURVE",
"335 736 OFFCURVE",
"281 736 CURVE SMOOTH",
"183 736 OFFCURVE",
"125 682 OFFCURVE",
"125 592 CURVE SMOOTH",
"125 485 LINE",
"57 485 LINE",
"45 439 LINE",
"125 439 LINE"
);
},
{
closed = 1;
nodes = (
"377 0 LINE",
"429 0 LINE",
"429 734 LINE",
"377 734 LINE"
);
}
);
width = 509;
}
);
note = fl;
unicode = FB02;
},
{
color = 6;
glyphname = ordfeminine;
lastChange = "2018-04-09 08:53:54 +0000";
layers = (
{
layerId = "0B1DFD06-3317-40CA-B510-4969A0718C16";
paths = (
{
closed = 1;
nodes = (
"290 490 LINE",
"248 490 LINE",
"248 452 LINE",
"230 480 OFFCURVE",
"204 495 OFFCURVE",
"168 495 CURVE SMOOTH",
"102 495 OFFCURVE",
"55 449 OFFCURVE",
"55 365 CURVE SMOOTH",
"55 283 OFFCURVE",
"102 237 OFFCURVE",
"161 237 CURVE SMOOTH",
"200 237 OFFCURVE",
"230 255 OFFCURVE",
"249 283 CURVE",
"251 283 LINE",
"252 258 OFFCURVE",
"259 243 OFFCURVE",
"263 237 CURVE",
"302 246 LINE",
"295 257 OFFCURVE",
"290 274 OFFCURVE",
"290 302 CURVE SMOOTH"
);
},
{
closed = 1;
nodes = (
"220 458 OFFCURVE",
"249 420 OFFCURVE",
"249 380 CURVE SMOOTH",
"249 351 LINE SMOOTH",
"249 302 OFFCURVE",
"214 274 OFFCURVE",
"173 274 CURVE SMOOTH",
"125 274 OFFCURVE",
"99 305 OFFCURVE",
"99 365 CURVE SMOOTH",
"99 427 OFFCURVE",
"122 458 OFFCURVE",
"173 458 CURVE SMOOTH"
);
}
);
width = 357;
}
);
note = ordfeminine;
unicode = 00AA;
},
{
color = 6;
glyphname = ordmasculine;
lastChange = "2018-04-09 08:50:37 +0000";
layers = (
{
layerId = "0B1DFD06-3317-40CA-B510-4969A0718C16";
paths = (
{
closed = 1;
nodes = (
"255 237 OFFCURVE",
"300 297 OFFCURVE",
"300 366 CURVE SMOOTH",
"300 436 OFFCURVE",
"255 495 OFFCURVE",
"177 495 CURVE SMOOTH",
"100 495 OFFCURVE",
"55 436 OFFCURVE",
"55 366 CURVE SMOOTH",
"55 297 OFFCURVE",
"100 237 OFFCURVE",
"177 237 CURVE SMOOTH"
);
},
{
closed = 1;
nodes = (
"128 274 OFFCURVE",
"99 314 OFFCURVE",
"99 366 CURVE SMOOTH",
"99 418 OFFCURVE",
"128 458 OFFCURVE",
"177 458 CURVE SMOOTH",
"227 458 OFFCURVE",
"256 418 OFFCURVE",
"256 366 CURVE SMOOTH",
"256 314 OFFCURVE",
"227 274 OFFCURVE",
"177 274 CURVE SMOOTH"
);
}
);
width = 355;
}
);
note = ordmasculine;
unicode = 00BA;
},
{
color = 6;
glyphname = nmod;
lastChange = "2018-04-09 08:54:14 +0000";
layers = (
{
layerId = "0B1DFD06-3317-40CA-B510-4969A0718C16";
paths = (
{
closed = 1;
nodes = (
"66 244 LINE",
"108 244 LINE",
"108 372 LINE SMOOTH",
"108 417 OFFCURVE",
"136 458 OFFCURVE",
"185 458 CURVE SMOOTH",
"227 458 OFFCURVE",
"245 437 OFFCURVE",
"245 390 CURVE SMOOTH",
"245 291 LINE SMOOTH",
"245 267 OFFCURVE",
"251 251 OFFCURVE",
"257 239 CURVE",
"296 248 LINE",
"291 258 OFFCURVE",
"286 274 OFFCURVE",
"286 291 CURVE SMOOTH",
"287 399 LINE SMOOTH",
"288 459 OFFCURVE",
"250 495 OFFCURVE",
"190 495 CURVE SMOOTH",
"157 495 OFFCURVE",
"125 477 OFFCURVE",
"107 448 CURVE",
"104 470 OFFCURVE",
"98 487 OFFCURVE",
"94 495 CURVE",
"55 485 LINE",
"62 475 OFFCURVE",
"66 458 OFFCURVE",
"66 433 CURVE SMOOTH"
);
}
);
width = 351;
}
);
note = uni207F;
unicode = 207F;
},
{
color = 6;
glyphname = Delta;
lastChange = "2018-04-09 08:40:14 +0000";
layers = (
{
layerId = "0B1DFD06-3317-40CA-B510-4969A0718C16";
paths = (
{
closed = 1;
nodes = (
"363 675 LINE",
"367 680 OFFCURVE",
"369 684 OFFCURVE",
"369 692 CURVE SMOOTH",
"369 703 OFFCURVE",
"357 718 OFFCURVE",
"330 718 CURVE SMOOTH",
"312 718 OFFCURVE",
"300 709 OFFCURVE",
"290 680 CURVE SMOOTH",
"55 0 LINE",
"595 0 LINE"
);
},
{
closed = 1;
nodes = (
"130 47 LINE",
"326 639 LINE",
"522 47 LINE"
);
}
);
width = 650;
}
);
note = Delta;
unicode = 0394;
},
{
color = 6;
glyphname = Omega;
lastChange = "2018-04-10 07:15:26 +0000";
layers = (
{
layerId = "0B1DFD06-3317-40CA-B510-4969A0718C16";
paths = (
{
closed = 1;
nodes = (
"485 661 OFFCURVE",
"580 575 OFFCURVE",
"580 430 CURVE SMOOTH",
"580 284 OFFCURVE",
"515 218 OFFCURVE",
"380 208 CURVE",
"380 0 LINE",
"595 0 LINE",
"595 46 LINE",
"434 46 LINE",
"434 169 LINE",
"552 184 OFFCURVE",
"636 268 OFFCURVE",
"636 430 CURVE SMOOTH",
"636 599 OFFCURVE",
"515 710 OFFCURVE",
"344 710 CURVE SMOOTH",
"173 710 OFFCURVE",
"52 599 OFFCURVE",
"52 430 CURVE SMOOTH",
"52 268 OFFCURVE",
"136 184 OFFCURVE",
"254 169 CURVE",
"254 46 LINE",
"93 46 LINE",
"93 0 LINE",
"308 0 LINE",
"308 208 LINE",
"175 218 OFFCURVE",
"108 281 OFFCURVE",
"108 430 CURVE SMOOTH",
"108 575 OFFCURVE",
"203 661 OFFCURVE",
"344 661 CURVE SMOOTH"
);
}
);
width = 688;
}
);
note = Omega;
unicode = 03A9;
},
{
color = 6;
glyphname = mu;
lastChange = "2018-03-19 09:30:46 +0000";
layers = (
{
layerId = "0B1DFD06-3317-40CA-B510-4969A0718C16";
paths = (
{
closed = 1;
nodes = (
"80 -250 LINE",
"132 -250 LINE",
"132 39 LINE",
"154 7 OFFCURVE",
"201 -10 OFFCURVE",
"251 -10 CURVE SMOOTH",
"318 -10 OFFCURVE",
"372 23 OFFCURVE",
"407 83 CURVE",
"412 39 OFFCURVE",
"423 6 OFFCURVE",
"432 -10 CURVE",
"479 9 LINE",
"465 30 OFFCURVE",
"457 62 OFFCURVE",
"457 113 CURVE SMOOTH",
"457 485 LINE",
"405 485 LINE",
"405 212 LINE SMOOTH",
"405 124 OFFCURVE",
"352 37 OFFCURVE",
"259 37 CURVE SMOOTH",
"170 37 OFFCURVE",
"132 84 OFFCURVE",
"132 178 CURVE SMOOTH",
"132 485 LINE",
"80 485 LINE"
);
}
);
width = 534;
}
);
note = mu;
unicode = 03BC;
},
{
color = 6;
glyphname = pi;
lastChange = "2018-04-10 07:10:31 +0000";
layers = (
{
layerId = "0B1DFD06-3317-40CA-B510-4969A0718C16";
paths = (
{
closed = 1;
nodes = (
"145 424 LINE",
"145 0 LINE",
"199 0 LINE",
"199 424 LINE",
"406 424 LINE",
"406 112 LINE SMOOTH",
"406 37 OFFCURVE",
"427 -9 OFFCURVE",
"501 -9 CURVE SMOOTH",
"530 -9 OFFCURVE",
"559 -3 OFFCURVE",
"577 5 CURVE",
"563 46 LINE",
"549 39 OFFCURVE",
"531 36 OFFCURVE",
"506 36 CURVE SMOOTH",
"470 36 OFFCURVE",
"458 56 OFFCURVE",
"458 113 CURVE SMOOTH",
"458 424 LINE",
"569 424 LINE",
"569 470 LINE",
"45 470 LINE",
"45 424 LINE"
);
}
);
width = 622;
}
);
note = pi;
unicode = 03C0;
},
{
color = 6;
glyphname = "koKai-thai";
lastChange = "2018-04-05 11:16:42 +0000";
layers = (
{
layerId = "0B1DFD06-3317-40CA-B510-4969A0718C16";
paths = (
{
closed = 1;
nodes = (
"485 0 LINE",
"537 0 LINE",
"537 419 LINE SMOOTH",
"537 459 OFFCURVE",
"565 462 OFFCURVE",
"565 481 CURVE SMOOTH",
"565 486 OFFCURVE",
"563 494 OFFCURVE",
"553 503 CURVE SMOOTH",
"536 518 OFFCURVE",
"525 515 OFFCURVE",
"519 507 CURVE",
"469 566 OFFCURVE",
"416 603 OFFCURVE",
"311 603 CURVE SMOOTH",
"173 603 OFFCURVE",
"71 515 OFFCURVE",
"55 419 CURVE",
"145 359 LINE",
"138 348 OFFCURVE",
"132 328 OFFCURVE",
"132 304 CURVE SMOOTH",
"132 0 LINE",
"184 0 LINE",
"184 303 LINE SMOOTH",
"184 352 OFFCURVE",
"203 385 OFFCURVE",
"254 408 CURVE",
"232 446 LINE",
"207 438 OFFCURVE",
"180 417 OFFCURVE",
"168 402 CURVE",
"111 439 LINE",
"133 498 OFFCURVE",
"203 558 OFFCURVE",
"312 558 CURVE SMOOTH",
"404 558 OFFCURVE",
"457 517 OFFCURVE",
"493 462 CURVE",
"486 451 OFFCURVE",
"485 436 OFFCURVE",
"485 419 CURVE SMOOTH"
);
}
);
width = 630;
}
);
note = uni0E01;
unicode = 0E01;
},
{
color = 6;
glyphname = "thoThung-thai";
lastChange = "2018-04-05 11:16:47 +0000";
layers = (
{
layerId = "0B1DFD06-3317-40CA-B510-4969A0718C16";
paths = (
{
closed = 1;
nodes = (
"184 303 LINE SMOOTH",
"184 352 OFFCURVE",
"203 385 OFFCURVE",
"254 408 CURVE",
"232 446 LINE",
"207 438 OFFCURVE",
"180 417 OFFCURVE",
"168 402 CURVE",
"111 439 LINE",
"133 498 OFFCURVE",
"203 558 OFFCURVE",
"312 558 CURVE SMOOTH",
"406 558 OFFCURVE",
"457 517 OFFCURVE",
"493 462 CURVE",
"486 451 OFFCURVE",
"485 436 OFFCURVE",
"485 419 CURVE SMOOTH",
"485 0 LINE",
"537 0 LINE",
"537 419 LINE SMOOTH",
"537 459 OFFCURVE",
"565 462 OFFCURVE",
"565 481 CURVE SMOOTH",
"565 486 OFFCURVE",
"563 494 OFFCURVE",
"553 503 CURVE SMOOTH",
"536 518 OFFCURVE",
"525 515 OFFCURVE",
"519 507 CURVE",
"469 566 OFFCURVE",
"416 603 OFFCURVE",
"311 603 CURVE SMOOTH",
"173 603 OFFCURVE",
"71 515 OFFCURVE",
"55 419 CURVE",
"145 359 LINE",
"138 348 OFFCURVE",
"132 328 OFFCURVE",
"132 304 CURVE SMOOTH",
"132 83 LINE SMOOTH",
"132 30 OFFCURVE",
"171 -10 OFFCURVE",
"225 -10 CURVE SMOOTH",
"279 -10 OFFCURVE",
"320 27 OFFCURVE",
"320 80 CURVE SMOOTH",
"320 133 OFFCURVE",
"286 169 OFFCURVE",
"229 169 CURVE SMOOTH",
"215 169 OFFCURVE",
"197 164 OFFCURVE",
"184 156 CURVE"
);
},
{
closed = 1;
nodes = (
"253 127 OFFCURVE",
"274 108 OFFCURVE",
"274 80 CURVE SMOOTH",
"274 53 OFFCURVE",
"253 33 OFFCURVE",
"225 33 CURVE SMOOTH",
"199 33 OFFCURVE",
"178 53 OFFCURVE",
"178 80 CURVE SMOOTH",
"178 108 OFFCURVE",
"199 127 OFFCURVE",
"225 127 CURVE SMOOTH"
);
}
);
width = 630;
}
);
note = uni0E16;
unicode = 0E16;
},
{
color = 6;
glyphname = "phoSamphao-thai";
lastChange = "2018-04-05 11:16:52 +0000";
layers = (
{
layerId = "0B1DFD06-3317-40CA-B510-4969A0718C16";
paths = (
{
closed = 1;
nodes = (
"166 127 OFFCURVE",
"187 108 OFFCURVE",
"187 80 CURVE SMOOTH",
"187 53 OFFCURVE",
"166 33 OFFCURVE",
"140 33 CURVE SMOOTH",
"112 33 OFFCURVE",
"91 53 OFFCURVE",
"91 80 CURVE SMOOTH",
"91 108 OFFCURVE",
"112 127 OFFCURVE",
"140 127 CURVE SMOOTH"
);
},
{
closed = 1;
nodes = (
"196 -10 OFFCURVE",
"233 32 OFFCURVE",
"233 80 CURVE SMOOTH",
"233 92 OFFCURVE",
"230 108 OFFCURVE",
"226 118 CURVE",
"226 294 LINE SMOOTH",
"226 342 OFFCURVE",
"237 379 OFFCURVE",
"291 403 CURVE",
"269 442 LINE",
"248 437 OFFCURVE",
"218 412 OFFCURVE",
"206 397 CURVE",
"131 441 LINE",
"153 500 OFFCURVE",
"231 558 OFFCURVE",
"330 558 CURVE SMOOTH",
"423 558 OFFCURVE",
"475 517 OFFCURVE",
"511 462 CURVE",
"504 451 OFFCURVE",
"503 436 OFFCURVE",
"503 419 CURVE SMOOTH",
"503 0 LINE",
"555 0 LINE",
"555 419 LINE SMOOTH",
"555 459 OFFCURVE",
"583 462 OFFCURVE",
"583 481 CURVE SMOOTH",
"583 486 OFFCURVE",
"581 494 OFFCURVE",
"571 503 CURVE SMOOTH",
"554 518 OFFCURVE",
"543 515 OFFCURVE",
"537 507 CURVE",
"487 566 OFFCURVE",
"434 603 OFFCURVE",
"329 603 CURVE SMOOTH",
"197 603 OFFCURVE",
"94 518 OFFCURVE",
"73 419 CURVE",
"182 355 LINE",
"175 344 OFFCURVE",
"174 319 OFFCURVE",
"174 295 CURVE SMOOTH",
"174 161 LINE",
"163 166 OFFCURVE",
"151 169 OFFCURVE",
"139 169 CURVE SMOOTH",
"88 169 OFFCURVE",
"45 132 OFFCURVE",
"45 79 CURVE SMOOTH",
"45 30 OFFCURVE",
"84 -10 OFFCURVE",
"140 -10 CURVE SMOOTH"
);
}
);
width = 638;
}
);
note = uni0E20;
unicode = 0E20;
},
{
color = 6;
glyphname = "ru-thai";
lastChange = "2018-04-05 11:16:57 +0000";
layers = (
{
layerId = "0B1DFD06-3317-40CA-B510-4969A0718C16";
paths = (
{
closed = 1;
nodes = (
"253 127 OFFCURVE",
"274 108 OFFCURVE",
"274 80 CURVE SMOOTH",
"274 53 OFFCURVE",
"253 33 OFFCURVE",
"225 33 CURVE SMOOTH",
"199 33 OFFCURVE",
"178 53 OFFCURVE",
"178 80 CURVE SMOOTH",
"178 108 OFFCURVE",
"199 127 OFFCURVE",
"225 127 CURVE SMOOTH"
);
},
{
closed = 1;
nodes = (
"132 30 OFFCURVE",
"171 -10 OFFCURVE",
"225 -10 CURVE SMOOTH",
"279 -10 OFFCURVE",
"320 27 OFFCURVE",
"320 80 CURVE SMOOTH",
"320 133 OFFCURVE",
"286 169 OFFCURVE",
"229 169 CURVE SMOOTH",
"215 169 OFFCURVE",
"197 164 OFFCURVE",
"184 156 CURVE",
"184 303 LINE SMOOTH",
"184 352 OFFCURVE",
"203 385 OFFCURVE",
"254 408 CURVE",
"232 446 LINE",
"207 438 OFFCURVE",
"180 417 OFFCURVE",
"168 402 CURVE",
"111 439 LINE",
"133 498 OFFCURVE",
"204 558 OFFCURVE",
"313 558 CURVE SMOOTH",
"407 558 OFFCURVE",
"459 517 OFFCURVE",
"495 462 CURVE",
"488 451 OFFCURVE",
"487 436 OFFCURVE",
"487 419 CURVE SMOOTH",
"487 -359 LINE",
"539 -359 LINE",
"539 419 LINE SMOOTH",
"539 459 OFFCURVE",
"567 462 OFFCURVE",
"567 481 CURVE SMOOTH",
"567 486 OFFCURVE",
"565 494 OFFCURVE",
"555 503 CURVE SMOOTH",
"538 518 OFFCURVE",
"527 515 OFFCURVE",
"521 507 CURVE",
"471 566 OFFCURVE",
"417 603 OFFCURVE",
"312 603 CURVE SMOOTH",
"174 603 OFFCURVE",
"71 515 OFFCURVE",
"55 419 CURVE",
"145 359 LINE",
"138 348 OFFCURVE",
"132 328 OFFCURVE",
"132 304 CURVE SMOOTH",
"132 83 LINE SMOOTH"
);
}
);
width = 632;
}
);
note = uni0E24;
unicode = 0E24;
},
{
color = 6;
glyphname = "ru-thai.short";
lastChange = "2018-04-05 11:17:02 +0000";
layers = (
{
layerId = "0B1DFD06-3317-40CA-B510-4969A0718C16";
paths = (
{
closed = 1;
nodes = (
"253 127 OFFCURVE",
"274 108 OFFCURVE",
"274 80 CURVE SMOOTH",
"274 53 OFFCURVE",
"253 33 OFFCURVE",
"225 33 CURVE SMOOTH",
"199 33 OFFCURVE",
"178 53 OFFCURVE",
"178 80 CURVE SMOOTH",
"178 108 OFFCURVE",
"199 127 OFFCURVE",
"225 127 CURVE SMOOTH"
);
},
{
closed = 1;
nodes = (
"132 30 OFFCURVE",
"171 -10 OFFCURVE",
"225 -10 CURVE SMOOTH",
"279 -10 OFFCURVE",
"320 27 OFFCURVE",
"320 80 CURVE SMOOTH",
"320 133 OFFCURVE",
"286 169 OFFCURVE",
"229 169 CURVE SMOOTH",
"215 169 OFFCURVE",
"197 164 OFFCURVE",
"184 156 CURVE",
"184 303 LINE SMOOTH",
"184 352 OFFCURVE",
"203 385 OFFCURVE",
"254 408 CURVE",
"232 446 LINE",
"207 438 OFFCURVE",
"180 417 OFFCURVE",
"168 402 CURVE",
"111 439 LINE",
"133 498 OFFCURVE",
"204 558 OFFCURVE",
"313 558 CURVE SMOOTH",
"407 558 OFFCURVE",
"459 517 OFFCURVE",
"495 462 CURVE",
"488 451 OFFCURVE",
"487 436 OFFCURVE",
"487 419 CURVE SMOOTH",
"487 -159 LINE",
"539 -159 LINE",
"539 419 LINE SMOOTH",
"539 459 OFFCURVE",
"567 462 OFFCURVE",
"567 481 CURVE SMOOTH",
"567 486 OFFCURVE",
"565 494 OFFCURVE",
"555 503 CURVE SMOOTH",
"538 518 OFFCURVE",
"527 515 OFFCURVE",
"521 507 CURVE",
"471 566 OFFCURVE",
"417 603 OFFCURVE",
"312 603 CURVE SMOOTH",
"174 603 OFFCURVE",
"71 515 OFFCURVE",
"55 419 CURVE",
"145 359 LINE",
"138 348 OFFCURVE",
"132 328 OFFCURVE",
"132 304 CURVE SMOOTH",
"132 83 LINE SMOOTH"
);
}
);
width = 632;
}
);
note = "ru-thai.short";
},
{
color = 6;
glyphname = "lu-thai";
lastChange = "2018-04-05 11:17:10 +0000";
layers = (
{
layerId = "0B1DFD06-3317-40CA-B510-4969A0718C16";
paths = (
{
closed = 1;
nodes = (
"166 127 OFFCURVE",
"187 108 OFFCURVE",
"187 80 CURVE SMOOTH",
"187 53 OFFCURVE",
"166 33 OFFCURVE",
"140 33 CURVE SMOOTH",
"112 33 OFFCURVE",
"91 53 OFFCURVE",
"91 80 CURVE SMOOTH",
"91 108 OFFCURVE",
"112 127 OFFCURVE",
"140 127 CURVE SMOOTH"
);
},
{
closed = 1;
nodes = (
"163 166 OFFCURVE",
"151 169 OFFCURVE",
"139 169 CURVE SMOOTH",
"88 169 OFFCURVE",
"45 132 OFFCURVE",
"45 79 CURVE SMOOTH",
"45 30 OFFCURVE",
"84 -10 OFFCURVE",
"140 -10 CURVE SMOOTH",
"196 -10 OFFCURVE",
"233 32 OFFCURVE",
"233 80 CURVE SMOOTH",
"233 92 OFFCURVE",
"230 108 OFFCURVE",
"226 118 CURVE",
"226 294 LINE SMOOTH",
"226 342 OFFCURVE",
"237 379 OFFCURVE",
"291 403 CURVE",
"269 442 LINE",
"248 437 OFFCURVE",
"218 412 OFFCURVE",
"206 397 CURVE",
"131 441 LINE",
"153 500 OFFCURVE",
"232 558 OFFCURVE",
"331 558 CURVE SMOOTH",
"424 558 OFFCURVE",
"477 517 OFFCURVE",
"513 462 CURVE",
"506 451 OFFCURVE",
"505 436 OFFCURVE",
"505 419 CURVE SMOOTH",
"505 -359 LINE",
"557 -359 LINE",
"557 419 LINE SMOOTH",
"557 459 OFFCURVE",
"585 462 OFFCURVE",
"585 481 CURVE SMOOTH",
"585 486 OFFCURVE",
"583 494 OFFCURVE",
"573 503 CURVE SMOOTH",
"556 518 OFFCURVE",
"545 515 OFFCURVE",
"539 507 CURVE",
"489 566 OFFCURVE",
"435 603 OFFCURVE",
"330 603 CURVE SMOOTH",
"198 603 OFFCURVE",
"94 518 OFFCURVE",
"73 419 CURVE",
"182 355 LINE",
"175 344 OFFCURVE",
"174 319 OFFCURVE",
"174 295 CURVE SMOOTH",
"174 161 LINE"
);
}
);
width = 650;
}
);
note = uni0E26;
unicode = 0E26;
},
{
color = 6;
glyphname = "lu-thai.short";
lastChange = "2018-04-05 11:17:16 +0000";
layers = (
{
layerId = "0B1DFD06-3317-40CA-B510-4969A0718C16";
paths = (
{
closed = 1;
nodes = (
"166 127 OFFCURVE",
"187 108 OFFCURVE",
"187 80 CURVE SMOOTH",
"187 53 OFFCURVE",
"166 33 OFFCURVE",
"140 33 CURVE SMOOTH",
"112 33 OFFCURVE",
"91 53 OFFCURVE",
"91 80 CURVE SMOOTH",
"91 108 OFFCURVE",
"112 127 OFFCURVE",
"140 127 CURVE SMOOTH"
);
},
{
closed = 1;
nodes = (
"163 166 OFFCURVE",
"151 169 OFFCURVE",
"139 169 CURVE SMOOTH",
"88 169 OFFCURVE",
"45 132 OFFCURVE",
"45 79 CURVE SMOOTH",
"45 30 OFFCURVE",
"84 -10 OFFCURVE",
"140 -10 CURVE SMOOTH",
"196 -10 OFFCURVE",
"233 32 OFFCURVE",
"233 80 CURVE SMOOTH",
"233 92 OFFCURVE",
"230 108 OFFCURVE",
"226 118 CURVE",
"226 294 LINE SMOOTH",
"226 342 OFFCURVE",
"237 379 OFFCURVE",
"291 403 CURVE",
"269 442 LINE",
"248 437 OFFCURVE",
"218 412 OFFCURVE",
"206 397 CURVE",
"131 441 LINE",
"153 500 OFFCURVE",
"232 558 OFFCURVE",
"331 558 CURVE SMOOTH",
"424 558 OFFCURVE",
"477 517 OFFCURVE",
"513 462 CURVE",
"506 451 OFFCURVE",
"505 436 OFFCURVE",
"505 419 CURVE SMOOTH",
"505 -159 LINE",
"557 -159 LINE",
"557 419 LINE SMOOTH",
"557 459 OFFCURVE",
"585 462 OFFCURVE",
"585 481 CURVE SMOOTH",
"585 486 OFFCURVE",
"583 494 OFFCURVE",
"573 503 CURVE SMOOTH",
"556 518 OFFCURVE",
"545 515 OFFCURVE",
"539 507 CURVE",
"489 566 OFFCURVE",
"435 603 OFFCURVE",
"330 603 CURVE SMOOTH",
"198 603 OFFCURVE",
"94 518 OFFCURVE",
"73 419 CURVE",
"182 355 LINE",
"175 344 OFFCURVE",
"174 319 OFFCURVE",
"174 295 CURVE SMOOTH",
"174 161 LINE"
);
}
);
width = 650;
}
);
note = "lu-thai.short";
},
{
color = 6;
glyphname = "doChada-thai";
lastChange = "2018-04-05 11:17:48 +0000";
layers = (
{
layerId = "0B1DFD06-3317-40CA-B510-4969A0718C16";
paths = (
{
closed = 1;
nodes = (
"233 -231 LINE SMOOTH",
"233 -290 OFFCURVE",
"217 -316 OFFCURVE",
"173 -316 CURVE SMOOTH",
"140 -316 OFFCURVE",
"122 -291 OFFCURVE",
"122 -262 CURVE SMOOTH",
"122 -218 OFFCURVE",
"158 -193 OFFCURVE",
"233 -204 CURVE"
);
},
{
closed = 1;
nodes = (
"166 127 OFFCURVE",
"187 108 OFFCURVE",
"187 80 CURVE SMOOTH",
"187 53 OFFCURVE",
"166 33 OFFCURVE",
"140 33 CURVE SMOOTH",
"112 33 OFFCURVE",
"91 53 OFFCURVE",
"91 80 CURVE SMOOTH",
"91 108 OFFCURVE",
"112 127 OFFCURVE",
"140 127 CURVE SMOOTH"
);
},
{
closed = 1;
nodes = (
"163 166 OFFCURVE",
"151 169 OFFCURVE",
"139 169 CURVE SMOOTH",
"88 169 OFFCURVE",
"45 132 OFFCURVE",
"45 79 CURVE SMOOTH",
"45 30 OFFCURVE",
"84 -10 OFFCURVE",
"140 -10 CURVE SMOOTH",
"196 -10 OFFCURVE",
"233 32 OFFCURVE",
"233 80 CURVE SMOOTH",
"233 92 OFFCURVE",
"230 108 OFFCURVE",
"226 118 CURVE",
"226 294 LINE SMOOTH",
"226 342 OFFCURVE",
"237 379 OFFCURVE",
"291 403 CURVE",
"269 442 LINE",
"248 437 OFFCURVE",
"218 412 OFFCURVE",
"206 397 CURVE",
"131 441 LINE",
"153 500 OFFCURVE",
"232 558 OFFCURVE",
"331 558 CURVE SMOOTH",
"424 558 OFFCURVE",
"477 517 OFFCURVE",
"513 462 CURVE",
"506 451 OFFCURVE",
"505 436 OFFCURVE",
"505 419 CURVE SMOOTH",
"505 -178 LINE SMOOTH",
"505 -231 OFFCURVE",
"487 -267 OFFCURVE",
"442 -291 CURVE",
"413 -230 OFFCURVE",
"358 -184 OFFCURVE",
"285 -165 CURVE",
"285 -108 LINE",
"233 -108 LINE",
"233 -161 LINE",
"151 -151 OFFCURVE",
"74 -186 OFFCURVE",
"74 -261 CURVE SMOOTH",
"74 -320 OFFCURVE",
"113 -359 OFFCURVE",
"173 -359 CURVE SMOOTH",
"254 -359 OFFCURVE",
"285 -295 OFFCURVE",
"285 -228 CURVE SMOOTH",
"285 -212 LINE",
"338 -224 OFFCURVE",
"376 -262 OFFCURVE",
"403 -313 CURVE",
"390 -324 OFFCURVE",
"386 -334 OFFCURVE",
"394 -347 CURVE SMOOTH",
"402 -361 OFFCURVE",
"418 -362 OFFCURVE",
"433 -355 CURVE SMOOTH",
"503 -322 OFFCURVE",
"557 -269 OFFCURVE",
"557 -178 CURVE SMOOTH",
"557 419 LINE SMOOTH",
"557 459 OFFCURVE",
"585 462 OFFCURVE",
"585 481 CURVE SMOOTH",
"585 486 OFFCURVE",
"583 494 OFFCURVE",
"573 503 CURVE SMOOTH",
"556 518 OFFCURVE",
"545 515 OFFCURVE",
"539 507 CURVE",
"489 566 OFFCURVE",
"435 603 OFFCURVE",
"330 603 CURVE SMOOTH",
"198 603 OFFCURVE",
"94 518 OFFCURVE",
"73 419 CURVE",
"182 355 LINE",
"175 344 OFFCURVE",
"174 319 OFFCURVE",
"174 295 CURVE SMOOTH",
"174 161 LINE"
);
}
);
width = 650;
}
);
note = uni0E0E;
unicode = 0E0E;
},
{
color = 6;
glyphname = "doChada-thai.short";
lastChange = "2018-04-05 11:17:55 +0000";
layers = (
{
layerId = "0B1DFD06-3317-40CA-B510-4969A0718C16";
paths = (
{
closed = 1;
nodes = (
"233 -122 LINE SMOOTH",
"233 -181 OFFCURVE",
"217 -207 OFFCURVE",
"173 -207 CURVE SMOOTH",
"140 -207 OFFCURVE",
"122 -182 OFFCURVE",
"122 -153 CURVE SMOOTH",
"122 -109 OFFCURVE",
"158 -84 OFFCURVE",
"233 -95 CURVE"
);
},
{
closed = 1;
nodes = (
"166 127 OFFCURVE",
"187 108 OFFCURVE",
"187 80 CURVE SMOOTH",
"187 53 OFFCURVE",
"166 33 OFFCURVE",
"140 33 CURVE SMOOTH",
"112 33 OFFCURVE",
"91 53 OFFCURVE",
"91 80 CURVE SMOOTH",
"91 108 OFFCURVE",
"112 127 OFFCURVE",
"140 127 CURVE SMOOTH"
);
},
{
closed = 1;
nodes = (
"163 166 OFFCURVE",
"151 169 OFFCURVE",
"139 169 CURVE SMOOTH",
"88 169 OFFCURVE",
"45 132 OFFCURVE",
"45 79 CURVE SMOOTH",
"45 30 OFFCURVE",
"84 -10 OFFCURVE",
"140 -10 CURVE SMOOTH",
"196 -10 OFFCURVE",
"233 32 OFFCURVE",
"233 80 CURVE SMOOTH",
"233 92 OFFCURVE",
"230 108 OFFCURVE",
"226 118 CURVE",
"226 294 LINE SMOOTH",
"226 342 OFFCURVE",
"237 379 OFFCURVE",
"291 403 CURVE",
"269 442 LINE",
"248 437 OFFCURVE",
"218 412 OFFCURVE",
"206 397 CURVE",
"131 441 LINE",
"153 500 OFFCURVE",
"232 558 OFFCURVE",
"331 558 CURVE SMOOTH",
"424 558 OFFCURVE",
"477 517 OFFCURVE",
"513 462 CURVE",
"506 451 OFFCURVE",
"505 436 OFFCURVE",
"505 419 CURVE SMOOTH",
"505 -69 LINE SMOOTH",
"505 -122 OFFCURVE",
"487 -158 OFFCURVE",
"442 -182 CURVE",
"413 -121 OFFCURVE",
"358 -75 OFFCURVE",
"285 -56 CURVE",
"285 -12 LINE",
"233 -12 LINE",
"233 -52 LINE",
"151 -42 OFFCURVE",
"74 -77 OFFCURVE",
"74 -152 CURVE SMOOTH",
"74 -211 OFFCURVE",
"113 -250 OFFCURVE",
"173 -250 CURVE SMOOTH",
"254 -250 OFFCURVE",
"285 -186 OFFCURVE",
"285 -119 CURVE SMOOTH",
"285 -103 LINE",
"338 -115 OFFCURVE",
"376 -153 OFFCURVE",
"403 -204 CURVE",
"390 -215 OFFCURVE",
"386 -225 OFFCURVE",
"394 -238 CURVE SMOOTH",
"402 -252 OFFCURVE",
"418 -253 OFFCURVE",
"433 -246 CURVE SMOOTH",
"503 -213 OFFCURVE",
"557 -160 OFFCURVE",
"557 -69 CURVE SMOOTH",
"557 419 LINE SMOOTH",
"557 459 OFFCURVE",
"585 462 OFFCURVE",
"585 481 CURVE SMOOTH",
"585 486 OFFCURVE",
"583 494 OFFCURVE",
"573 503 CURVE SMOOTH",
"556 518 OFFCURVE",
"545 515 OFFCURVE",
"539 507 CURVE",
"489 566 OFFCURVE",
"435 603 OFFCURVE",
"330 603 CURVE SMOOTH",
"198 603 OFFCURVE",
"94 518 OFFCURVE",
"73 419 CURVE",
"182 355 LINE",
"175 344 OFFCURVE",
"174 319 OFFCURVE",
"174 295 CURVE SMOOTH",
"174 161 LINE"
);
}
);
width = 650;
}
);
note = "doChada-thai.short";
},
{
color = 6;
glyphname = "toPatak-thai";
lastChange = "2018-04-05 11:18:04 +0000";
layers = (
{
layerId = "0B1DFD06-3317-40CA-B510-4969A0718C16";
paths = (
{
closed = 1;
nodes = (
"202 -233 LINE SMOOTH",
"202 -292 OFFCURVE",
"186 -316 OFFCURVE",
"142 -316 CURVE SMOOTH",
"109 -316 OFFCURVE",
"93 -293 OFFCURVE",
"93 -264 CURVE SMOOTH",
"93 -220 OFFCURVE",
"127 -197 OFFCURVE",
"202 -208 CURVE"
);
},
{
closed = 1;
nodes = (
"167 127 OFFCURVE",
"188 108 OFFCURVE",
"188 80 CURVE SMOOTH",
"188 53 OFFCURVE",
"167 33 OFFCURVE",
"141 33 CURVE SMOOTH",
"113 33 OFFCURVE",
"92 53 OFFCURVE",
"92 80 CURVE SMOOTH",
"92 108 OFFCURVE",
"113 127 OFFCURVE",
"141 127 CURVE SMOOTH"
);
},
{
closed = 1;
nodes = (
"164 166 OFFCURVE",
"152 169 OFFCURVE",
"140 169 CURVE SMOOTH",
"89 169 OFFCURVE",
"46 132 OFFCURVE",
"46 79 CURVE SMOOTH",
"46 30 OFFCURVE",
"85 -10 OFFCURVE",
"141 -10 CURVE SMOOTH",
"197 -10 OFFCURVE",
"234 32 OFFCURVE",
"234 80 CURVE SMOOTH",
"234 92 OFFCURVE",
"231 108 OFFCURVE",
"227 118 CURVE",
"227 294 LINE SMOOTH",
"227 342 OFFCURVE",
"238 379 OFFCURVE",
"292 403 CURVE",
"270 442 LINE",
"249 437 OFFCURVE",
"219 412 OFFCURVE",
"207 397 CURVE",
"132 441 LINE",
"154 500 OFFCURVE",
"233 558 OFFCURVE",
"332 558 CURVE SMOOTH",
"425 558 OFFCURVE",
"478 517 OFFCURVE",
"514 462 CURVE",
"507 451 OFFCURVE",
"506 436 OFFCURVE",
"506 419 CURVE SMOOTH",
"506 -291 LINE SMOOTH",
"506 -306 OFFCURVE",
"494 -314 OFFCURVE",
"485 -314 CURVE SMOOTH",
"478 -314 OFFCURVE",
"470 -310 OFFCURVE",
"461 -299 CURVE SMOOTH",
"428 -262 LINE SMOOTH",
"419 -252 OFFCURVE",
"407 -244 OFFCURVE",
"389 -244 CURVE SMOOTH",
"369 -244 OFFCURVE",
"355 -255 OFFCURVE",
"340 -276 CURVE",
"329 -228 OFFCURVE",
"300 -191 OFFCURVE",
"253 -172 CURVE",
"253 -112 LINE",
"201 -112 LINE",
"201 -165 LINE",
"119 -155 OFFCURVE",
"45 -188 OFFCURVE",
"45 -263 CURVE SMOOTH",
"45 -322 OFFCURVE",
"82 -359 OFFCURVE",
"142 -359 CURVE SMOOTH",
"223 -359 OFFCURVE",
"254 -302 OFFCURVE",
"254 -228 CURVE SMOOTH",
"254 -217 LINE",
"282 -232 OFFCURVE",
"302 -256 OFFCURVE",
"310 -308 CURVE",
"299 -323 LINE SMOOTH",
"291 -334 OFFCURVE",
"291 -344 OFFCURVE",
"303 -353 CURVE SMOOTH",
"314 -362 OFFCURVE",
"326 -361 OFFCURVE",
"335 -349 CURVE SMOOTH",
"366 -305 LINE SMOOTH",
"374 -293 OFFCURVE",
"380 -289 OFFCURVE",
"389 -289 CURVE SMOOTH",
"398 -289 OFFCURVE",
"402 -294 OFFCURVE",
"412 -305 CURVE SMOOTH",
"438 -334 LINE SMOOTH",
"451 -348 OFFCURVE",
"468 -359 OFFCURVE",
"492 -359 CURVE SMOOTH",
"540 -359 OFFCURVE",
"558 -324 OFFCURVE",
"558 -274 CURVE SMOOTH",
"558 419 LINE SMOOTH",
"558 459 OFFCURVE",
"586 462 OFFCURVE",
"586 481 CURVE SMOOTH",
"586 486 OFFCURVE",
"584 493 OFFCURVE",
"574 503 CURVE SMOOTH",
"561 516 OFFCURVE",
"548 512 OFFCURVE",
"541 504 CURVE",
"491 563 OFFCURVE",
"436 603 OFFCURVE",
"331 603 CURVE SMOOTH",
"199 603 OFFCURVE",
"95 518 OFFCURVE",
"74 419 CURVE",
"183 355 LINE",
"176 344 OFFCURVE",
"175 319 OFFCURVE",
"175 295 CURVE SMOOTH",
"175 161 LINE"
);
}
);
width = 651;
}
);
note = uni0E0F;
unicode = 0E0F;
},
{
color = 6;
glyphname = "toPatak-thai.short";
lastChange = "2018-04-05 11:18:08 +0000";
layers = (
{
layerId = "0B1DFD06-3317-40CA-B510-4969A0718C16";
paths = (
{
closed = 1;
nodes = (
"202 -124 LINE SMOOTH",
"202 -183 OFFCURVE",
"186 -207 OFFCURVE",
"142 -207 CURVE SMOOTH",
"109 -207 OFFCURVE",
"93 -184 OFFCURVE",
"93 -155 CURVE SMOOTH",
"93 -111 OFFCURVE",
"127 -88 OFFCURVE",
"202 -99 CURVE"
);
},
{
closed = 1;
nodes = (
"167 127 OFFCURVE",
"188 108 OFFCURVE",
"188 80 CURVE SMOOTH",
"188 53 OFFCURVE",
"167 33 OFFCURVE",
"141 33 CURVE SMOOTH",
"113 33 OFFCURVE",
"92 53 OFFCURVE",
"92 80 CURVE SMOOTH",
"92 108 OFFCURVE",
"113 127 OFFCURVE",
"141 127 CURVE SMOOTH"
);
},
{
closed = 1;
nodes = (
"164 166 OFFCURVE",
"152 169 OFFCURVE",
"140 169 CURVE SMOOTH",
"89 169 OFFCURVE",
"46 132 OFFCURVE",
"46 79 CURVE SMOOTH",
"46 30 OFFCURVE",
"85 -10 OFFCURVE",
"141 -10 CURVE SMOOTH",
"197 -10 OFFCURVE",
"234 32 OFFCURVE",
"234 80 CURVE SMOOTH",
"234 92 OFFCURVE",
"231 108 OFFCURVE",
"227 118 CURVE",
"227 294 LINE SMOOTH",
"227 342 OFFCURVE",
"238 379 OFFCURVE",
"292 403 CURVE",
"270 442 LINE",
"249 437 OFFCURVE",
"219 412 OFFCURVE",
"207 397 CURVE",
"132 441 LINE",
"154 500 OFFCURVE",
"233 558 OFFCURVE",
"332 558 CURVE SMOOTH",
"425 558 OFFCURVE",
"478 517 OFFCURVE",
"514 462 CURVE",
"507 451 OFFCURVE",
"506 436 OFFCURVE",
"506 419 CURVE SMOOTH",
"506 -182 LINE SMOOTH",
"506 -197 OFFCURVE",
"494 -205 OFFCURVE",
"485 -205 CURVE SMOOTH",
"478 -205 OFFCURVE",
"470 -201 OFFCURVE",
"461 -190 CURVE SMOOTH",
"428 -153 LINE SMOOTH",
"419 -143 OFFCURVE",
"407 -135 OFFCURVE",
"389 -135 CURVE SMOOTH",
"369 -135 OFFCURVE",
"355 -146 OFFCURVE",
"340 -167 CURVE",
"329 -119 OFFCURVE",
"300 -82 OFFCURVE",
"253 -63 CURVE",
"253 -25 LINE",
"201 -25 LINE",
"201 -56 LINE",
"119 -46 OFFCURVE",
"45 -79 OFFCURVE",
"45 -154 CURVE SMOOTH",
"45 -213 OFFCURVE",
"82 -250 OFFCURVE",
"142 -250 CURVE SMOOTH",
"223 -250 OFFCURVE",
"254 -193 OFFCURVE",
"254 -119 CURVE SMOOTH",
"254 -108 LINE",
"282 -123 OFFCURVE",
"302 -147 OFFCURVE",
"310 -199 CURVE",
"299 -214 LINE SMOOTH",
"291 -225 OFFCURVE",
"291 -235 OFFCURVE",
"303 -244 CURVE SMOOTH",
"314 -253 OFFCURVE",
"326 -252 OFFCURVE",
"335 -240 CURVE SMOOTH",
"366 -196 LINE SMOOTH",
"374 -184 OFFCURVE",
"380 -180 OFFCURVE",
"389 -180 CURVE SMOOTH",
"398 -180 OFFCURVE",
"402 -185 OFFCURVE",
"412 -196 CURVE SMOOTH",
"438 -225 LINE SMOOTH",
"451 -239 OFFCURVE",
"468 -250 OFFCURVE",
"492 -250 CURVE SMOOTH",
"540 -250 OFFCURVE",
"558 -215 OFFCURVE",
"558 -165 CURVE SMOOTH",
"558 419 LINE SMOOTH",
"558 459 OFFCURVE",
"586 462 OFFCURVE",
"586 481 CURVE SMOOTH",
"586 486 OFFCURVE",
"584 493 OFFCURVE",
"574 503 CURVE SMOOTH",
"561 516 OFFCURVE",
"548 512 OFFCURVE",
"541 504 CURVE",
"491 563 OFFCURVE",
"436 603 OFFCURVE",
"331 603 CURVE SMOOTH",
"199 603 OFFCURVE",
"95 518 OFFCURVE",
"74 419 CURVE",
"183 355 LINE",
"176 344 OFFCURVE",
"175 319 OFFCURVE",
"175 295 CURVE SMOOTH",
"175 161 LINE"
);
}
);
width = 651;
}
);
note = "toPatak-thai.short";
},
{
color = 6;
glyphname = "ru_lakkhangyao-thai";
lastChange = "2018-04-05 11:18:13 +0000";
layers = (
{
layerId = "0B1DFD06-3317-40CA-B510-4969A0718C16";
paths = (
{
closed = 1;
nodes = (
"253 127 OFFCURVE",
"274 108 OFFCURVE",
"274 80 CURVE SMOOTH",
"274 53 OFFCURVE",
"253 33 OFFCURVE",
"225 33 CURVE SMOOTH",
"199 33 OFFCURVE",
"178 53 OFFCURVE",
"178 80 CURVE SMOOTH",
"178 108 OFFCURVE",
"199 127 OFFCURVE",
"225 127 CURVE SMOOTH"
);
},
{
closed = 1;
nodes = (
"471 566 OFFCURVE",
"417 603 OFFCURVE",
"312 603 CURVE SMOOTH",
"174 603 OFFCURVE",
"71 515 OFFCURVE",
"55 419 CURVE",
"145 359 LINE",
"138 348 OFFCURVE",
"132 328 OFFCURVE",
"132 304 CURVE SMOOTH",
"132 83 LINE SMOOTH",
"132 30 OFFCURVE",
"171 -10 OFFCURVE",
"225 -10 CURVE SMOOTH",
"279 -10 OFFCURVE",
"320 27 OFFCURVE",
"320 80 CURVE SMOOTH",
"320 133 OFFCURVE",
"286 169 OFFCURVE",
"229 169 CURVE SMOOTH",
"215 169 OFFCURVE",
"197 164 OFFCURVE",
"184 156 CURVE",
"184 303 LINE SMOOTH",
"184 352 OFFCURVE",
"203 385 OFFCURVE",
"254 408 CURVE",
"232 446 LINE",
"207 438 OFFCURVE",
"180 417 OFFCURVE",
"168 402 CURVE",
"111 439 LINE",
"133 498 OFFCURVE",
"204 558 OFFCURVE",
"313 558 CURVE SMOOTH",
"407 558 OFFCURVE",
"459 517 OFFCURVE",
"495 462 CURVE",
"488 451 OFFCURVE",
"487 436 OFFCURVE",
"487 419 CURVE SMOOTH",
"487 -359 LINE",
"539 -359 LINE",
"539 411 LINE SMOOTH",
"539 487 OFFCURVE",
"605 558 OFFCURVE",
"707 558 CURVE SMOOTH",
"777 558 OFFCURVE",
"832 528 OFFCURVE",
"866 476 CURVE",
"859 465 OFFCURVE",
"856 447 OFFCURVE",
"856 430 CURVE SMOOTH",
"856 -359 LINE",
"908 -359 LINE",
"908 430 LINE SMOOTH",
"908 470 OFFCURVE",
"940 473 OFFCURVE",
"940 492 CURVE SMOOTH",
"940 497 OFFCURVE",
"938 505 OFFCURVE",
"928 514 CURVE SMOOTH",
"911 529 OFFCURVE",
"900 526 OFFCURVE",
"894 518 CURVE",
"854 573 OFFCURVE",
"791 603 OFFCURVE",
"706 603 CURVE SMOOTH",
"625 603 OFFCURVE",
"566 567 OFFCURVE",
"521 507 CURVE"
);
}
);
width = 1005;
}
);
note = "ru_lakkhangyao-thai";
},
{
color = 6;
glyphname = "lu_lakkhangyao-thai";
lastChange = "2018-04-05 11:18:18 +0000";
layers = (
{
layerId = "0B1DFD06-3317-40CA-B510-4969A0718C16";
paths = (
{
closed = 1;
nodes = (
"166 127 OFFCURVE",
"187 108 OFFCURVE",
"187 80 CURVE SMOOTH",
"187 53 OFFCURVE",
"166 33 OFFCURVE",
"140 33 CURVE SMOOTH",
"112 33 OFFCURVE",
"91 53 OFFCURVE",
"91 80 CURVE SMOOTH",
"91 108 OFFCURVE",
"112 127 OFFCURVE",
"140 127 CURVE SMOOTH"
);
},
{
closed = 1;
nodes = (
"489 566 OFFCURVE",
"435 603 OFFCURVE",
"330 603 CURVE SMOOTH",
"198 603 OFFCURVE",
"94 518 OFFCURVE",
"73 419 CURVE",
"182 355 LINE",
"175 344 OFFCURVE",
"174 319 OFFCURVE",
"174 295 CURVE SMOOTH",
"174 161 LINE",
"163 166 OFFCURVE",
"151 169 OFFCURVE",
"139 169 CURVE SMOOTH",
"88 169 OFFCURVE",
"45 132 OFFCURVE",
"45 79 CURVE SMOOTH",
"45 30 OFFCURVE",
"84 -10 OFFCURVE",
"140 -10 CURVE SMOOTH",
"196 -10 OFFCURVE",
"233 32 OFFCURVE",
"233 80 CURVE SMOOTH",
"233 92 OFFCURVE",
"230 108 OFFCURVE",
"226 118 CURVE",
"226 294 LINE SMOOTH",
"226 342 OFFCURVE",
"237 379 OFFCURVE",
"291 403 CURVE",
"269 442 LINE",
"248 437 OFFCURVE",
"218 412 OFFCURVE",
"206 397 CURVE",
"131 441 LINE",
"153 500 OFFCURVE",
"232 558 OFFCURVE",
"331 558 CURVE SMOOTH",
"424 558 OFFCURVE",
"477 517 OFFCURVE",
"513 462 CURVE",
"506 451 OFFCURVE",
"505 436 OFFCURVE",
"505 419 CURVE SMOOTH",
"505 -359 LINE",
"557 -359 LINE",
"557 411 LINE SMOOTH",
"557 487 OFFCURVE",
"624 558 OFFCURVE",
"726 558 CURVE SMOOTH",
"796 558 OFFCURVE",
"851 528 OFFCURVE",
"885 476 CURVE",
"878 465 OFFCURVE",
"875 447 OFFCURVE",
"875 430 CURVE SMOOTH",
"875 -359 LINE",
"927 -359 LINE",
"927 430 LINE SMOOTH",
"927 470 OFFCURVE",
"959 473 OFFCURVE",
"959 492 CURVE SMOOTH",
"959 497 OFFCURVE",
"957 505 OFFCURVE",
"947 514 CURVE SMOOTH",
"930 529 OFFCURVE",
"918 525 OFFCURVE",
"912 515 CURVE",
"865 570 OFFCURVE",
"810 603 OFFCURVE",
"725 603 CURVE SMOOTH",
"644 603 OFFCURVE",
"584 567 OFFCURVE",
"539 507 CURVE"
);
}
);
width = 1024;
}
);
note = "lu_lakkhangyao-thai";
},
{
color = 6;
glyphname = "yoYing-thai";
lastChange = "2018-04-05 11:18:51 +0000";
layers = (
{
layerId = "0B1DFD06-3317-40CA-B510-4969A0718C16";
paths = (
{
closed = 1;
nodes = (
"823 593 LINE",
"771 593 LINE",
"771 127 LINE",
"514 127 LINE",
"525 141 OFFCURVE",
"527 155 OFFCURVE",
"527 171 CURVE SMOOTH",
"527 419 LINE SMOOTH",
"527 459 OFFCURVE",
"555 462 OFFCURVE",
"555 481 CURVE SMOOTH",
"555 486 OFFCURVE",
"553 494 OFFCURVE",
"543 503 CURVE SMOOTH",
"526 518 OFFCURVE",
"515 515 OFFCURVE",
"509 507 CURVE",
"459 566 OFFCURVE",
"411 603 OFFCURVE",
"306 603 CURVE SMOOTH",
"168 603 OFFCURVE",
"71 515 OFFCURVE",
"55 419 CURVE",
"145 359 LINE",
"138 348 OFFCURVE",
"132 328 OFFCURVE",
"132 304 CURVE SMOOTH",
"132 83 LINE SMOOTH",
"132 30 OFFCURVE",
"171 -10 OFFCURVE",
"225 -10 CURVE SMOOTH",
"279 -10 OFFCURVE",
"320 27 OFFCURVE",
"320 80 CURVE SMOOTH",
"320 133 OFFCURVE",
"286 169 OFFCURVE",
"229 169 CURVE SMOOTH",
"215 169 OFFCURVE",
"197 164 OFFCURVE",
"184 156 CURVE",
"184 303 LINE SMOOTH",
"184 352 OFFCURVE",
"203 385 OFFCURVE",
"254 408 CURVE",
"232 446 LINE",
"207 438 OFFCURVE",
"180 417 OFFCURVE",
"168 402 CURVE",
"111 439 LINE",
"133 498 OFFCURVE",
"198 558 OFFCURVE",
"307 558 CURVE SMOOTH",
"401 558 OFFCURVE",
"447 517 OFFCURVE",
"483 462 CURVE",
"476 451 OFFCURVE",
"475 436 OFFCURVE",
"475 419 CURVE SMOOTH",
"475 176 LINE SMOOTH",
"475 152 OFFCURVE",
"468 139 OFFCURVE",
"450 126 CURVE SMOOTH",
"436 116 OFFCURVE",
"434 108 OFFCURVE",
"444 91 CURVE SMOOTH",
"453 75 OFFCURVE",
"462 70 OFFCURVE",
"473 76 CURVE SMOOTH",
"482 81 OFFCURVE",
"493 84 OFFCURVE",
"505 84 CURVE SMOOTH",
"771 84 LINE",
"771 -35 OFFCURVE",
"715 -114 OFFCURVE",
"602 -114 CURVE",
"602 -113 LINE",
"629 -95 OFFCURVE",
"638 -70 OFFCURVE",
"638 -47 CURVE SMOOTH",
"638 -4 OFFCURVE",
"607 34 OFFCURVE",
"548 34 CURVE SMOOTH",
"494 34 OFFCURVE",
"459 -2 OFFCURVE",
"459 -53 CURVE SMOOTH",
"459 -121 OFFCURVE",
"530 -159 OFFCURVE",
"602 -159 CURVE SMOOTH",
"742 -159 OFFCURVE",
"823 -58 OFFCURVE",
"823 84 CURVE SMOOTH"
);
},
{
closed = 1;
nodes = (
"253 127 OFFCURVE",
"274 108 OFFCURVE",
"274 80 CURVE SMOOTH",
"274 53 OFFCURVE",
"253 33 OFFCURVE",
"225 33 CURVE SMOOTH",
"199 33 OFFCURVE",
"178 53 OFFCURVE",
"178 80 CURVE SMOOTH",
"178 108 OFFCURVE",
"199 127 OFFCURVE",
"225 127 CURVE SMOOTH"
);
},
{
closed = 1;
nodes = (
"505 -28 OFFCURVE",
"523 -9 OFFCURVE",
"548 -9 CURVE SMOOTH",
"575 -9 OFFCURVE",
"592 -27 OFFCURVE",
"592 -53 CURVE SMOOTH",
"592 -77 OFFCURVE",
"573 -96 OFFCURVE",
"548 -96 CURVE SMOOTH",
"524 -96 OFFCURVE",
"505 -77 OFFCURVE",
"505 -53 CURVE SMOOTH"
);
}
);
width = 898;
}
);
note = uni0E0D;
unicode = 0E0D;
},
{
color = 6;
glyphname = "yoYing-thai.less";
lastChange = "2018-04-05 11:18:55 +0000";
layers = (
{
layerId = "0B1DFD06-3317-40CA-B510-4969A0718C16";
paths = (
{
closed = 1;
nodes = (
"527 419 LINE SMOOTH",
"527 459 OFFCURVE",
"555 462 OFFCURVE",
"555 481 CURVE SMOOTH",
"555 486 OFFCURVE",
"553 494 OFFCURVE",
"543 503 CURVE SMOOTH",
"526 518 OFFCURVE",
"515 515 OFFCURVE",
"509 507 CURVE",
"459 566 OFFCURVE",
"411 603 OFFCURVE",
"306 603 CURVE SMOOTH",
"168 603 OFFCURVE",
"71 515 OFFCURVE",
"55 419 CURVE",
"145 359 LINE",
"138 348 OFFCURVE",
"132 328 OFFCURVE",
"132 304 CURVE SMOOTH",
"132 83 LINE SMOOTH",
"132 30 OFFCURVE",
"171 -10 OFFCURVE",
"225 -10 CURVE SMOOTH",
"279 -10 OFFCURVE",
"320 27 OFFCURVE",
"320 80 CURVE SMOOTH",
"320 133 OFFCURVE",
"286 169 OFFCURVE",
"229 169 CURVE SMOOTH",
"215 169 OFFCURVE",
"197 164 OFFCURVE",
"184 156 CURVE",
"184 303 LINE SMOOTH",
"184 352 OFFCURVE",
"203 385 OFFCURVE",
"254 408 CURVE",
"232 446 LINE",
"207 438 OFFCURVE",
"180 417 OFFCURVE",
"168 402 CURVE",
"111 439 LINE",
"133 498 OFFCURVE",
"198 558 OFFCURVE",
"307 558 CURVE SMOOTH",
"401 558 OFFCURVE",
"447 517 OFFCURVE",
"483 462 CURVE",
"476 451 OFFCURVE",
"475 436 OFFCURVE",
"475 419 CURVE SMOOTH",
"475 92 LINE SMOOTH",
"475 68 OFFCURVE",
"468 55 OFFCURVE",
"450 42 CURVE SMOOTH",
"436 32 OFFCURVE",
"434 24 OFFCURVE",
"444 7 CURVE SMOOTH",
"453 -9 OFFCURVE",
"462 -14 OFFCURVE",
"473 -8 CURVE SMOOTH",
"482 -3 OFFCURVE",
"493 0 OFFCURVE",
"505 0 CURVE SMOOTH",
"773 0 LINE SMOOTH",
"810 0 OFFCURVE",
"823 23 OFFCURVE",
"823 56 CURVE SMOOTH",
"823 593 LINE",
"771 593 LINE",
"771 43 LINE",
"514 43 LINE",
"525 57 OFFCURVE",
"527 71 OFFCURVE",
"527 87 CURVE SMOOTH"
);
},
{
closed = 1;
nodes = (
"253 127 OFFCURVE",
"274 108 OFFCURVE",
"274 80 CURVE SMOOTH",
"274 53 OFFCURVE",
"253 33 OFFCURVE",
"225 33 CURVE SMOOTH",
"199 33 OFFCURVE",
"178 53 OFFCURVE",
"178 80 CURVE SMOOTH",
"178 108 OFFCURVE",
"199 127 OFFCURVE",
"225 127 CURVE SMOOTH"
);
}
);
width = 898;
}
);
note = "yoYing-thai.less";
},
{
color = 6;
glyphname = "khoKhai-thai";
lastChange = "2018-04-05 11:19:00 +0000";
layers = (
{
layerId = "0B1DFD06-3317-40CA-B510-4969A0718C16";
paths = (
{
closed = 1;
nodes = (
"481 593 LINE",
"429 593 LINE",
"429 43 LINE",
"196 43 LINE",
"207 57 OFFCURVE",
"209 71 OFFCURVE",
"209 87 CURVE SMOOTH",
"209 181 LINE SMOOTH",
"209 276 OFFCURVE",
"351 316 OFFCURVE",
"351 465 CURVE SMOOTH",
"351 540 OFFCURVE",
"305 603 OFFCURVE",
"211 603 CURVE SMOOTH",
"122 603 OFFCURVE",
"55 544 OFFCURVE",
"55 465 CURVE SMOOTH",
"55 409 OFFCURVE",
"97 373 OFFCURVE",
"150 373 CURVE SMOOTH",
"208 373 OFFCURVE",
"246 412 OFFCURVE",
"246 465 CURVE SMOOTH",
"246 505 OFFCURVE",
"222 542 OFFCURVE",
"163 547 CURVE",
"163 549 LINE",
"174 553 OFFCURVE",
"195 559 OFFCURVE",
"215 559 CURVE SMOOTH",
"263 559 OFFCURVE",
"299 530 OFFCURVE",
"299 462 CURVE SMOOTH",
"299 325 OFFCURVE",
"157 300 OFFCURVE",
"157 179 CURVE SMOOTH",
"157 92 LINE SMOOTH",
"157 68 OFFCURVE",
"150 55 OFFCURVE",
"132 42 CURVE SMOOTH",
"118 32 OFFCURVE",
"116 24 OFFCURVE",
"126 7 CURVE SMOOTH",
"135 -9 OFFCURVE",
"144 -14 OFFCURVE",
"155 -8 CURVE SMOOTH",
"164 -3 OFFCURVE",
"175 0 OFFCURVE",
"187 0 CURVE SMOOTH",
"433 0 LINE SMOOTH",
"465 0 OFFCURVE",
"481 23 OFFCURVE",
"481 53 CURVE SMOOTH"
);
},
{
closed = 1;
nodes = (
"123 417 OFFCURVE",
"101 437 OFFCURVE",
"101 465 CURVE SMOOTH",
"101 492 OFFCURVE",
"123 514 OFFCURVE",
"150 514 CURVE SMOOTH",
"178 514 OFFCURVE",
"200 492 OFFCURVE",
"200 465 CURVE SMOOTH",
"200 437 OFFCURVE",
"178 417 OFFCURVE",
"150 417 CURVE SMOOTH"
);
}
);
width = 556;
}
);
note = uni0E02;
unicode = 0E02;
},
{
color = 6;
glyphname = "khoKhuat-thai";
lastChange = "2018-04-05 11:19:05 +0000";
layers = (
{
layerId = "0B1DFD06-3317-40CA-B510-4969A0718C16";
paths = (
{
closed = 1;
nodes = (
"186 449 OFFCURVE",
"207 428 OFFCURVE",
"207 402 CURVE SMOOTH",
"207 375 OFFCURVE",
"186 354 OFFCURVE",
"160 354 CURVE SMOOTH",
"133 354 OFFCURVE",
"111 375 OFFCURVE",
"111 402 CURVE SMOOTH",
"111 428 OFFCURVE",
"133 449 OFFCURVE",
"160 449 CURVE SMOOTH"
);
},
{
closed = 1;
nodes = (
"519 0 OFFCURVE",
"535 23 OFFCURVE",
"535 53 CURVE SMOOTH",
"535 593 LINE",
"483 593 LINE",
"483 43 LINE",
"250 43 LINE",
"261 57 OFFCURVE",
"263 71 OFFCURVE",
"263 87 CURVE SMOOTH",
"263 175 LINE SMOOTH",
"263 306 OFFCURVE",
"415 392 OFFCURVE",
"415 476 CURVE SMOOTH",
"415 532 OFFCURVE",
"391 571 OFFCURVE",
"356 597 CURVE SMOOTH",
"351 601 OFFCURVE",
"343 603 OFFCURVE",
"336 603 CURVE SMOOTH",
"328 603 OFFCURVE",
"321 599 OFFCURVE",
"315 594 CURVE SMOOTH",
"269 554 LINE",
"246 584 OFFCURVE",
"218 603 OFFCURVE",
"178 603 CURVE SMOOTH",
"99 603 OFFCURVE",
"55 529 OFFCURVE",
"55 438 CURVE SMOOTH",
"55 366 OFFCURVE",
"88 310 OFFCURVE",
"160 310 CURVE SMOOTH",
"213 310 OFFCURVE",
"253 351 OFFCURVE",
"253 401 CURVE SMOOTH",
"253 454 OFFCURVE",
"219 492 OFFCURVE",
"165 492 CURVE SMOOTH",
"142 492 OFFCURVE",
"118 482 OFFCURVE",
"104 465 CURVE",
"103 465 LINE",
"107 509 OFFCURVE",
"128 559 OFFCURVE",
"178 559 CURVE SMOOTH",
"223 559 OFFCURVE",
"237 534 OFFCURVE",
"257 490 CURVE SMOOTH",
"263 477 OFFCURVE",
"272 476 OFFCURVE",
"287 482 CURVE SMOOTH",
"302 488 OFFCURVE",
"302 501 OFFCURVE",
"290 525 CURVE",
"328 556 LINE",
"350 542 OFFCURVE",
"364 518 OFFCURVE",
"364 476 CURVE SMOOTH",
"364 414 OFFCURVE",
"211 299 OFFCURVE",
"211 179 CURVE SMOOTH",
"211 92 LINE SMOOTH",
"211 68 OFFCURVE",
"204 55 OFFCURVE",
"186 42 CURVE SMOOTH",
"172 32 OFFCURVE",
"170 24 OFFCURVE",
"180 7 CURVE SMOOTH",
"189 -9 OFFCURVE",
"198 -14 OFFCURVE",
"209 -8 CURVE SMOOTH",
"218 -3 OFFCURVE",
"229 0 OFFCURVE",
"241 0 CURVE SMOOTH",
"487 0 LINE SMOOTH"
);
}
);
width = 610;
}
);
note = uni0E03;
unicode = 0E03;
},
{
color = 6;
glyphname = "choChang-thai";
lastChange = "2018-04-05 11:19:10 +0000";
layers = (
{
layerId = "0B1DFD06-3317-40CA-B510-4969A0718C16";
paths = (
{
closed = 1;
nodes = (
"123 417 OFFCURVE",
"101 437 OFFCURVE",
"101 465 CURVE SMOOTH",
"101 492 OFFCURVE",
"123 514 OFFCURVE",
"150 514 CURVE SMOOTH",
"178 514 OFFCURVE",
"200 492 OFFCURVE",
"200 465 CURVE SMOOTH",
"200 437 OFFCURVE",
"178 417 OFFCURVE",
"150 417 CURVE SMOOTH"
);
},
{
closed = 1;
nodes = (
"507 328 LINE SMOOTH",
"507 400 OFFCURVE",
"492 428 OFFCURVE",
"436 446 CURVE",
"462 504 OFFCURVE",
"515 567 OFFCURVE",
"586 607 CURVE",
"554 646 LINE",
"471 597 OFFCURVE",
"422 525 OFFCURVE",
"385 450 CURVE SMOOTH",
"377 434 OFFCURVE",
"381 419 OFFCURVE",
"400 415 CURVE SMOOTH",
"446 405 OFFCURVE",
"455 385 OFFCURVE",
"455 329 CURVE SMOOTH",
"455 43 LINE",
"222 43 LINE",
"233 57 OFFCURVE",
"235 71 OFFCURVE",
"235 87 CURVE SMOOTH",
"235 191 LINE SMOOTH",
"235 289 OFFCURVE",
"351 334 OFFCURVE",
"351 465 CURVE SMOOTH",
"351 540 OFFCURVE",
"305 603 OFFCURVE",
"211 603 CURVE SMOOTH",
"122 603 OFFCURVE",
"55 544 OFFCURVE",
"55 465 CURVE SMOOTH",
"55 409 OFFCURVE",
"97 373 OFFCURVE",
"150 373 CURVE SMOOTH",
"208 373 OFFCURVE",
"246 412 OFFCURVE",
"246 465 CURVE SMOOTH",
"246 505 OFFCURVE",
"222 542 OFFCURVE",
"163 547 CURVE",
"163 549 LINE",
"174 553 OFFCURVE",
"195 559 OFFCURVE",
"215 559 CURVE SMOOTH",
"263 559 OFFCURVE",
"299 530 OFFCURVE",
"299 462 CURVE SMOOTH",
"299 338 OFFCURVE",
"183 312 OFFCURVE",
"183 189 CURVE SMOOTH",
"183 92 LINE SMOOTH",
"183 68 OFFCURVE",
"176 55 OFFCURVE",
"158 42 CURVE SMOOTH",
"144 32 OFFCURVE",
"142 24 OFFCURVE",
"152 7 CURVE SMOOTH",
"161 -9 OFFCURVE",
"170 -14 OFFCURVE",
"181 -8 CURVE SMOOTH",
"190 -3 OFFCURVE",
"201 0 OFFCURVE",
"213 0 CURVE SMOOTH",
"459 0 LINE SMOOTH",
"491 0 OFFCURVE",
"507 23 OFFCURVE",
"507 53 CURVE SMOOTH"
);
}
);
width = 631;
}
);
note = uni0E0A;
unicode = 0E0A;
},
{
color = 6;
glyphname = "soSo-thai";
lastChange = "2018-04-05 11:19:17 +0000";
layers = (
{
layerId = "0B1DFD06-3317-40CA-B510-4969A0718C16";
paths = (
{
closed = 1;
nodes = (
"186 448 OFFCURVE",
"207 427 OFFCURVE",
"207 401 CURVE SMOOTH",
"207 374 OFFCURVE",
"186 353 OFFCURVE",
"160 353 CURVE SMOOTH",
"133 353 OFFCURVE",
"111 374 OFFCURVE",
"111 401 CURVE SMOOTH",
"111 427 OFFCURVE",
"133 448 OFFCURVE",
"160 448 CURVE SMOOTH"
);
},
{
closed = 1;
nodes = (
"400 523 OFFCURVE",
"380 569 OFFCURVE",
"346 596 CURVE SMOOTH",
"341 600 OFFCURVE",
"333 602 OFFCURVE",
"326 602 CURVE SMOOTH",
"318 602 OFFCURVE",
"311 598 OFFCURVE",
"305 593 CURVE SMOOTH",
"263 553 LINE",
"240 583 OFFCURVE",
"215 602 OFFCURVE",
"175 602 CURVE SMOOTH",
"96 602 OFFCURVE",
"55 528 OFFCURVE",
"55 437 CURVE SMOOTH",
"55 365 OFFCURVE",
"88 309 OFFCURVE",
"160 309 CURVE SMOOTH",
"213 309 OFFCURVE",
"253 350 OFFCURVE",
"253 400 CURVE SMOOTH",
"253 453 OFFCURVE",
"219 491 OFFCURVE",
"165 491 CURVE SMOOTH",
"142 491 OFFCURVE",
"118 481 OFFCURVE",
"104 464 CURVE",
"103 464 LINE",
"107 508 OFFCURVE",
"125 558 OFFCURVE",
"175 558 CURVE SMOOTH",
"220 558 OFFCURVE",
"231 533 OFFCURVE",
"251 489 CURVE SMOOTH",
"257 476 OFFCURVE",
"266 475 OFFCURVE",
"281 481 CURVE SMOOTH",
"296 487 OFFCURVE",
"296 500 OFFCURVE",
"284 524 CURVE",
"318 555 LINE",
"340 541 OFFCURVE",
"351 515 OFFCURVE",
"351 467 CURVE SMOOTH",
"351 394 OFFCURVE",
"213 305 OFFCURVE",
"213 179 CURVE SMOOTH",
"213 92 LINE SMOOTH",
"213 68 OFFCURVE",
"206 55 OFFCURVE",
"188 42 CURVE SMOOTH",
"174 32 OFFCURVE",
"172 24 OFFCURVE",
"182 7 CURVE SMOOTH",
"191 -9 OFFCURVE",
"200 -14 OFFCURVE",
"211 -8 CURVE SMOOTH",
"220 -3 OFFCURVE",
"231 0 OFFCURVE",
"243 0 CURVE SMOOTH",
"489 0 LINE SMOOTH",
"521 0 OFFCURVE",
"537 23 OFFCURVE",
"537 53 CURVE SMOOTH",
"537 328 LINE SMOOTH",
"537 400 OFFCURVE",
"521 428 OFFCURVE",
"480 446 CURVE",
"506 504 OFFCURVE",
"545 567 OFFCURVE",
"616 607 CURVE",
"584 646 LINE",
"501 597 OFFCURVE",
"466 525 OFFCURVE",
"429 450 CURVE SMOOTH",
"421 434 OFFCURVE",
"425 419 OFFCURVE",
"444 415 CURVE SMOOTH",
"478 408 OFFCURVE",
"485 385 OFFCURVE",
"485 329 CURVE SMOOTH",
"485 43 LINE",
"252 43 LINE",
"263 57 OFFCURVE",
"265 71 OFFCURVE",
"265 87 CURVE SMOOTH",
"265 175 LINE SMOOTH",
"265 306 OFFCURVE",
"400 381 OFFCURVE",
"400 467 CURVE SMOOTH"
);
}
);
width = 661;
}
);
note = uni0E0B;
unicode = 0E0B;
},
{
color = 6;
glyphname = "khoKhwai-thai";
lastChange = "2018-04-05 11:19:23 +0000";
layers = (
{
layerId = "0B1DFD06-3317-40CA-B510-4969A0718C16";
paths = (
{
closed = 1;
nodes = (
"345 305 OFFCURVE",
"324 285 OFFCURVE",
"298 285 CURVE SMOOTH",
"271 285 OFFCURVE",
"251 305 OFFCURVE",
"251 332 CURVE SMOOTH",
"251 358 OFFCURVE",
"271 379 OFFCURVE",
"298 379 CURVE SMOOTH",
"324 379 OFFCURVE",
"345 358 OFFCURVE",
"345 332 CURVE SMOOTH"
);
},
{
closed = 1;
nodes = (
"466 455 OFFCURVE",
"463 436 OFFCURVE",
"463 419 CURVE SMOOTH",
"463 0 LINE",
"515 0 LINE",
"515 419 LINE SMOOTH",
"515 459 OFFCURVE",
"547 462 OFFCURVE",
"547 481 CURVE SMOOTH",
"547 486 OFFCURVE",
"545 494 OFFCURVE",
"535 503 CURVE SMOOTH",
"518 518 OFFCURVE",
"507 515 OFFCURVE",
"501 507 CURVE",
"456 562 OFFCURVE",
"401 603 OFFCURVE",
"296 603 CURVE SMOOTH",
"145 603 OFFCURVE",
"55 517 OFFCURVE",
"55 372 CURVE SMOOTH",
"55 232 OFFCURVE",
"118 97 OFFCURVE",
"84 46 CURVE SMOOTH",
"70 25 OFFCURVE",
"73 16 OFFCURVE",
"89 5 CURVE SMOOTH",
"105 -6 OFFCURVE",
"116 -4 OFFCURVE",
"125 9 CURVE SMOOTH",
"193 112 OFFCURVE",
"209 183 OFFCURVE",
"231 271 CURVE",
"249 253 OFFCURVE",
"270 243 OFFCURVE",
"298 243 CURVE SMOOTH",
"351 243 OFFCURVE",
"391 279 OFFCURVE",
"391 332 CURVE SMOOTH",
"391 385 OFFCURVE",
"356 422 OFFCURVE",
"298 422 CURVE SMOOTH",
"256 422 OFFCURVE",
"221 404 OFFCURVE",
"204 358 CURVE SMOOTH",
"181 296 OFFCURVE",
"187 250 OFFCURVE",
"137 117 CURVE",
"136 117 LINE",
"131 208 OFFCURVE",
"108 253 OFFCURVE",
"108 372 CURVE SMOOTH",
"108 489 OFFCURVE",
"178 558 OFFCURVE",
"296 558 CURVE SMOOTH",
"388 558 OFFCURVE",
"435 521 OFFCURVE",
"473 466 CURVE"
);
}
);
width = 612;
}
);
note = uni0E04;
unicode = 0E04;
},
{
color = 6;
glyphname = "khoKhon-thai";
lastChange = "2018-04-05 11:19:27 +0000";
layers = (
{
layerId = "0B1DFD06-3317-40CA-B510-4969A0718C16";
paths = (
{
closed = 1;
nodes = (
"345 305 OFFCURVE",
"324 285 OFFCURVE",
"298 285 CURVE SMOOTH",
"271 285 OFFCURVE",
"251 305 OFFCURVE",
"251 332 CURVE SMOOTH",
"251 358 OFFCURVE",
"271 379 OFFCURVE",
"298 379 CURVE SMOOTH",
"324 379 OFFCURVE",
"345 358 OFFCURVE",
"345 332 CURVE SMOOTH"
);
},
{
closed = 1;
nodes = (
"482 567 OFFCURVE",
"454 603 OFFCURVE",
"398 603 CURVE SMOOTH",
"353 603 OFFCURVE",
"318 577 OFFCURVE",
"297 545 CURVE",
"277 577 OFFCURVE",
"247 603 OFFCURVE",
"199 603 CURVE SMOOTH",
"99 603 OFFCURVE",
"55 508 OFFCURVE",
"55 372 CURVE SMOOTH",
"55 232 OFFCURVE",
"118 97 OFFCURVE",
"84 46 CURVE SMOOTH",
"70 25 OFFCURVE",
"73 16 OFFCURVE",
"89 5 CURVE SMOOTH",
"105 -6 OFFCURVE",
"116 -4 OFFCURVE",
"125 9 CURVE SMOOTH",
"193 112 OFFCURVE",
"209 183 OFFCURVE",
"231 271 CURVE",
"249 253 OFFCURVE",
"270 243 OFFCURVE",
"298 243 CURVE SMOOTH",
"351 243 OFFCURVE",
"391 279 OFFCURVE",
"391 332 CURVE SMOOTH",
"391 385 OFFCURVE",
"356 422 OFFCURVE",
"298 422 CURVE SMOOTH",
"256 422 OFFCURVE",
"221 404 OFFCURVE",
"204 358 CURVE SMOOTH",
"181 296 OFFCURVE",
"187 250 OFFCURVE",
"137 117 CURVE",
"136 117 LINE",
"131 208 OFFCURVE",
"108 253 OFFCURVE",
"108 372 CURVE SMOOTH",
"108 495 OFFCURVE",
"137 558 OFFCURVE",
"203 558 CURVE SMOOTH",
"241 558 OFFCURVE",
"256 530 OFFCURVE",
"276 494 CURVE SMOOTH",
"283 481 OFFCURVE",
"292 479 OFFCURVE",
"306 486 CURVE SMOOTH",
"322 494 OFFCURVE",
"324 504 OFFCURVE",
"318 514 CURVE",
"336 538 OFFCURVE",
"357 558 OFFCURVE",
"394 558 CURVE SMOOTH",
"439 558 OFFCURVE",
"461 529 OFFCURVE",
"473 486 CURVE",
"466 475 OFFCURVE",
"463 456 OFFCURVE",
"463 439 CURVE SMOOTH",
"463 0 LINE",
"515 0 LINE",
"515 439 LINE SMOOTH",
"515 479 OFFCURVE",
"547 482 OFFCURVE",
"547 501 CURVE SMOOTH",
"547 506 OFFCURVE",
"545 514 OFFCURVE",
"535 523 CURVE SMOOTH",
"518 538 OFFCURVE",
"507 535 OFFCURVE",
"501 527 CURVE"
);
}
);
width = 612;
}
);
note = uni0E05;
unicode = 0E05;
},
